STARTFONT 2.1
COMMENT
COMMENT Converted from TrueType font "arialbd.ttf" by "ttf2bdf 2.6".
COMMENT
FONT -FreeType-Arial-Bold-R-Normal--25-180-100-100-P-125-ISO10646-1
SIZE 18 100 100
FONTBOUNDINGBOX 44 37 -16 -11
STARTPROPERTIES 22
FOUNDRY "FreeType"
FAMILY_NAME "Arial"
WEIGHT_NAME "Bold"
SLANT "R"
SETWIDTH_NAME "Normal"
ADD_STYLE_NAME ""
PIXEL_SIZE 25
POINT_SIZE 180
RESOLUTION_X 100
RESOLUTION_Y 100
SPACING "P"
AVERAGE_WIDTH 125
CHARSET_REGISTRY "ISO10646"
CHARSET_ENCODING "1"
FONT_ASCENT 22
FONT_DESCENT 5
COPYRIGHT "Typeface © The Monotype Corporation plc. Data © The Monotype Corporation plc/Type Solutions Inc. 1990-1992. All Rights Reserved"
_TTF_FONTFILE "arialbd.ttf"
_TTF_PSNAME "Arial-BoldMT"
_XFREE86_GLYPH_RANGES "32_126 160_383 399 402 416_417 431_432 461_476 506_511 601 710_711 713 728_733 768_769 771 777 803 894 900_906 908 910_929 931_974 1025_1036 1038_1103 1105_1116 1118_1119 1168_1171 1174_1175 1178_1181 1186_1187 1198_1203 1208_1211 1240_1241 1256_1257 1456_1475 1488_1514 1520_1524 1548 1563 1567 1569_1594 1600_1621 1632_1773 1776_1790 7808_7813 7840_7929 8204_8207 8211_8213 8215_8222 8224_8226 8230 8234_8238 8240 8242_8243 8249_8250 8252 8254 8260 8298_8303 8319 8355_8356 8359"
_XFREE86_GLYPH_RANGES "8362_8364 8453 8467 8470 8482 8486 8494 8531_8532 8539_8542 8592_8597 8616 8706 8710 8719 8721_8722 8725 8729_8730 8734_8735 8745 8747 8776 8800_8801 8804_8805 8962 8976 8992_8993 9472 9474 9484 9488 9492 9496 9500 9508 9516 9524 9532 9552_9580 9600 9604 9608 9612 9616_9619 9632_9633 9642_9644 9650 9658 9660 9668 9674_9675 9679 9688_9689 9702 9786_9788 9792 9794 9824 9827 9829_9830 9834_9835 59393_59397 59416 59450 61441_61442 61444_61489 64257_64258 64285_64288 64298_64310"
_XFREE86_GLYPH_RANGES "64312_64316 64318 64320_64321 64323_64324 64326_64433 64467_64487 64508_64511 64606_64610 64830_64831 65010 65152_65276 65532"
ENDPROPERTIES
CHARS 1419
STARTCHAR 0020
ENCODING 32
SWIDTH 240 0
DWIDTH 6 0
BBX 1 1 0 0
BITMAP
00
ENDCHAR
STARTCHAR 0021
ENCODING 33
SWIDTH 280 0
DWIDTH 7 0
BBX 3 18 2 0
BITMAP
E0
E0
E0
E0
E0
E0
E0
E0
E0
E0
60
40
40
00
00
E0
E0
E0
ENDCHAR
STARTCHAR 0022
ENCODING 34
SWIDTH 480 0
DWIDTH 12 0
BBX 9 6 1 12
BITMAP
E380
E380
E380
E380
E380
E380
ENDCHAR
STARTCHAR 0023
ENCODING 35
SWIDTH 560 0
DWIDTH 14 0
BBX 15 18 0 0
BITMAP
071C
071C
0E38
0E38
FFFE
FFFE
FFFE
1C70
1C70
1C70
1C70
FFFE
FFFE
FFFE
38E0
38E0
71C0
71C0
ENDCHAR
STARTCHAR 0024
ENCODING 36
SWIDTH 560 0
DWIDTH 14 0
BBX 12 21 1 -2
BITMAP
0600
1F80
7FC0
7FE0
F6F0
E670
E600
F600
7E00
7FC0
1FE0
07F0
0670
E670
E670
76F0
7FE0
3FC0
1F80
0600
0600
ENDCHAR
STARTCHAR 0025
ENCODING 37
SWIDTH 720 0
DWIDTH 18 0
BBX 16 19 1 -1
BITMAP
7818
7838
CC30
CC30
CC60
CC60
CCC0
78C0
79C0
0180
019E
031E
0333
0733
0633
0633
0C33
0C1E
181E
ENDCHAR
STARTCHAR 0026
ENCODING 38
SWIDTH 720 0
DWIDTH 18 0
BBX 17 18 1 0
BITMAP
0FC000
1FE000
3FF000
387000
387000
3CF000
1FE000
1FC000
1F8000
7FC000
73EE00
E1FE00
E0FE00
E07C00
F0FE00
7FFF80
3FEF00
1F8200
ENDCHAR
STARTCHAR 0027
ENCODING 39
SWIDTH 240 0
DWIDTH 6 0
BBX 3 6 1 12
BITMAP
E0
E0
E0
E0
E0
E0
ENDCHAR
STARTCHAR 0028
ENCODING 40
SWIDTH 320 0
DWIDTH 8 0
BBX 6 23 1 -5
BITMAP
1C
38
38
78
70
70
70
E0
E0
E0
E0
E0
E0
E0
E0
E0
70
70
70
70
38
38
1C
ENDCHAR
STARTCHAR 0029
ENCODING 41
SWIDTH 320 0
DWIDTH 8 0
BBX 6 23 1 -5
BITMAP
E0
70
70
78
38
38
38
1C
1C
1C
1C
1C
1C
1C
1C
1C
38
38
38
38
70
70
E0
ENDCHAR
STARTCHAR 002A
ENCODING 42
SWIDTH 400 0
DWIDTH 10 0
BBX 8 8 1 10
BITMAP
18
18
DB
FF
1C
3C
66
24
ENDCHAR
STARTCHAR 002B
ENCODING 43
SWIDTH 600 0
DWIDTH 15 0
BBX 13 13 1 3
BITMAP
0700
0700
0700
0700
0700
FFF8
FFF8
FFF8
0700
0700
0700
0700
0700
ENDCHAR
STARTCHAR 002C
ENCODING 44
SWIDTH 280 0
DWIDTH 7 0
BBX 3 7 2 -4
BITMAP
E0
E0
E0
60
60
C0
80
ENDCHAR
STARTCHAR 002D
ENCODING 45
SWIDTH 320 0
DWIDTH 8 0
BBX 7 3 1 5
BITMAP
FE
FE
FE
ENDCHAR
STARTCHAR 002E
ENCODING 46
SWIDTH 280 0
DWIDTH 7 0
BBX 3 3 2 0
BITMAP
E0
E0
E0
ENDCHAR
STARTCHAR 002F
ENCODING 47
SWIDTH 280 0
DWIDTH 7 0
BBX 7 18 0 0
BITMAP
0E
0E
1C
1C
1C
1C
1C
38
38
38
38
70
70
70
70
70
E0
E0
ENDCHAR
STARTCHAR 0030
ENCODING 48
SWIDTH 560 0
DWIDTH 14 0
BBX 12 18 1 0
BITMAP
0F00
3FC0
7FE0
70E0
F0E0
E070
E070
E070
E070
E070
E070
E070
E070
F0E0
70E0
7FE0
3FC0
0F00
ENDCHAR
STARTCHAR 0031
ENCODING 49
SWIDTH 560 0
DWIDTH 14 0
BBX 7 18 2 0
BITMAP
0E
0E
1E
3E
7E
FE
EE
8E
0E
0E
0E
0E
0E
0E
0E
0E
0E
0E
ENDCHAR
STARTCHAR 0032
ENCODING 50
SWIDTH 560 0
DWIDTH 14 0
BBX 12 18 1 0
BITMAP
1F80
3FC0
7FE0
F0F0
E070
E070
0070
00F0
01E0
03C0
0780
0F00
1E00
3C00
7800
7FF0
FFF0
FFF0
ENDCHAR
STARTCHAR 0033
ENCODING 51
SWIDTH 560 0
DWIDTH 14 0
BBX 12 18 1 0
BITMAP
1F00
7FC0
7FC0
F1E0
E0E0
00E0
01E0
0FC0
0F80
0FE0
00E0
0070
E070
E070
70F0
7FE0
3FC0
1F80
ENDCHAR
STARTCHAR 0034
ENCODING 52
SWIDTH 560 0
DWIDTH 14 0
BBX 13 18 0 0
BITMAP
00E0
01E0
03E0
03E0
07E0
0EE0
1EE0
1CE0
38E0
70E0
E0E0
FFF8
FFF8
FFF8
00E0
00E0
00E0
00E0
ENDCHAR
STARTCHAR 0035
ENCODING 53
SWIDTH 560 0
DWIDTH 14 0
BBX 12 18 1 0
BITMAP
3FE0
3FE0
7FE0
7000
7000
7F80
FFC0
FFE0
F0E0
0070
0070
0070
E070
E070
70E0
7FE0
3FC0
1F00
ENDCHAR
STARTCHAR 0036
ENCODING 54
SWIDTH 560 0
DWIDTH 14 0
BBX 12 18 1 0
BITMAP
0F80
1FE0
3FE0
78F0
7070
E000
E000
EF80
FFC0
FFE0
F0F0
E070
E070
6070
70F0
7FE0
3FC0
0F80
ENDCHAR
STARTCHAR 0037
ENCODING 55
SWIDTH 560 0
DWIDTH 14 0
BBX 12 18 1 0
BITMAP
FFF0
FFF0
FFF0
00F0
01E0
03C0
0380
0780
0700
0700
0E00
0E00
0E00
1E00
1C00
1C00
1C00
1C00
ENDCHAR
STARTCHAR 0038
ENCODING 56
SWIDTH 560 0
DWIDTH 14 0
BBX 12 18 1 0
BITMAP
1F80
7FE0
7FE0
F0F0
E070
E070
F0F0
7FE0
3FC0
7FE0
F0F0
E070
E070
E070
F0F0
7FE0
3FC0
1F80
ENDCHAR
STARTCHAR 0039
ENCODING 57
SWIDTH 560 0
DWIDTH 14 0
BBX 12 18 1 0
BITMAP
1F00
3FC0
7FE0
F0E0
E060
E070
E070
F0F0
7FF0
3FF0
1F70
0070
0070
E0E0
F1E0
7FC0
7F80
1F00
ENDCHAR
STARTCHAR 003A
ENCODING 58
SWIDTH 280 0
DWIDTH 7 0
BBX 3 14 2 0
BITMAP
E0
E0
E0
00
00
00
00
00
00
00
00
E0
E0
E0
ENDCHAR
STARTCHAR 003B
ENCODING 59
SWIDTH 280 0
DWIDTH 7 0
BBX 3 18 2 -4
BITMAP
E0
E0
E0
00
00
00
00
00
00
00
00
E0
E0
E0
60
60
C0
80
ENDCHAR
STARTCHAR 003C
ENCODING 60
SWIDTH 600 0
DWIDTH 15 0
BBX 12 14 1 2
BITMAP
0010
0070
03F0
0FE0
3F80
FC00
F000
F000
FE00
3F80
0FE0
01F0
0070
0010
ENDCHAR
STARTCHAR 003D
ENCODING 61
SWIDTH 600 0
DWIDTH 15 0
BBX 13 8 1 6
BITMAP
FFF8
FFF8
FFF8
0000
0000
FFF8
FFF8
FFF8
ENDCHAR
STARTCHAR 003E
ENCODING 62
SWIDTH 600 0
DWIDTH 15 0
BBX 12 14 1 2
BITMAP
8000
E000
F800
7F00
0FC0
03F0
00F0
00F0
03F0
0FC0
7F00
F800
E000
8000
ENDCHAR
STARTCHAR 003F
ENCODING 63
SWIDTH 600 0
DWIDTH 15 0
BBX 13 18 1 0
BITMAP
0F80
3FE0
7FF0
F078
E038
0038
0078
00F0
01E0
03C0
0780
0700
0700
0000
0000
0700
0700
0700
ENDCHAR
STARTCHAR 0040
ENCODING 64
SWIDTH 960 0
DWIDTH 24 0
BBX 23 24 1 -6
BITMAP
00FE00
03FFC0
0FFFE0
1F81F0
3EF7F8
3DFF38
79FF3C
739F1C
738F1C
E70F1C
E70F1C
E70E1C
E70E38
E71E38
E79EF0
E7FFE0
73FFC0
71CF00
78001E
3C003C
1F00F8
0FFFF0
07FFE0
00FF00
ENDCHAR
STARTCHAR 0041
ENCODING 65
SWIDTH 680 0
DWIDTH 17 0
BBX 17 18 0 0
BITMAP
03E000
03E000
03E000
077000
077000
0F7800
0E3800
0E3800
1E1C00
1C1C00
1C1C00
3FFE00
3FFE00
3FFE00
700700
700700
700700
E00380
ENDCHAR
STARTCHAR 0042
ENCODING 66
SWIDTH 720 0
DWIDTH 18 0
BBX 15 18 2 0
BITMAP
FFE0
FFF8
FFFC
E03C
E01C
E01C
E03C
FFF8
FFF8
FFFC
E01E
E00E
E00E
E00E
E01E
FFFC
FFF8
FFF0
ENDCHAR
STARTCHAR 0043
ENCODING 67
SWIDTH 720 0
DWIDTH 18 0
BBX 16 18 1 0
BITMAP
03F0
1FFC
3FFE
7C1E
700F
7006
E000
E000
E000
E000
E000
E006
F00F
700F
7C1E
3FFC
1FF8
07E0
ENDCHAR
STARTCHAR 0044
ENCODING 68
SWIDTH 720 0
DWIDTH 18 0
BBX 15 18 2 0
BITMAP
FFC0
FFF0
FFF8
E07C
E01C
E01E
E00E
E00E
E00E
E00E
E00E
E00E
E01E
E01C
E03C
FFF8
FFF0
FFC0
ENDCHAR
STARTCHAR 0045
ENCODING 69
SWIDTH 680 0
DWIDTH 17 0
BBX 14 18 2 0
BITMAP
FFFC
FFFC
FFFC
E000
E000
E000
E000
FFF8
FFF8
FFF8
E000
E000
E000
E000
E000
FFFC
FFFC
FFFC
ENDCHAR
STARTCHAR 0046
ENCODING 70
SWIDTH 600 0
DWIDTH 15 0
BBX 12 18 2 0
BITMAP
FFF0
FFF0
FFF0
E000
E000
E000
E000
FFE0
FFE0
FFE0
E000
E000
E000
E000
E000
E000
E000
E000
ENDCHAR
STARTCHAR 0047
ENCODING 71
SWIDTH 760 0
DWIDTH 19 0
BBX 16 18 1 0
BITMAP
07F0
1FFC
3FFE
7C1E
780F
7006
E000
E000
E07F
E07F
E07F
E007
7007
7807
7C1F
3FFF
1FFC
07F0
ENDCHAR
STARTCHAR 0048
ENCODING 72
SWIDTH 720 0
DWIDTH 18 0
BBX 14 18 2 0
BITMAP
E01C
E01C
E01C
E01C
E01C
E01C
E01C
FFFC
FFFC
FFFC
E01C
E01C
E01C
E01C
E01C
E01C
E01C
E01C
ENDCHAR
STARTCHAR 0049
ENCODING 73
SWIDTH 280 0
DWIDTH 7 0
BBX 3 18 2 0
BITMAP
E0
E0
E0
E0
E0
E0
E0
E0
E0
E0
E0
E0
E0
E0
E0
E0
E0
E0
ENDCHAR
STARTCHAR 004A
ENCODING 74
SWIDTH 560 0
DWIDTH 14 0
BBX 12 18 0 0
BITMAP
0070
0070
0070
0070
0070
0070
0070
0070
0070
0070
0070
0070
E070
E070
F0F0
7FE0
3FC0
1F80
ENDCHAR
STARTCHAR 004B
ENCODING 75
SWIDTH 720 0
DWIDTH 18 0
BBX 15 18 2 0
BITMAP
E01E
E03C
E078
E0F0
E1E0
E3C0
E780
EF80
FFC0
FDC0
F9E0
F0E0
E070
E078
E038
E01C
E01E
E00E
ENDCHAR
STARTCHAR 004C
ENCODING 76
SWIDTH 600 0
DWIDTH 15 0
BBX 12 18 2 0
BITMAP
E000
E000
E000
E000
E000
E000
E000
E000
E000
E000
E000
E000
E000
E000
E000
FFF0
FFF0
FFF0
ENDCHAR
STARTCHAR 004D
ENCODING 77
SWIDTH 840 0
DWIDTH 21 0
BBX 17 18 2 0
BITMAP
F80F80
F80F80
FC1F80
FC1F80
EC1B80
EE3B80
EE3B80
E63380
E63380
E77380
E77380
E36380
E36380
E3E380
E3E380
E1C380
E1C380
E1C380
ENDCHAR
STARTCHAR 004E
ENCODING 78
SWIDTH 720 0
DWIDTH 18 0
BBX 14 18 2 0
BITMAP
E01C
F01C
F81C
F81C
FC1C
FC1C
EE1C
EF1C
E71C
E39C
E39C
E1DC
E1FC
E0FC
E07C
E07C
E03C
E03C
ENDCHAR
STARTCHAR 004F
ENCODING 79
SWIDTH 760 0
DWIDTH 19 0
BBX 17 18 1 0
BITMAP
07F000
1FFC00
3FFE00
7C1F00
780F00
700700
E00380
E00380
E00380
E00380
E00380
E00380
700780
780F00
7C1F00
3FFE00
1FFC00
07F000
ENDCHAR
STARTCHAR 0050
ENCODING 80
SWIDTH 680 0
DWIDTH 17 0
BBX 14 18 2 0
BITMAP
FFE0
FFF0
FFF8
E03C
E01C
E01C
E01C
E03C
FFF8
FFF0
FFC0
E000
E000
E000
E000
E000
E000
E000
ENDCHAR
STARTCHAR 0051
ENCODING 81
SWIDTH 760 0
DWIDTH 19 0
BBX 18 19 1 -1
BITMAP
07F000
1FFC00
3FFE00
7C1F00
780F00
F00780
E00380
E00380
E00380
E00380
E00380
E00380
F04700
78FF00
7C7E00
3FFF00
1FFFC0
07F780
000180
ENDCHAR
STARTCHAR 0052
ENCODING 82
SWIDTH 720 0
DWIDTH 18 0
BBX 15 18 2 0
BITMAP
FFE0
FFF8
FFF8
E03C
E01C
E01C
E03C
FFF8
FFF0
FFC0
E1E0
E0E0
E0F0
E078
E078
E03C
E01C
E01E
ENDCHAR
STARTCHAR 0053
ENCODING 83
SWIDTH 680 0
DWIDTH 17 0
BBX 15 18 1 0
BITMAP
07C0
1FF0
3FF8
783C
701C
7800
7E00
3FC0
1FF0
07FC
00FC
001E
E00E
F00E
781E
7FFC
3FF8
0FE0
ENDCHAR
STARTCHAR 0054
ENCODING 84
SWIDTH 600 0
DWIDTH 15 0
BBX 13 18 1 0
BITMAP
FFF8
FFF8
FFF8
0700
0700
0700
0700
0700
0700
0700
0700
0700
0700
0700
0700
0700
0700
0700
ENDCHAR
STARTCHAR 0055
ENCODING 85
SWIDTH 720 0
DWIDTH 18 0
BBX 14 18 2 0
BITMAP
E01C
E01C
E01C
E01C
E01C
E01C
E01C
E01C
E01C
E01C
E01C
E01C
E01C
F03C
7878
7FF8
3FF0
0FC0
ENDCHAR
STARTCHAR 0056
ENCODING 86
SWIDTH 680 0
DWIDTH 17 0
BBX 17 18 0 0
BITMAP
E00380
700700
700700
780F00
380E00
380E00
1C1C00
1C1C00
1E3C00
0E3800
0E3800
077000
077000
03F000
03E000
03E000
01C000
01C000
ENDCHAR
STARTCHAR 0057
ENCODING 87
SWIDTH 920 0
DWIDTH 23 0
BBX 23 18 0 0
BITMAP
E0380E
E0380E
707C1C
707C1C
707C1C
306C1C
38EE38
38EE38
38C638
18C630
1DC770
1DC770
1D8370
0D8360
0F83E0
0F83E0
0701C0
0701C0
ENDCHAR
STARTCHAR 0058
ENCODING 88
SWIDTH 680 0
DWIDTH 17 0
BBX 15 18 1 0
BITMAP
701C
783C
3C78
1C70
1EF0
0EE0
07C0
07C0
0380
07C0
0FE0
0EE0
1C70
3C78
3838
783C
F01E
E00E
ENDCHAR
STARTCHAR 0059
ENCODING 89
SWIDTH 680 0
DWIDTH 17 0
BBX 15 18 1 0
BITMAP
E00E
F01E
701C
3838
3C78
1C70
0EE0
0EE0
07C0
07C0
0380
0380
0380
0380
0380
0380
0380
0380
ENDCHAR
STARTCHAR 005A
ENCODING 90
SWIDTH 560 0
DWIDTH 14 0
BBX 14 18 0 0
BITMAP
7FFC
7FFC
7FFC
003C
0078
00F0
01E0
03C0
0380
0700
0F00
1E00
3C00
7800
F000
FFFC
FFFC
FFFC
ENDCHAR
STARTCHAR 005B
ENCODING 91
SWIDTH 320 0
DWIDTH 8 0
BBX 6 23 2 -5
BITMAP
FC
FC
FC
E0
E0
E0
E0
E0
E0
E0
E0
E0
E0
E0
E0
E0
E0
E0
E0
E0
FC
FC
FC
ENDCHAR
STARTCHAR 005C
ENCODING 92
SWIDTH 280 0
DWIDTH 7 0
BBX 7 18 0 0
BITMAP
E0
E0
70
70
70
70
70
38
38
38
38
1C
1C
1C
1C
1C
0E
0E
ENDCHAR
STARTCHAR 005D
ENCODING 93
SWIDTH 320 0
DWIDTH 8 0
BBX 6 23 0 -5
BITMAP
FC
FC
FC
1C
1C
1C
1C
1C
1C
1C
1C
1C
1C
1C
1C
1C
1C
1C
1C
1C
FC
FC
FC
ENDCHAR
STARTCHAR 005E
ENCODING 94
SWIDTH 600 0
DWIDTH 15 0
BBX 12 10 1 8
BITMAP
0F00
0F00
1F80
1F80
3F80
39C0
39C0
70E0
70E0
E070
ENDCHAR
STARTCHAR 005F
ENCODING 95
SWIDTH 560 0
DWIDTH 14 0
BBX 15 3 -1 -5
BITMAP
FFFE
FFFE
FFFE
ENDCHAR
STARTCHAR 0060
ENCODING 96
SWIDTH 320 0
DWIDTH 8 0
BBX 6 4 0 14
BITMAP
F0
78
38
1C
ENDCHAR
STARTCHAR 0061
ENCODING 97
SWIDTH 560 0
DWIDTH 14 0
BBX 12 14 1 0
BITMAP
1F80
7FC0
71E0
E0E0
00E0
03E0
1FE0
7CE0
F0E0
E0E0
E0E0
F1E0
7FE0
3E70
ENDCHAR
STARTCHAR 0062
ENCODING 98
SWIDTH 600 0
DWIDTH 15 0
BBX 12 18 2 0
BITMAP
E000
E000
E000
E000
E780
FFC0
FFE0
F0E0
E070
E070
E070
E070
E070
F070
F0E0
FFE0
EFC0
E780
ENDCHAR
STARTCHAR 0063
ENCODING 99
SWIDTH 560 0
DWIDTH 14 0
BBX 12 14 1 0
BITMAP
0F80
3FE0
7FE0
70F0
E060
E000
E000
E000
E000
E060
70F0
7FE0
3FE0
0F80
ENDCHAR
STARTCHAR 0064
ENCODING 100
SWIDTH 600 0
DWIDTH 15 0
BBX 12 18 1 0
BITMAP
0070
0070
0070
0070
1E70
3FF0
7FF0
70F0
E070
E070
E070
E070
E070
E0F0
70F0
7FF0
3FF0
1E70
ENDCHAR
STARTCHAR 0065
ENCODING 101
SWIDTH 560 0
DWIDTH 14 0
BBX 12 14 1 0
BITMAP
0F00
3FC0
7FE0
70E0
E070
E070
FFF0
FFF0
E000
E000
7060
7FF0
3FE0
0F80
ENDCHAR
STARTCHAR 0066
ENCODING 102
SWIDTH 320 0
DWIDTH 8 0
BBX 9 18 0 0
BITMAP
0F80
1F80
3800
3800
3800
FF00
FF00
3800
3800
3800
3800
3800
3800
3800
3800
3800
3800
3800
ENDCHAR
STARTCHAR 0067
ENCODING 103
SWIDTH 600 0
DWIDTH 15 0
BBX 12 19 1 -5
BITMAP
1E70
3F70
7FF0
70F0
E0F0
E070
E070
E070
E070
E0F0
71F0
7FF0
3F70
1E70
0070
C0F0
FFE0
7FE0
3F80
ENDCHAR
STARTCHAR 0068
ENCODING 104
SWIDTH 600 0
DWIDTH 15 0
BBX 11 18 2 0
BITMAP
E000
E000
E000
E000
E780
EFC0
FFE0
F1E0
E0E0
E0E0
E0E0
E0E0
E0E0
E0E0
E0E0
E0E0
E0E0
E0E0
ENDCHAR
STARTCHAR 0069
ENCODING 105
SWIDTH 280 0
DWIDTH 7 0
BBX 3 18 2 0
BITMAP
E0
E0
00
00
E0
E0
E0
E0
E0
E0
E0
E0
E0
E0
E0
E0
E0
E0
ENDCHAR
STARTCHAR 006A
ENCODING 106
SWIDTH 280 0
DWIDTH 7 0
BBX 6 23 -1 -5
BITMAP
1C
1C
00
00
1C
1C
1C
1C
1C
1C
1C
1C
1C
1C
1C
1C
1C
1C
1C
1C
FC
F8
F0
ENDCHAR
STARTCHAR 006B
ENCODING 107
SWIDTH 560 0
DWIDTH 14 0
BBX 12 18 2 0
BITMAP
E000
E000
E000
E000
E1E0
E3C0
E380
E700
EE00
FE00
FF00
FF00
F780
E3C0
E3C0
E1E0
E0E0
E0F0
ENDCHAR
STARTCHAR 006C
ENCODING 108
SWIDTH 280 0
DWIDTH 7 0
BBX 3 18 2 0
BITMAP
E0
E0
E0
E0
E0
E0
E0
E0
E0
E0
E0
E0
E0
E0
E0
E0
E0
E0
ENDCHAR
STARTCHAR 006D
ENCODING 109
SWIDTH 840 0
DWIDTH 21 0
BBX 17 14 2 0
BITMAP
EF1E00
FFBF00
FFFF80
F3E780
E1C380
E1C380
E1C380
E1C380
E1C380
E1C380
E1C380
E1C380
E1C380
E1C380
ENDCHAR
STARTCHAR 006E
ENCODING 110
SWIDTH 600 0
DWIDTH 15 0
BBX 11 14 2 0
BITMAP
E780
FFC0
FFE0
F1E0
E0E0
E0E0
E0E0
E0E0
E0E0
E0E0
E0E0
E0E0
E0E0
E0E0
ENDCHAR
STARTCHAR 006F
ENCODING 111
SWIDTH 600 0
DWIDTH 15 0
BBX 13 14 1 0
BITMAP
0F80
3FE0
7FF0
78F0
F078
E038
E038
E038
E038
F078
78F0
7FF0
3FE0
0F80
ENDCHAR
STARTCHAR 0070
ENCODING 112
SWIDTH 600 0
DWIDTH 15 0
BBX 12 19 2 -5
BITMAP
E780
FFC0
FFE0
F0E0
E0F0
E070
E070
E070
E070
F070
F0E0
FFE0
FFC0
E780
E000
E000
E000
E000
E000
ENDCHAR
STARTCHAR 0071
ENCODING 113
SWIDTH 600 0
DWIDTH 15 0
BBX 12 19 1 -5
BITMAP
1F70
3FF0
7FF0
70F0
F070
E070
E070
E070
E070
E0F0
71F0
7FF0
3FF0
1E70
0070
0070
0070
0070
0070
ENDCHAR
STARTCHAR 0072
ENCODING 114
SWIDTH 400 0
DWIDTH 10 0
BBX 8 14 2 0
BITMAP
EF
FF
FF
F0
E0
E0
E0
E0
E0
E0
E0
E0
E0
E0
ENDCHAR
STARTCHAR 0073
ENCODING 115
SWIDTH 560 0
DWIDTH 14 0
BBX 12 14 1 0
BITMAP
1F80
7FE0
F0F0
E060
F000
FE00
7FC0
3FE0
07F0
00F0
6070
F0F0
7FE0
1F80
ENDCHAR
STARTCHAR 0074
ENCODING 116
SWIDTH 320 0
DWIDTH 8 0
BBX 8 18 0 0
BITMAP
08
18
38
38
FF
FF
FF
38
38
38
38
38
38
38
38
3F
3F
1F
ENDCHAR
STARTCHAR 0075
ENCODING 117
SWIDTH 600 0
DWIDTH 15 0
BBX 11 14 2 0
BITMAP
E0E0
E0E0
E0E0
E0E0
E0E0
E0E0
E0E0
E0E0
E0E0
E0E0
F1E0
FFE0
7FE0
3CE0
ENDCHAR
STARTCHAR 0076
ENCODING 118
SWIDTH 600 0
DWIDTH 15 0
BBX 13 14 1 0
BITMAP
E038
E038
7070
7070
7070
38E0
38E0
1DC0
1DC0
1FC0
0F80
0F80
0700
0700
ENDCHAR
STARTCHAR 0077
ENCODING 119
SWIDTH 760 0
DWIDTH 19 0
BBX 19 14 0 0
BITMAP
E0E0E0
F0E1E0
70E1C0
71F1C0
71B1C0
31B180
3BB380
3BBB80
1B1B00
1B1B00
1F1F00
0E0E00
0E0E00
0E0E00
ENDCHAR
STARTCHAR 0078
ENCODING 120
SWIDTH 560 0
DWIDTH 14 0
BBX 12 14 1 0
BITMAP
E070
70F0
70E0
39C0
3FC0
1F80
0F00
0F00
1F80
3FC0
39C0
70E0
F0F0
E070
ENDCHAR
STARTCHAR 0079
ENCODING 121
SWIDTH 520 0
DWIDTH 13 0
BBX 13 19 0 -5
BITMAP
E038
E038
7070
7070
7070
38E0
38E0
3DE0
1DC0
1DC0
0F80
0F80
0F80
0700
0700
0F00
7E00
7E00
7800
ENDCHAR
STARTCHAR 007A
ENCODING 122
SWIDTH 520 0
DWIDTH 13 0
BBX 11 14 1 0
BITMAP
FFE0
FFE0
FFE0
01C0
0380
0700
0F00
1E00
1C00
3800
7000
FFE0
FFE0
FFE0
ENDCHAR
STARTCHAR 007B
ENCODING 123
SWIDTH 400 0
DWIDTH 10 0
BBX 8 23 1 -5
BITMAP
0F
1F
3F
38
38
38
38
38
38
78
F0
E0
F0
78
38
38
38
38
38
38
3F
1F
0F
ENDCHAR
STARTCHAR 007C
ENCODING 124
SWIDTH 280 0
DWIDTH 7 0
BBX 3 23 2 -5
BITMAP
E0
E0
E0
E0
E0
E0
E0
E0
E0
E0
E0
E0
E0
E0
E0
E0
E0
E0
E0
E0
E0
E0
E0
ENDCHAR
STARTCHAR 007D
ENCODING 125
SWIDTH 400 0
DWIDTH 10 0
BBX 8 23 1 -5
BITMAP
F0
F8
FC
1C
1C
1C
1C
1C
1C
1E
0F
07
0F
1E
1C
1C
1C
1C
1C
1C
FC
F8
F0
ENDCHAR
STARTCHAR 007E
ENCODING 126
SWIDTH 600 0
DWIDTH 15 0
BBX 13 5 1 6
BITMAP
3C00
FF18
FFF8
C7F8
01E0
ENDCHAR
STARTCHAR 00A0
ENCODING 160
SWIDTH 240 0
DWIDTH 6 0
BBX 1 1 0 0
BITMAP
00
ENDCHAR
STARTCHAR 00A1
ENCODING 161
SWIDTH 280 0
DWIDTH 7 0
BBX 3 19 2 -5
BITMAP
E0
E0
E0
00
00
40
40
40
E0
E0
E0
E0
E0
E0
E0
E0
E0
E0
E0
ENDCHAR
STARTCHAR 00A2
ENCODING 162
SWIDTH 560 0
DWIDTH 14 0
BBX 12 23 1 -5
BITMAP
0060
00E0
00C0
00C0
0FC0
3FC0
7FE0
71E0
E370
E300
E300
E600
E670
F670
76E0
7FE0
3FC0
1F80
1800
1800
1800
3000
3000
ENDCHAR
STARTCHAR 00A3
ENCODING 163
SWIDTH 560 0
DWIDTH 14 0
BBX 13 18 0 0
BITMAP
0F80
3FE0
7FE0
78F0
7070
7000
7000
FF00
FF00
FF00
3800
3800
3800
7000
FE10
FFF0
FFF8
41F0
ENDCHAR
STARTCHAR 00A4
ENCODING 164
SWIDTH 560 0
DWIDTH 14 0
BBX 13 13 0 2
BITMAP
2020
7770
FFF8
7FF0
38E0
7070
7070
7070
38E0
7FF0
FFF8
7770
2020
ENDCHAR
STARTCHAR 00A5
ENCODING 165
SWIDTH 560 0
DWIDTH 14 0
BBX 13 18 0 0
BITMAP
E038
7070
7070
38E0
38E0
1DC0
1DC0
0F80
7FF0
7FF0
0700
0700
7FF0
7FF0
0700
0700
0700
0700
ENDCHAR
STARTCHAR 00A6
ENCODING 166
SWIDTH 280 0
DWIDTH 7 0
BBX 3 23 2 -5
BITMAP
E0
E0
E0
E0
E0
E0
E0
E0
E0
00
00
00
00
E0
E0
E0
E0
E0
E0
E0
E0
E0
E0
ENDCHAR
STARTCHAR 00A7
ENCODING 167
SWIDTH 560 0
DWIDTH 14 0
BBX 12 23 1 -5
BITMAP
1F00
3FC0
7FC0
71E0
70E0
7C00
3E00
7F80
F7C0
E3E0
E0F0
F070
7870
7E70
3FE0
0FC0
07C0
01E0
70E0
78E0
3FE0
3FC0
0F80
ENDCHAR
STARTCHAR 00A8
ENCODING 168
SWIDTH 320 0
DWIDTH 8 0
BBX 8 3 0 15
BITMAP
E7
E7
E7
ENDCHAR
STARTCHAR 00A9
ENCODING 169
SWIDTH 720 0
DWIDTH 18 0
BBX 18 18 0 0
BITMAP
03F000
0FFC00
1C0E00
380700
71C380
63E180
C770C0
C630C0
C600C0
C600C0
C630C0
C770C0
63E180
71C380
380700
1C0E00
0FFC00
03F000
ENDCHAR
STARTCHAR 00AA
ENCODING 170
SWIDTH 360 0
DWIDTH 9 0
BBX 8 9 0 9
BITMAP
3E
7F
C3
1F
7F
E3
C7
FF
7B
ENDCHAR
STARTCHAR 00AB
ENCODING 171
SWIDTH 560 0
DWIDTH 14 0
BBX 12 11 1 1
BITMAP
1C70
38E0
38E0
71C0
71C0
E380
71C0
71C0
38E0
38E0
1C70
ENDCHAR
STARTCHAR 00AC
ENCODING 172
SWIDTH 600 0
DWIDTH 15 0
BBX 13 8 1 6
BITMAP
FFF8
FFF8
FFF8
0038
0038
0038
0038
0038
ENDCHAR
STARTCHAR 00AD
ENCODING 173
SWIDTH 320 0
DWIDTH 8 0
BBX 7 3 1 5
BITMAP
FE
FE
FE
ENDCHAR
STARTCHAR 00AE
ENCODING 174
SWIDTH 720 0
DWIDTH 18 0
BBX 18 18 0 0
BITMAP
03F000
0FFC00
1C0E00
380700
77E380
67F180
C630C0
C630C0
C7F0C0
C7E0C0
C670C0
C630C0
663980
761B80
380700
1C0E00
0FFC00
03F000
ENDCHAR
STARTCHAR 00AF
ENCODING 175
SWIDTH 560 0
DWIDTH 14 0
BBX 14 3 0 19
BITMAP
FFFC
FFFC
FFFC
ENDCHAR
STARTCHAR 00B0
ENCODING 176
SWIDTH 400 0
DWIDTH 10 0
BBX 8 8 1 10
BITMAP
3C
7E
E7
C3
C3
E7
7E
3C
ENDCHAR
STARTCHAR 00B1
ENCODING 177
SWIDTH 560 0
DWIDTH 14 0
BBX 13 17 1 0
BITMAP
0700
0700
0700
0700
0700
FFF8
FFF8
FFF8
0700
0700
0700
0700
0700
0000
FFF8
FFF8
FFF8
ENDCHAR
STARTCHAR 00B2
ENCODING 178
SWIDTH 320 0
DWIDTH 8 0
BBX 7 9 0 9
BITMAP
7C
FE
C6
06
0C
18
30
7E
FE
ENDCHAR
STARTCHAR 00B3
ENCODING 179
SWIDTH 320 0
DWIDTH 8 0
BBX 7 9 1 9
BITMAP
7C
FE
C6
1C
1C
06
C6
FE
78
ENDCHAR
STARTCHAR 00B4
ENCODING 180
SWIDTH 320 0
DWIDTH 8 0
BBX 6 4 2 14
BITMAP
3C
78
70
E0
ENDCHAR
STARTCHAR 00B5
ENCODING 181
SWIDTH 560 0
DWIDTH 14 0
BBX 11 19 1 -5
BITMAP
E0E0
E0E0
E0E0
E0E0
E0E0
E0E0
E0E0
E0E0
E0E0
E0E0
F1E0
FFE0
FFE0
EEE0
E000
E000
E000
E000
E000
ENDCHAR
STARTCHAR 00B6
ENCODING 182
SWIDTH 560 0
DWIDTH 14 0
BBX 15 23 0 -5
BITMAP
1FFE
7FFE
7FFE
FF1C
FF1C
FF1C
FF1C
7F1C
7F1C
1F1C
071C
071C
071C
071C
071C
071C
071C
071C
071C
071C
071C
071C
071C
ENDCHAR
STARTCHAR 00B7
ENCODING 183
SWIDTH 280 0
DWIDTH 7 0
BBX 3 3 2 7
BITMAP
E0
E0
E0
ENDCHAR
STARTCHAR 00B8
ENCODING 184
SWIDTH 360 0
DWIDTH 9 0
BBX 7 4 0 -4
BITMAP
7C
0E
0E
FC
ENDCHAR
STARTCHAR 00B9
ENCODING 185
SWIDTH 320 0
DWIDTH 8 0
BBX 5 9 1 9
BITMAP
18
78
F8
D8
18
18
18
18
18
ENDCHAR
STARTCHAR 00BA
ENCODING 186
SWIDTH 360 0
DWIDTH 9 0
BBX 8 9 1 9
BITMAP
3C
7E
E7
C3
C3
C3
E7
7E
3C
ENDCHAR
STARTCHAR 00BB
ENCODING 187
SWIDTH 560 0
DWIDTH 14 0
BBX 12 11 1 1
BITMAP
E380
71C0
71C0
38E0
38E0
1C70
38E0
38E0
71C0
71C0
E380
ENDCHAR
STARTCHAR 00BC
ENCODING 188
SWIDTH 840 0
DWIDTH 21 0
BBX 20 18 1 0
BITMAP
180300
780700
F80600
D80C00
181C00
181800
183000
183000
186000
00E060
00C0E0
0181E0
038360
030660
0607F0
0E07F0
0C0060
180060
ENDCHAR
STARTCHAR 00BD
ENCODING 189
SWIDTH 840 0
DWIDTH 21 0
BBX 19 18 1 0
BITMAP
180600
780E00
F80C00
D81C00
181800
183000
183000
186000
18E000
00C7C0
018FE0
018C60
030060
0700C0
060180
0E0300
0C07E0
180FE0
ENDCHAR
STARTCHAR 00BE
ENCODING 190
SWIDTH 840 0
DWIDTH 21 0
BBX 21 18 0 0
BITMAP
7C0180
FE0180
C60300
1C0700
1C0600
060C00
C61C00
FE1800
7C3000
007030
006070
00C0F0
01C1B0
018330
0303F8
0703F8
060030
0C0030
ENDCHAR
STARTCHAR 00BF
ENCODING 191
SWIDTH 600 0
DWIDTH 15 0
BBX 12 19 1 -5
BITMAP
0700
0700
0700
0000
0000
0700
0700
0F00
1E00
3C00
7800
7000
E000
E000
E070
F0F0
7FE0
3FC0
1F80
ENDCHAR
STARTCHAR 00C0
ENCODING 192
SWIDTH 680 0
DWIDTH 17 0
BBX 17 24 0 0
BITMAP
078000
03C000
01C000
00E000
000000
000000
03E000
03E000
03E000
077000
077000
0F7800
0E3800
0E3800
1E1C00
1C1C00
1C1C00
3FFE00
3FFE00
3FFE00
700700
700700
700700
E00380
ENDCHAR
STARTCHAR 00C1
ENCODING 193
SWIDTH 680 0
DWIDTH 17 0
BBX 17 24 0 0
BITMAP
007800
00F000
00E000
01C000
000000
000000
03E000
03E000
03E000
077000
077000
0F7800
0E3800
0E3800
1E1C00
1C1C00
1C1C00
3FFE00
3FFE00
3FFE00
700700
700700
700700
E00380
ENDCHAR
STARTCHAR 00C2
ENCODING 194
SWIDTH 680 0
DWIDTH 17 0
BBX 17 24 0 0
BITMAP
01C000
03E000
077000
0E3800
000000
000000
03E000
03E000
03E000
077000
077000
0F7800
0E3800
0E3800
1E1C00
1C1C00
1C1C00
3FFE00
3FFE00
3FFE00
700700
700700
700700
E00380
ENDCHAR
STARTCHAR 00C3
ENCODING 195
SWIDTH 680 0
DWIDTH 17 0
BBX 17 23 0 0
BITMAP
039800
07F800
067000
000000
000000
03E000
03E000
03E000
077000
077000
0F7800
0E3800
0E3800
1E1C00
1C1C00
1C1C00
3FFE00
3FFE00
3FFE00
700700
700700
700700
E00380
ENDCHAR
STARTCHAR 00C4
ENCODING 196
SWIDTH 680 0
DWIDTH 17 0
BBX 17 23 0 0
BITMAP
073800
073800
073800
000000
000000
03E000
03E000
03E000
077000
077000
0F7800
0E3800
0E3800
1E1C00
1C1C00
1C1C00
3FFE00
3FFE00
3FFE00
700700
700700
700700
E00380
ENDCHAR
STARTCHAR 00C5
ENCODING 197
SWIDTH 680 0
DWIDTH 17 0
BBX 17 21 0 0
BITMAP
00C000
012000
012000
03E000
03E000
03E000
077000
077000
0F7800
0E3800
0E3800
1E1C00
1C1C00
1C1C00
3FFE00
3FFE00
3FFE00
700700
700700
700700
E00380
ENDCHAR
STARTCHAR 00C6
ENCODING 198
SWIDTH 1000 0
DWIDTH 25 0
BBX 25 18 -1 0
BITMAP
007FFF80
00FFFF80
00FFFF80
01EE0000
01CE0000
03CE0000
038E0000
078FFF00
070FFF00
0F0FFF00
0E0E0000
1FFE0000
1FFE0000
3FFE0000
380E0000
780FFF80
700FFF80
F00FFF80
ENDCHAR
STARTCHAR 00C7
ENCODING 199
SWIDTH 720 0
DWIDTH 18 0
BBX 16 22 1 -4
BITMAP
03F0
1FFC
3FFE
7C1E
700F
7006
E000
E000
E000
E000
E000
E006
F00F
700F
7C1E
3FFC
1FF8
07E0
03E0
0070
0070
07E0
ENDCHAR
STARTCHAR 00C8
ENCODING 200
SWIDTH 680 0
DWIDTH 17 0
BBX 14 24 2 0
BITMAP
0F00
0780
0380
01C0
0000
0000
FFFC
FFFC
FFFC
E000
E000
E000
E000
FFF8
FFF8
FFF8
E000
E000
E000
E000
E000
FFFC
FFFC
FFFC
ENDCHAR
STARTCHAR 00C9
ENCODING 201
SWIDTH 680 0
DWIDTH 17 0
BBX 14 24 2 0
BITMAP
01E0
03C0
0380
0700
0000
0000
FFFC
FFFC
FFFC
E000
E000
E000
E000
FFF8
FFF8
FFF8
E000
E000
E000
E000
E000
FFFC
FFFC
FFFC
ENDCHAR
STARTCHAR 00CA
ENCODING 202
SWIDTH 680 0
DWIDTH 17 0
BBX 14 24 2 0
BITMAP
0380
07C0
0EE0
1C70
0000
0000
FFFC
FFFC
FFFC
E000
E000
E000
E000
FFF8
FFF8
FFF8
E000
E000
E000
E000
E000
FFFC
FFFC
FFFC
ENDCHAR
STARTCHAR 00CB
ENCODING 203
SWIDTH 680 0
DWIDTH 17 0
BBX 14 23 2 0
BITMAP
1CE0
1CE0
1CE0
0000
0000
FFFC
FFFC
FFFC
E000
E000
E000
E000
FFF8
FFF8
FFF8
E000
E000
E000
E000
E000
FFFC
FFFC
FFFC
ENDCHAR
STARTCHAR 00CC
ENCODING 204
SWIDTH 280 0
DWIDTH 7 0
BBX 6 24 0 0
BITMAP
F0
78
38
1C
00
00
38
38
38
38
38
38
38
38
38
38
38
38
38
38
38
38
38
38
ENDCHAR
STARTCHAR 00CD
ENCODING 205
SWIDTH 280 0
DWIDTH 7 0
BBX 6 24 1 0
BITMAP
3C
78
70
E0
00
00
70
70
70
70
70
70
70
70
70
70
70
70
70
70
70
70
70
70
ENDCHAR
STARTCHAR 00CE
ENCODING 206
SWIDTH 280 0
DWIDTH 7 0
BBX 9 24 -1 0
BITMAP
1C00
3E00
7700
E380
0000
0000
1C00
1C00
1C00
1C00
1C00
1C00
1C00
1C00
1C00
1C00
1C00
1C00
1C00
1C00
1C00
1C00
1C00
1C00
ENDCHAR
STARTCHAR 00CF
ENCODING 207
SWIDTH 280 0
DWIDTH 7 0
BBX 8 23 0 0
BITMAP
E7
E7
E7
00
00
38
38
38
38
38
38
38
38
38
38
38
38
38
38
38
38
38
38
ENDCHAR
STARTCHAR 00D0
ENCODING 208
SWIDTH 720 0
DWIDTH 18 0
BBX 17 18 0 0
BITMAP
3FF000
3FFC00
3FFE00
381F00
380700
380780
380380
380380
FF8380
FF8380
380380
380380
380780
380700
380F00
3FFE00
3FFC00
3FF000
ENDCHAR
STARTCHAR 00D1
ENCODING 209
SWIDTH 720 0
DWIDTH 18 0
BBX 14 23 2 0
BITMAP
0E60
1FE0
19C0
0000
0000
E01C
F01C
F81C
F81C
FC1C
FC1C
EE1C
EF1C
E71C
E39C
E39C
E1DC
E1FC
E0FC
E07C
E07C
E03C
E03C
ENDCHAR
STARTCHAR 00D2
ENCODING 210
SWIDTH 760 0
DWIDTH 19 0
BBX 17 24 1 0
BITMAP
078000
03C000
01C000
00E000
000000
000000
07F000
1FFC00
3FFE00
7C1F00
780F00
700700
E00380
E00380
E00380
E00380
E00380
E00380
700780
780F00
7C1F00
3FFE00
1FFC00
07F000
ENDCHAR
STARTCHAR 00D3
ENCODING 211
SWIDTH 760 0
DWIDTH 19 0
BBX 17 24 1 0
BITMAP
00F000
01E000
01C000
038000
000000
000000
07F000
1FFC00
3FFE00
7C1F00
780F00
700700
E00380
E00380
E00380
E00380
E00380
E00380
700780
780F00
7C1F00
3FFE00
1FFC00
07F000
ENDCHAR
STARTCHAR 00D4
ENCODING 212
SWIDTH 760 0
DWIDTH 19 0
BBX 17 24 1 0
BITMAP
01C000
03E000
077000
0E3800
000000
000000
07F000
1FFC00
3FFE00
7C1F00
780F00
700700
E00380
E00380
E00380
E00380
E00380
E00380
700780
780F00
7C1F00
3FFE00
1FFC00
07F000
ENDCHAR
STARTCHAR 00D5
ENCODING 213
SWIDTH 760 0
DWIDTH 19 0
BBX 17 23 1 0
BITMAP
039800
07F800
067000
000000
000000
07F000
1FFC00
3FFE00
7C1F00
780F00
700700
E00380
E00380
E00380
E00380
E00380
E00380
700780
780F00
7C1F00
3FFE00
1FFC00
07F000
ENDCHAR
STARTCHAR 00D6
ENCODING 214
SWIDTH 760 0
DWIDTH 19 0
BBX 17 23 1 0
BITMAP
073800
073800
073800
000000
000000
07F000
1FFC00
3FFE00
7C1F00
780F00
700700
E00380
E00380
E00380
E00380
E00380
E00380
700780
780F00
7C1F00
3FFE00
1FFC00
07F000
ENDCHAR
STARTCHAR 00D7
ENCODING 215
SWIDTH 600 0
DWIDTH 15 0
BBX 10 11 2 3
BITMAP
4080
E1C0
F3C0
7F80
3F00
1E00
3F00
7F80
F3C0
E1C0
4080
ENDCHAR
STARTCHAR 00D8
ENCODING 216
SWIDTH 760 0
DWIDTH 19 0
BBX 19 20 0 -1
BITMAP
000080
03F8E0
0FFFC0
1FFF80
3E0F80
3C0F80
781FC0
7039C0
7071C0
70E1C0
70E1C0
71C1C0
7381C0
7F0380
3E0780
3E0F80
3FFF00
7FFE00
E3F800
200000
ENDCHAR
STARTCHAR 00D9
ENCODING 217
SWIDTH 720 0
DWIDTH 18 0
BBX 14 24 2 0
BITMAP
0F00
0780
0380
01C0
0000
0000
E01C
E01C
E01C
E01C
E01C
E01C
E01C
E01C
E01C
E01C
E01C
E01C
E01C
F03C
7878
7FF8
3FF0
0FC0
ENDCHAR
STARTCHAR 00DA
ENCODING 218
SWIDTH 720 0
DWIDTH 18 0
BBX 14 24 2 0
BITMAP
01E0
03C0
0380
0700
0000
0000
E01C
E01C
E01C
E01C
E01C
E01C
E01C
E01C
E01C
E01C
E01C
E01C
E01C
F03C
7878
7FF8
3FF0
0FC0
ENDCHAR
STARTCHAR 00DB
ENCODING 219
SWIDTH 720 0
DWIDTH 18 0
BBX 14 24 2 0
BITMAP
0380
07C0
0EE0
1C70
0000
0000
E01C
E01C
E01C
E01C
E01C
E01C
E01C
E01C
E01C
E01C
E01C
E01C
E01C
F03C
7878
7FF8
3FF0
0FC0
ENDCHAR
STARTCHAR 00DC
ENCODING 220
SWIDTH 720 0
DWIDTH 18 0
BBX 14 23 2 0
BITMAP
1CE0
1CE0
1CE0
0000
0000
E01C
E01C
E01C
E01C
E01C
E01C
E01C
E01C
E01C
E01C
E01C
E01C
E01C
F03C
7878
7FF8
3FF0
0FC0
ENDCHAR
STARTCHAR 00DD
ENCODING 221
SWIDTH 680 0
DWIDTH 17 0
BBX 15 24 1 0
BITMAP
00F0
01E0
01C0
0380
0000
0000
E00E
F01E
701C
3838
3C78
1C70
0EE0
0EE0
07C0
07C0
0380
0380
0380
0380
0380
0380
0380
0380
ENDCHAR
STARTCHAR 00DE
ENCODING 222
SWIDTH 680 0
DWIDTH 17 0
BBX 14 18 2 0
BITMAP
E000
E000
E000
FFC0
FFF0
FFF8
E03C
E01C
E01C
E01C
E01C
E03C
FFF8
FFF0
FFC0
E000
E000
E000
ENDCHAR
STARTCHAR 00DF
ENCODING 223
SWIDTH 600 0
DWIDTH 15 0
BBX 12 18 2 0
BITMAP
1F00
7F80
7FC0
F1C0
E1C0
E380
E380
E700
E700
E780
E3C0
E1E0
E0F0
E070
E670
EFF0
E7E0
E3C0
ENDCHAR
STARTCHAR 00E0
ENCODING 224
SWIDTH 560 0
DWIDTH 14 0
BBX 12 20 1 0
BITMAP
3C00
1E00
0E00
0700
0000
0000
1F80
7FC0
71E0
E0E0
00E0
03E0
1FE0
7CE0
F0E0
E0E0
E0E0
F1E0
7FE0
3E70
ENDCHAR
STARTCHAR 00E1
ENCODING 225
SWIDTH 560 0
DWIDTH 14 0
BBX 12 20 1 0
BITMAP
03C0
0780
0700
0E00
0000
0000
1F80
7FC0
71E0
E0E0
00E0
03E0
1FE0
7CE0
F0E0
E0E0
E0E0
F1E0
7FE0
3E70
ENDCHAR
STARTCHAR 00E2
ENCODING 226
SWIDTH 560 0
DWIDTH 14 0
BBX 12 20 1 0
BITMAP
0E00
1F00
3B80
71C0
0000
0000
1F80
7FC0
71E0
E0E0
00E0
03E0
1FE0
7CE0
F0E0
E0E0
E0E0
F1E0
7FE0
3E70
ENDCHAR
STARTCHAR 00E3
ENCODING 227
SWIDTH 560 0
DWIDTH 14 0
BBX 12 19 1 0
BITMAP
1CC0
3FC0
3380
0000
0000
1F80
7FC0
71E0
E0E0
00E0
03E0
1FE0
7CE0
F0E0
E0E0
E0E0
F1E0
7FE0
3E70
ENDCHAR
STARTCHAR 00E4
ENCODING 228
SWIDTH 560 0
DWIDTH 14 0
BBX 12 19 1 0
BITMAP
39C0
39C0
39C0
0000
0000
1F80
7FC0
71E0
E0E0
00E0
03E0
1FE0
7CE0
F0E0
E0E0
E0E0
F1E0
7FE0
3E70
ENDCHAR
STARTCHAR 00E5
ENCODING 229
SWIDTH 560 0
DWIDTH 14 0
BBX 12 20 1 0
BITMAP
0600
0900
0900
0600
0000
0000
1F80
7FC0
71E0
E0E0
00E0
03E0
1FE0
7CE0
F0E0
E0E0
E0E0
F1E0
7FE0
3E70
ENDCHAR
STARTCHAR 00E6
ENCODING 230
SWIDTH 880 0
DWIDTH 22 0
BBX 20 14 1 0
BITMAP
1F8F00
7FFFC0
71FFE0
E0F0E0
00E070
03E070
3FFFF0
7CFFF0
F0E000
E0E000
E0F060
F1FFF0
7FBFE0
3E0F80
ENDCHAR
STARTCHAR 00E7
ENCODING 231
SWIDTH 560 0
DWIDTH 14 0
BBX 12 18 1 -4
BITMAP
0F80
3FE0
7FE0
70F0
E060
E000
E000
E000
E000
E060
70F0
7FE0
3FE0
1F80
1F00
0380
0380
3F00
ENDCHAR
STARTCHAR 00E8
ENCODING 232
SWIDTH 560 0
DWIDTH 14 0
BBX 12 20 1 0
BITMAP
1E00
0F00
0700
0380
0000
0000
0F00
3FC0
7FE0
70E0
E070
E070
FFF0
FFF0
E000
E000
7060
7FF0
3FE0
0F80
ENDCHAR
STARTCHAR 00E9
ENCODING 233
SWIDTH 560 0
DWIDTH 14 0
BBX 12 20 1 0
BITMAP
03C0
0780
0700
0E00
0000
0000
0F00
3FC0
7FE0
70E0
E070
E070
FFF0
FFF0
E000
E000
7060
7FF0
3FE0
0F80
ENDCHAR
STARTCHAR 00EA
ENCODING 234
SWIDTH 560 0
DWIDTH 14 0
BBX 12 20 1 0
BITMAP
0700
0F80
1DC0
38E0
0000
0000
0F00
3FC0
7FE0
70E0
E070
E070
FFF0
FFF0
E000
E000
7060
7FF0
3FE0
0F80
ENDCHAR
STARTCHAR 00EB
ENCODING 235
SWIDTH 560 0
DWIDTH 14 0
BBX 12 19 1 0
BITMAP
39C0
39C0
39C0
0000
0000
0F00
3FC0
7FE0
70E0
E070
E070
FFF0
FFF0
E000
E000
7060
7FF0
3FE0
0F80
ENDCHAR
STARTCHAR 00EC
ENCODING 236
SWIDTH 280 0
DWIDTH 7 0
BBX 6 20 0 0
BITMAP
F0
78
38
1C
00
00
38
38
38
38
38
38
38
38
38
38
38
38
38
38
ENDCHAR
STARTCHAR 00ED
ENCODING 237
SWIDTH 280 0
DWIDTH 7 0
BBX 6 20 1 0
BITMAP
3C
78
70
E0
00
00
70
70
70
70
70
70
70
70
70
70
70
70
70
70
ENDCHAR
STARTCHAR 00EE
ENCODING 238
SWIDTH 280 0
DWIDTH 7 0
BBX 9 20 -1 0
BITMAP
1C00
3E00
7700
E380
0000
0000
1C00
1C00
1C00
1C00
1C00
1C00
1C00
1C00
1C00
1C00
1C00
1C00
1C00
1C00
ENDCHAR
STARTCHAR 00EF
ENCODING 239
SWIDTH 280 0
DWIDTH 7 0
BBX 8 19 0 0
BITMAP
E7
E7
E7
00
00
38
38
38
38
38
38
38
38
38
38
38
38
38
38
ENDCHAR
STARTCHAR 00F0
ENCODING 240
SWIDTH 600 0
DWIDTH 15 0
BBX 13 18 1 0
BITMAP
1CC0
0780
1B80
01C0
1EE0
3FE0
7FF0
78F0
F078
E038
E038
E038
E038
F078
78F0
7FF0
3FE0
0F80
ENDCHAR
STARTCHAR 00F1
ENCODING 241
SWIDTH 600 0
DWIDTH 15 0
BBX 11 19 2 0
BITMAP
1CC0
3FC0
3380
0000
0000
E780
FFC0
FFE0
F1E0
E0E0
E0E0
E0E0
E0E0
E0E0
E0E0
E0E0
E0E0
E0E0
E0E0
ENDCHAR
STARTCHAR 00F2
ENCODING 242
SWIDTH 600 0
DWIDTH 15 0
BBX 13 20 1 0
BITMAP
1E00
0F00
0700
0380
0000
0000
0F80
3FE0
7FF0
78F0
F078
E038
E038
E038
E038
F078
78F0
7FF0
3FE0
0F80
ENDCHAR
STARTCHAR 00F3
ENCODING 243
SWIDTH 600 0
DWIDTH 15 0
BBX 13 20 1 0
BITMAP
01E0
03C0
0380
0700
0000
0000
0F80
3FE0
7FF0
78F0
F078
E038
E038
E038
E038
F078
78F0
7FF0
3FE0
0F80
ENDCHAR
STARTCHAR 00F4
ENCODING 244
SWIDTH 600 0
DWIDTH 15 0
BBX 13 20 1 0
BITMAP
0700
0F80
1DC0
38E0
0000
0000
0F80
3FE0
7FF0
78F0
F078
E038
E038
E038
E038
F078
78F0
7FF0
3FE0
0F80
ENDCHAR
STARTCHAR 00F5
ENCODING 245
SWIDTH 600 0
DWIDTH 15 0
BBX 13 19 1 0
BITMAP
0E60
1FE0
19C0
0000
0000
0F80
3FE0
7FF0
78F0
F078
E038
E038
E038
E038
F078
78F0
7FF0
3FE0
0F80
ENDCHAR
STARTCHAR 00F6
ENCODING 246
SWIDTH 600 0
DWIDTH 15 0
BBX 13 19 1 0
BITMAP
1CE0
1CE0
1CE0
0000
0000
0F80
3FE0
7FF0
78F0
F078
E038
E038
E038
E038
F078
78F0
7FF0
3FE0
0F80
ENDCHAR
STARTCHAR 00F7
ENCODING 247
SWIDTH 560 0
DWIDTH 14 0
BBX 13 13 0 2
BITMAP
0700
0700
0700
0000
0000
FFF8
FFF8
FFF8
0000
0000
0700
0700
0700
ENDCHAR
STARTCHAR 00F8
ENCODING 248
SWIDTH 600 0
DWIDTH 15 0
BBX 13 16 1 -1
BITMAP
0010
0F98
3FF0
7FE0
78F0
F0F0
E1B8
E338
E638
EC38
F878
78F0
7FF0
7FE0
CF80
4000
ENDCHAR
STARTCHAR 00F9
ENCODING 249
SWIDTH 600 0
DWIDTH 15 0
BBX 11 20 2 0
BITMAP
3C00
1E00
0E00
0700
0000
0000
E0E0
E0E0
E0E0
E0E0
E0E0
E0E0
E0E0
E0E0
E0E0
E0E0
F1E0
FFE0
7FE0
3CE0
ENDCHAR
STARTCHAR 00FA
ENCODING 250
SWIDTH 600 0
DWIDTH 15 0
BBX 11 20 2 0
BITMAP
03C0
0780
0700
0E00
0000
0000
E0E0
E0E0
E0E0
E0E0
E0E0
E0E0
E0E0
E0E0
E0E0
E0E0
F1E0
FFE0
7FE0
3CE0
ENDCHAR
STARTCHAR 00FB
ENCODING 251
SWIDTH 600 0
DWIDTH 15 0
BBX 11 20 2 0
BITMAP
0E00
1F00
3B80
71C0
0000
0000
E0E0
E0E0
E0E0
E0E0
E0E0
E0E0
E0E0
E0E0
E0E0
E0E0
F1E0
FFE0
7FE0
3CE0
ENDCHAR
STARTCHAR 00FC
ENCODING 252
SWIDTH 600 0
DWIDTH 15 0
BBX 11 19 2 0
BITMAP
39C0
39C0
39C0
0000
0000
E0E0
E0E0
E0E0
E0E0
E0E0
E0E0
E0E0
E0E0
E0E0
E0E0
F1E0
FFE0
7FE0
3CE0
ENDCHAR
STARTCHAR 00FD
ENCODING 253
SWIDTH 520 0
DWIDTH 13 0
BBX 13 25 0 -5
BITMAP
01E0
03C0
0380
0700
0000
0000
E038
E038
7070
7070
7070
38E0
38E0
3DE0
1DC0
1DC0
0F80
0F80
0F80
0700
0700
0F00
7E00
7E00
7800
ENDCHAR
STARTCHAR 00FE
ENCODING 254
SWIDTH 600 0
DWIDTH 15 0
BBX 12 23 2 -5
BITMAP
E000
E000
E000
E000
E780
FFC0
FFE0
F0E0
E070
E070
E070
E070
E070
F070
F0E0
FFE0
FFC0
E780
E000
E000
E000
E000
E000
ENDCHAR
STARTCHAR 00FF
ENCODING 255
SWIDTH 520 0
DWIDTH 13 0
BBX 13 24 0 -5
BITMAP
1CE0
1CE0
1CE0
0000
0000
E038
E038
7070
7070
7070
38E0
38E0
3DE0
1DC0
1DC0
0F80
0F80
0F80
0700
0700
0F00
7E00
7E00
7800
ENDCHAR
STARTCHAR 0100
ENCODING 256
SWIDTH 680 0
DWIDTH 17 0
BBX 17 23 0 0
BITMAP
07F000
07F000
07F000
000000
000000
03E000
03E000
03E000
077000
077000
0F7800
0E3800
0E3800
1E1C00
1C1C00
1C1C00
3FFE00
3FFE00
3FFE00
700700
700700
700700
E00380
ENDCHAR
STARTCHAR 0101
ENCODING 257
SWIDTH 560 0
DWIDTH 14 0
BBX 12 19 1 0
BITMAP
3F80
3F80
3F80
0000
0000
1F80
7FC0
71E0
E0E0
00E0
03E0
1FE0
7CE0
F0E0
E0E0
E0E0
F1E0
7FE0
3E70
ENDCHAR
STARTCHAR 0102
ENCODING 258
SWIDTH 680 0
DWIDTH 17 0
BBX 17 24 0 0
BITMAP
061800
073800
03F000
01E000
000000
000000
03E000
03E000
03E000
077000
077000
0F7800
0E3800
0E3800
1E1C00
1C1C00
1C1C00
3FFE00
3FFE00
3FFE00
700700
700700
700700
E00380
ENDCHAR
STARTCHAR 0103
ENCODING 259
SWIDTH 560 0
DWIDTH 14 0
BBX 12 20 1 0
BITMAP
30C0
39C0
1F80
0F00
0000
0000
1F80
7FC0
71E0
E0E0
00E0
03E0
1FE0
7CE0
F0E0
E0E0
E0E0
F1E0
7FE0
3E70
ENDCHAR
STARTCHAR 0104
ENCODING 260
SWIDTH 680 0
DWIDTH 17 0
BBX 20 23 0 -5
BITMAP
03E000
03E000
03E000
077000
077000
0F7800
0E3800
0E3800
1E1C00
1C1C00
1C1C00
3FFE00
3FFE00
3FFE00
700700
700700
700700
E00380
000380
000380
000380
0003F0
0001F0
ENDCHAR
STARTCHAR 0105
ENCODING 261
SWIDTH 560 0
DWIDTH 14 0
BBX 14 19 1 -5
BITMAP
1F80
7FC0
71E0
E0E0
00E0
03E0
1FE0
7CE0
F0E0
E0E0
E0E0
F1E0
7FE0
3E70
00E0
00E0
00E0
00FC
007C
ENDCHAR
STARTCHAR 0106
ENCODING 262
SWIDTH 720 0
DWIDTH 18 0
BBX 16 24 1 0
BITMAP
00F0
01E0
01C0
0380
0000
0000
03F0
1FFC
3FFE
7C1E
700F
7006
E000
E000
E000
E000
E000
E006
F00F
700F
7C1E
3FFC
1FF8
07E0
ENDCHAR
STARTCHAR 0107
ENCODING 263
SWIDTH 560 0
DWIDTH 14 0
BBX 12 20 1 0
BITMAP
03C0
0780
0700
0E00
0000
0000
0F80
3FE0
7FE0
70F0
E060
E000
E000
E000
E000
E060
70F0
7FE0
3FE0
0F80
ENDCHAR
STARTCHAR 0108
ENCODING 264
SWIDTH 720 0
DWIDTH 18 0
BBX 16 24 1 0
BITMAP
01C0
03E0
0770
0E38
0000
0000
03F0
1FFC
3FFE
7C1E
700F
7006
E000
E000
E000
E000
E000
E006
F00F
700F
7C1E
3FFC
1FF8
07E0
ENDCHAR
STARTCHAR 0109
ENCODING 265
SWIDTH 560 0
DWIDTH 14 0
BBX 12 20 1 0
BITMAP
0700
0F80
1DC0
38E0
0000
0000
0F80
3FE0
7FE0
70F0
E060
E000
E000
E000
E000
E060
70F0
7FE0
3FE0
0F80
ENDCHAR
STARTCHAR 010A
ENCODING 266
SWIDTH 720 0
DWIDTH 18 0
BBX 16 23 1 0
BITMAP
01C0
01C0
01C0
0000
0000
03F0
1FFC
3FFE
7C1E
700F
7006
E000
E000
E000
E000
E000
E006
F00F
700F
7C1E
3FFC
1FF8
07E0
ENDCHAR
STARTCHAR 010B
ENCODING 267
SWIDTH 560 0
DWIDTH 14 0
BBX 12 19 1 0
BITMAP
0700
0700
0700
0000
0000
0F80
3FE0
7FE0
70F0
E060
E000
E000
E000
E000
E060
70F0
7FE0
3FE0
0F80
ENDCHAR
STARTCHAR 010C
ENCODING 268
SWIDTH 720 0
DWIDTH 18 0
BBX 16 24 1 0
BITMAP
0E38
0770
03E0
03E0
0000
0000
03F0
1FFC
3FFE
7C1E
700F
7006
E000
E000
E000
E000
E000
E006
F00F
700F
7C1E
3FFC
1FF8
07E0
ENDCHAR
STARTCHAR 010D
ENCODING 269
SWIDTH 560 0
DWIDTH 14 0
BBX 12 20 1 0
BITMAP
38E0
1DC0
0F80
0F80
0000
0000
0F80
3FE0
7FE0
70F0
E060
E000
E000
E000
E000
E060
70F0
7FE0
3FE0
0F80
ENDCHAR
STARTCHAR 010E
ENCODING 270
SWIDTH 720 0
DWIDTH 18 0
BBX 15 24 2 0
BITMAP
38E0
1DC0
0F80
0F80
0000
0000
FFC0
FFF0
FFF8
E07C
E01C
E01E
E00E
E00E
E00E
E00E
E00E
E00E
E01E
E01C
E03C
FFF8
FFF0
FFC0
ENDCHAR
STARTCHAR 010F
ENCODING 271
SWIDTH 720 0
DWIDTH 18 0
BBX 16 18 1 0
BITMAP
0077
0077
0077
0073
1E73
3FF6
7FF4
70F0
E070
E070
E070
E070
E070
E0F0
70F0
7FF0
3FF0
1E70
ENDCHAR
STARTCHAR 0110
ENCODING 272
SWIDTH 720 0
DWIDTH 18 0
BBX 17 18 0 0
BITMAP
3FF000
3FFC00
3FFE00
381F00
380700
380780
380380
380380
FF8380
FF8380
380380
380380
380780
380700
380F00
3FFE00
3FFC00
3FF000
ENDCHAR
STARTCHAR 0111
ENCODING 273
SWIDTH 600 0
DWIDTH 15 0
BBX 13 18 1 0
BITMAP
0070
07F8
07F8
0070
1E70
3FF0
7FF0
70F0
E070
E070
E070
E070
E070
E0F0
70F0
7FF0
3FF0
1E70
ENDCHAR
STARTCHAR 0112
ENCODING 274
SWIDTH 680 0
DWIDTH 17 0
BBX 14 23 2 0
BITMAP
1FC0
1FC0
1FC0
0000
0000
FFFC
FFFC
FFFC
E000
E000
E000
E000
FFF8
FFF8
FFF8
E000
E000
E000
E000
E000
FFFC
FFFC
FFFC
ENDCHAR
STARTCHAR 0113
ENCODING 275
SWIDTH 560 0
DWIDTH 14 0
BBX 12 19 1 0
BITMAP
1FC0
1FC0
1FC0
0000
0000
0F00
3FC0
7FE0
70E0
E070
E070
FFF0
FFF0
E000
E000
7060
7FF0
3FE0
0F80
ENDCHAR
STARTCHAR 0114
ENCODING 276
SWIDTH 680 0
DWIDTH 17 0
BBX 14 24 2 0
BITMAP
1860
1CE0
0FC0
0780
0000
0000
FFFC
FFFC
FFFC
E000
E000
E000
E000
FFF8
FFF8
FFF8
E000
E000
E000
E000
E000
FFFC
FFFC
FFFC
ENDCHAR
STARTCHAR 0115
ENCODING 277
SWIDTH 560 0
DWIDTH 14 0
BBX 12 20 1 0
BITMAP
30C0
39C0
1F80
0F00
0000
0000
0F00
3FC0
7FE0
70E0
E070
E070
FFF0
FFF0
E000
E000
7060
7FF0
3FE0
0F80
ENDCHAR
STARTCHAR 0116
ENCODING 278
SWIDTH 680 0
DWIDTH 17 0
BBX 14 23 2 0
BITMAP
0700
0700
0700
0000
0000
FFFC
FFFC
FFFC
E000
E000
E000
E000
FFF8
FFF8
FFF8
E000
E000
E000
E000
E000
FFFC
FFFC
FFFC
ENDCHAR
STARTCHAR 0117
ENCODING 279
SWIDTH 560 0
DWIDTH 14 0
BBX 12 19 1 0
BITMAP
0700
0700
0700
0000
0000
0F00
3FC0
7FE0
70E0
E070
E070
FFF0
FFF0
E000
E000
7060
7FF0
3FE0
0F80
ENDCHAR
STARTCHAR 0118
ENCODING 280
SWIDTH 680 0
DWIDTH 17 0
BBX 14 23 2 -5
BITMAP
FFFC
FFFC
FFFC
E000
E000
E000
E000
FFF8
FFF8
FFF8
E000
E000
E000
E000
E000
FFFC
FFFC
FFFC
00E0
00E0
00E0
00FC
007C
ENDCHAR
STARTCHAR 0119
ENCODING 281
SWIDTH 560 0
DWIDTH 14 0
BBX 12 19 1 -5
BITMAP
0F00
3FC0
7FE0
70E0
E070
E070
FFF0
FFF0
E000
E000
7060
7FF0
3FE0
0F80
0700
0700
0700
07E0
03E0
ENDCHAR
STARTCHAR 011A
ENCODING 282
SWIDTH 680 0
DWIDTH 17 0
BBX 14 24 2 0
BITMAP
1C70
0EE0
07C0
07C0
0000
0000
FFFC
FFFC
FFFC
E000
E000
E000
E000
FFF8
FFF8
FFF8
E000
E000
E000
E000
E000
FFFC
FFFC
FFFC
ENDCHAR
STARTCHAR 011B
ENCODING 283
SWIDTH 560 0
DWIDTH 14 0
BBX 12 20 1 0
BITMAP
38E0
1DC0
0F80
0F80
0000
0000
0F00
3FC0
7FE0
70E0
E070
E070
FFF0
FFF0
E000
E000
7060
7FF0
3FE0
0F80
ENDCHAR
STARTCHAR 011C
ENCODING 284
SWIDTH 760 0
DWIDTH 19 0
BBX 16 24 1 0
BITMAP
01C0
03E0
0770
0E38
0000
0000
07F0
1FFC
3FFE
7C1E
780F
7006
E000
E000
E07F
E07F
E07F
E007
7007
7807
7C1F
3FFF
1FFC
07F0
ENDCHAR
STARTCHAR 011D
ENCODING 285
SWIDTH 600 0
DWIDTH 15 0
BBX 12 25 1 -5
BITMAP
0700
0F80
1DC0
38E0
0000
0000
1E70
3F70
7FF0
70F0
E0F0
E070
E070
E070
E070
E0F0
71F0
7FF0
3F70
1E70
0070
C0F0
FFE0
7FE0
3F80
ENDCHAR
STARTCHAR 011E
ENCODING 286
SWIDTH 760 0
DWIDTH 19 0
BBX 16 24 1 0
BITMAP
0C30
0E70
07E0
03C0
0000
0000
07F0
1FFC
3FFE
7C1E
780F
7006
E000
E000
E07F
E07F
E07F
E007
7007
7807
7C1F
3FFF
1FFC
07F0
ENDCHAR
STARTCHAR 011F
ENCODING 287
SWIDTH 600 0
DWIDTH 15 0
BBX 12 25 1 -5
BITMAP
30C0
39C0
1F80
0F00
0000
0000
1E70
3F70
7FF0
70F0
E0F0
E070
E070
E070
E070
E0F0
71F0
7FF0
3F70
1E70
0070
C0F0
FFE0
7FE0
3F80
ENDCHAR
STARTCHAR 0120
ENCODING 288
SWIDTH 760 0
DWIDTH 19 0
BBX 16 23 1 0
BITMAP
01C0
01C0
01C0
0000
0000
07F0
1FFC
3FFE
7C1E
780F
7006
E000
E000
E07F
E07F
E07F
E007
7007
7807
7C1F
3FFF
1FFC
07F0
ENDCHAR
STARTCHAR 0121
ENCODING 289
SWIDTH 600 0
DWIDTH 15 0
BBX 12 24 1 -5
BITMAP
0700
0700
0700
0000
0000
1E70
3F70
7FF0
70F0
E0F0
E070
E070
E070
E070
E0F0
71F0
7FF0
3F70
1E70
0070
C0F0
FFE0
7FE0
3F80
ENDCHAR
STARTCHAR 0122
ENCODING 290
SWIDTH 760 0
DWIDTH 19 0
BBX 16 22 1 -4
BITMAP
07F0
1FFC
3FFE
7C1E
780F
7006
E000
E000
E07F
E07F
E07F
E007
7007
7807
7C1F
3FFF
1FFC
07F0
03C0
00E0
00E0
0F80
ENDCHAR
STARTCHAR 0123
ENCODING 291
SWIDTH 600 0
DWIDTH 15 0
BBX 12 27 1 -5
BITMAP
0200
0600
0C00
0C00
0E00
0E00
0000
0000
1E70
3F70
7FF0
70F0
E0F0
E070
E070
E070
E070
E0F0
71F0
7FF0
3F70
1E70
0070
C0F0
FFE0
7FE0
3F80
ENDCHAR
STARTCHAR 0124
ENCODING 292
SWIDTH 720 0
DWIDTH 18 0
BBX 14 24 2 0
BITMAP
0380
07C0
0EE0
1C70
0000
0000
E01C
E01C
E01C
E01C
E01C
E01C
E01C
FFFC
FFFC
FFFC
E01C
E01C
E01C
E01C
E01C
E01C
E01C
E01C
ENDCHAR
STARTCHAR 0125
ENCODING 293
SWIDTH 600 0
DWIDTH 15 0
BBX 11 24 2 0
BITMAP
0E00
1F00
3B80
71C0
0000
0000
E000
E000
E000
E000
E780
EFC0
FFE0
F1E0
E0E0
E0E0
E0E0
E0E0
E0E0
E0E0
E0E0
E0E0
E0E0
E0E0
ENDCHAR
STARTCHAR 0126
ENCODING 294
SWIDTH 720 0
DWIDTH 18 0
BBX 18 18 0 0
BITMAP
380700
380700
380700
FFFFC0
FFFFC0
380700
380700
3FFF00
3FFF00
3FFF00
380700
380700
380700
380700
380700
380700
380700
380700
ENDCHAR
STARTCHAR 0127
ENCODING 295
SWIDTH 600 0
DWIDTH 15 0
BBX 12 18 1 0
BITMAP
7000
FF00
FF00
7000
73C0
77E0
7FF0
78F0
7070
7070
7070
7070
7070
7070
7070
7070
7070
7070
ENDCHAR
STARTCHAR 0128
ENCODING 296
SWIDTH 280 0
DWIDTH 7 0
BBX 8 23 0 0
BITMAP
73
FF
CE
00
00
38
38
38
38
38
38
38
38
38
38
38
38
38
38
38
38
38
38
ENDCHAR
STARTCHAR 0129
ENCODING 297
SWIDTH 280 0
DWIDTH 7 0
BBX 8 19 0 0
BITMAP
73
FF
CE
00
00
38
38
38
38
38
38
38
38
38
38
38
38
38
38
ENDCHAR
STARTCHAR 012A
ENCODING 298
SWIDTH 280 0
DWIDTH 7 0
BBX 7 23 0 0
BITMAP
FE
FE
FE
00
00
38
38
38
38
38
38
38
38
38
38
38
38
38
38
38
38
38
38
ENDCHAR
STARTCHAR 012B
ENCODING 299
SWIDTH 280 0
DWIDTH 7 0
BBX 7 19 0 0
BITMAP
FE
FE
FE
00
00
38
38
38
38
38
38
38
38
38
38
38
38
38
38
ENDCHAR
STARTCHAR 012C
ENCODING 300
SWIDTH 280 0
DWIDTH 7 0
BBX 8 24 0 0
BITMAP
C3
E7
7E
3C
00
00
38
38
38
38
38
38
38
38
38
38
38
38
38
38
38
38
38
38
ENDCHAR
STARTCHAR 012D
ENCODING 301
SWIDTH 280 0
DWIDTH 7 0
BBX 8 20 0 0
BITMAP
C3
E7
7E
3C
00
00
38
38
38
38
38
38
38
38
38
38
38
38
38
38
ENDCHAR
STARTCHAR 012E
ENCODING 302
SWIDTH 280 0
DWIDTH 7 0
BBX 6 23 1 -5
BITMAP
70
70
70
70
70
70
70
70
70
70
70
70
70
70
70
70
70
70
60
E0
E0
FC
7C
ENDCHAR
STARTCHAR 012F
ENCODING 303
SWIDTH 280 0
DWIDTH 7 0
BBX 6 23 1 -5
BITMAP
70
70
00
00
70
70
70
70
70
70
70
70
70
70
70
70
70
70
60
E0
E0
FC
7C
ENDCHAR
STARTCHAR 0130
ENCODING 304
SWIDTH 280 0
DWIDTH 7 0
BBX 3 23 2 0
BITMAP
E0
E0
E0
00
00
E0
E0
E0
E0
E0
E0
E0
E0
E0
E0
E0
E0
E0
E0
E0
E0
E0
E0
ENDCHAR
STARTCHAR 0131
ENCODING 305
SWIDTH 280 0
DWIDTH 7 0
BBX 3 14 2 0
BITMAP
E0
E0
E0
E0
E0
E0
E0
E0
E0
E0
E0
E0
E0
E0
ENDCHAR
STARTCHAR 0132
ENCODING 306
SWIDTH 800 0
DWIDTH 20 0
BBX 17 18 2 0
BITMAP
E00380
E00380
E00380
E00380
E00380
E00380
E00380
E00380
E00380
E00380
E00380
E00380
E70380
E70380
E78780
E3FF00
E1FE00
E0FC00
ENDCHAR
STARTCHAR 0133
ENCODING 307
SWIDTH 560 0
DWIDTH 14 0
BBX 10 23 2 -5
BITMAP
E1C0
E1C0
0000
0000
E1C0
E1C0
E1C0
E1C0
E1C0
E1C0
E1C0
E1C0
E1C0
E1C0
E1C0
E1C0
E1C0
E1C0
01C0
01C0
0FC0
0F80
0F00
ENDCHAR
STARTCHAR 0134
ENCODING 308
SWIDTH 560 0
DWIDTH 14 0
BBX 15 24 0 0
BITMAP
0070
00F8
01DC
038E
0000
0000
0070
0070
0070
0070
0070
0070
0070
0070
0070
0070
0070
0070
E070
E070
F0F0
7FE0
3FC0
1F80
ENDCHAR
STARTCHAR 0135
ENCODING 309
SWIDTH 280 0
DWIDTH 7 0
BBX 9 25 -1 -5
BITMAP
1C00
3E00
7700
E380
0000
0000
1C00
1C00
1C00
1C00
1C00
1C00
1C00
1C00
1C00
1C00
1C00
1C00
1C00
1C00
1C00
1C00
FC00
F800
F000
ENDCHAR
STARTCHAR 0136
ENCODING 310
SWIDTH 720 0
DWIDTH 18 0
BBX 15 22 2 -4
BITMAP
E01E
E03C
E078
E0F0
E1E0
E3C0
E780
EF80
FFC0
FDC0
F9E0
F0E0
E070
E078
E038
E01C
E01E
E00E
03C0
00E0
00E0
0F80
ENDCHAR
STARTCHAR 0137
ENCODING 311
SWIDTH 560 0
DWIDTH 14 0
BBX 12 22 2 -4
BITMAP
E000
E000
E000
E000
E1E0
E3C0
E380
E700
EE00
FE00
FF00
FF00
F780
E3C0
E3C0
E1E0
E0E0
E0F0
0F00
0380
0380
3E00
ENDCHAR
STARTCHAR 0138
ENCODING 312
SWIDTH 560 0
DWIDTH 14 0
BBX 12 14 2 0
BITMAP
E1E0
E3C0
E780
E700
EE00
FE00
FF00
FF00
F780
E380
E3C0
E1C0
E0E0
E0F0
ENDCHAR
STARTCHAR 0139
ENCODING 313
SWIDTH 600 0
DWIDTH 15 0
BBX 12 24 2 0
BITMAP
0780
0F00
0E00
1C00
0000
0000
E000
E000
E000
E000
E000
E000
E000
E000
E000
E000
E000
E000
E000
E000
E000
FFF0
FFF0
FFF0
ENDCHAR
STARTCHAR 013A
ENCODING 314
SWIDTH 280 0
DWIDTH 7 0
BBX 6 24 1 0
BITMAP
3C
78
70
E0
00
00
70
70
70
70
70
70
70
70
70
70
70
70
70
70
70
70
70
70
ENDCHAR
STARTCHAR 013B
ENCODING 315
SWIDTH 600 0
DWIDTH 15 0
BBX 12 22 2 -4
BITMAP
E000
E000
E000
E000
E000
E000
E000
E000
E000
E000
E000
E000
E000
E000
E000
FFF0
FFF0
FFF0
0F00
0380
0380
3E00
ENDCHAR
STARTCHAR 013C
ENCODING 316
SWIDTH 280 0
DWIDTH 7 0
BBX 7 22 0 -4
BITMAP
38
38
38
38
38
38
38
38
38
38
38
38
38
38
38
38
38
38
3C
0E
0E
F8
ENDCHAR
STARTCHAR 013D
ENCODING 317
SWIDTH 600 0
DWIDTH 15 0
BBX 12 18 2 0
BITMAP
E0E0
E0E0
E0E0
E060
E060
E0C0
E080
E000
E000
E000
E000
E000
E000
E000
E000
FFF0
FFF0
FFF0
ENDCHAR
STARTCHAR 013E
ENCODING 318
SWIDTH 400 0
DWIDTH 10 0
BBX 8 18 2 0
BITMAP
E7
E7
E7
E3
E3
E6
E4
E0
E0
E0
E0
E0
E0
E0
E0
E0
E0
E0
ENDCHAR
STARTCHAR 013F
ENCODING 319
SWIDTH 600 0
DWIDTH 15 0
BBX 12 18 2 0
BITMAP
E000
E000
E000
E000
E000
E000
E1C0
E1C0
E1C0
E000
E000
E000
E000
E000
E000
FFF0
FFF0
FFF0
ENDCHAR
STARTCHAR 0140
ENCODING 320
SWIDTH 480 0
DWIDTH 12 0
BBX 8 18 2 0
BITMAP
E0
E0
E0
E0
E0
E0
E0
E7
E7
E7
E0
E0
E0
E0
E0
E0
E0
E0
ENDCHAR
STARTCHAR 0141
ENCODING 321
SWIDTH 600 0
DWIDTH 15 0
BBX 14 18 0 0
BITMAP
3800
3800
3800
3880
3980
3B00
3E00
3C00
3800
7800
F800
B800
3800
3800
3800
3FFC
3FFC
3FFC
ENDCHAR
STARTCHAR 0142
ENCODING 322
SWIDTH 280 0
DWIDTH 7 0
BBX 7 18 0 0
BITMAP
38
38
38
38
38
3A
3E
3C
38
78
F8
B8
38
38
38
38
38
38
ENDCHAR
STARTCHAR 0143
ENCODING 323
SWIDTH 720 0
DWIDTH 18 0
BBX 14 24 2 0
BITMAP
01E0
03C0
0380
0700
0000
0000
E01C
F01C
F81C
F81C
FC1C
FC1C
EE1C
EF1C
E71C
E39C
E39C
E1DC
E1FC
E0FC
E07C
E07C
E03C
E03C
ENDCHAR
STARTCHAR 0144
ENCODING 324
SWIDTH 600 0
DWIDTH 15 0
BBX 11 20 2 0
BITMAP
03C0
0780
0700
0E00
0000
0000
E780
FFC0
FFE0
F1E0
E0E0
E0E0
E0E0
E0E0
E0E0
E0E0
E0E0
E0E0
E0E0
E0E0
ENDCHAR
STARTCHAR 0145
ENCODING 325
SWIDTH 720 0
DWIDTH 18 0
BBX 14 22 2 -4
BITMAP
E01C
F01C
F81C
F81C
FC1C
FC1C
EE1C
EF1C
E71C
E39C
E39C
E1DC
E1FC
E0FC
E07C
E07C
E03C
E03C
0780
01C0
01C0
1F00
ENDCHAR
STARTCHAR 0146
ENCODING 326
SWIDTH 600 0
DWIDTH 15 0
BBX 11 18 2 -4
BITMAP
E780
FFC0
FFE0
F1E0
E0E0
E0E0
E0E0
E0E0
E0E0
E0E0
E0E0
E0E0
E0E0
E0E0
1E00
0700
0700
7C00
ENDCHAR
STARTCHAR 0147
ENCODING 327
SWIDTH 720 0
DWIDTH 18 0
BBX 14 24 2 0
BITMAP
1C70
0EE0
07C0
07C0
0000
0000
E01C
F01C
F81C
F81C
FC1C
FC1C
EE1C
EF1C
E71C
E39C
E39C
E1DC
E1FC
E0FC
E07C
E07C
E03C
E03C
ENDCHAR
STARTCHAR 0148
ENCODING 328
SWIDTH 600 0
DWIDTH 15 0
BBX 11 20 2 0
BITMAP
71C0
3B80
1F00
1F00
0000
0000
E780
FFC0
FFE0
F1E0
E0E0
E0E0
E0E0
E0E0
E0E0
E0E0
E0E0
E0E0
E0E0
E0E0
ENDCHAR
STARTCHAR 0149
ENCODING 329
SWIDTH 720 0
DWIDTH 18 0
BBX 16 18 0 0
BITMAP
E000
E000
E000
6000
673C
C7FE
87FF
078F
0707
0707
0707
0707
0707
0707
0707
0707
0707
0707
ENDCHAR
STARTCHAR 014A
ENCODING 330
SWIDTH 720 0
DWIDTH 18 0
BBX 15 18 2 0
BITMAP
E3F0
EFF8
FFFC
FC3C
F01E
E00E
E00E
E00E
E00E
E00E
E00E
E00E
E00E
E00E
E01E
E1FC
E3F8
E1F0
ENDCHAR
STARTCHAR 014B
ENCODING 331
SWIDTH 600 0
DWIDTH 15 0
BBX 11 19 2 -5
BITMAP
E780
FFC0
FFE0
F1E0
E0E0
E0E0
E0E0
E0E0
E0E0
E0E0
E0E0
E0E0
E0E0
E0E0
00E0
00E0
03E0
07C0
0780
ENDCHAR
STARTCHAR 014C
ENCODING 332
SWIDTH 760 0
DWIDTH 19 0
BBX 17 23 1 0
BITMAP
07F000
07F000
07F000
000000
000000
07F000
1FFC00
3FFE00
7C1F00
780F00
700700
E00380
E00380
E00380
E00380
E00380
E00380
700780
780F00
7C1F00
3FFE00
1FFC00
07F000
ENDCHAR
STARTCHAR 014D
ENCODING 333
SWIDTH 600 0
DWIDTH 15 0
BBX 13 19 1 0
BITMAP
1FC0
1FC0
1FC0
0000
0000
0F80
3FE0
7FF0
78F0
F078
E038
E038
E038
E038
F078
78F0
7FF0
3FE0
0F80
ENDCHAR
STARTCHAR 014E
ENCODING 334
SWIDTH 760 0
DWIDTH 19 0
BBX 17 24 1 0
BITMAP
061800
073800
03F000
01E000
000000
000000
07F000
1FFC00
3FFE00
7C1F00
780F00
700700
E00380
E00380
E00380
E00380
E00380
E00380
700780
780F00
7C1F00
3FFE00
1FFC00
07F000
ENDCHAR
STARTCHAR 014F
ENCODING 335
SWIDTH 600 0
DWIDTH 15 0
BBX 13 20 1 0
BITMAP
1860
1CE0
0FC0
0780
0000
0000
0F80
3FE0
7FF0
78F0
F078
E038
E038
E038
E038
F078
78F0
7FF0
3FE0
0F80
ENDCHAR
STARTCHAR 0150
ENCODING 336
SWIDTH 760 0
DWIDTH 19 0
BBX 17 24 1 0
BITMAP
03DE00
07BC00
073800
0E7000
000000
000000
07F000
1FFC00
3FFE00
7C1F00
780F00
700700
E00380
E00380
E00380
E00380
E00380
E00380
700780
780F00
7C1F00
3FFE00
1FFC00
07F000
ENDCHAR
STARTCHAR 0151
ENCODING 337
SWIDTH 600 0
DWIDTH 15 0
BBX 13 20 1 0
BITMAP
0F78
1EF0
1CE0
39C0
0000
0000
0F80
3FE0
7FF0
78F0
F078
E038
E038
E038
E038
F078
78F0
7FF0
3FE0
0F80
ENDCHAR
STARTCHAR 0152
ENCODING 338
SWIDTH 1000 0
DWIDTH 25 0
BBX 23 18 1 0
BITMAP
0F9FFE
1FFFFE
3FFFFE
787C00
703C00
E01C00
E01C00
E01FFC
E01FFC
E01FFC
E01C00
E01C00
E03C00
703C00
787C00
3FFFFE
3FFFFE
0FDFFE
ENDCHAR
STARTCHAR 0153
ENCODING 339
SWIDTH 960 0
DWIDTH 24 0
BBX 22 14 1 0
BITMAP
0F87C0
3FEFF0
7FFFF8
78FC38
F0781C
E0381C
E03FFC
E03FFC
E03800
F07800
78FC18
7FFFFC
3FEFF8
0F87E0
ENDCHAR
STARTCHAR 0154
ENCODING 340
SWIDTH 720 0
DWIDTH 18 0
BBX 15 24 2 0
BITMAP
01E0
03C0
0380
0700
0000
0000
FFE0
FFF8
FFF8
E03C
E01C
E01C
E03C
FFF8
FFF0
FFC0
E1E0
E0E0
E0F0
E078
E078
E03C
E01C
E01E
ENDCHAR
STARTCHAR 0155
ENCODING 341
SWIDTH 400 0
DWIDTH 10 0
BBX 8 20 2 0
BITMAP
0F
1E
1C
38
00
00
EF
FF
FF
F0
E0
E0
E0
E0
E0
E0
E0
E0
E0
E0
ENDCHAR
STARTCHAR 0156
ENCODING 342
SWIDTH 720 0
DWIDTH 18 0
BBX 15 22 2 -4
BITMAP
FFE0
FFF8
FFF8
E03C
E01C
E01C
E03C
FFF8
FFF0
FFC0
E1E0
E0E0
E0F0
E078
E078
E03C
E01C
E01E
0780
01C0
01C0
1F00
ENDCHAR
STARTCHAR 0157
ENCODING 343
SWIDTH 400 0
DWIDTH 10 0
BBX 9 18 1 -4
BITMAP
7780
7F80
7F80
7800
7000
7000
7000
7000
7000
7000
7000
7000
7000
7000
3C00
0E00
0E00
F800
ENDCHAR
STARTCHAR 0158
ENCODING 344
SWIDTH 720 0
DWIDTH 18 0
BBX 15 24 2 0
BITMAP
38E0
1DC0
0F80
0F80
0000
0000
FFE0
FFF8
FFF8
E03C
E01C
E01C
E03C
FFF8
FFF0
FFC0
E1E0
E0E0
E0F0
E078
E078
E03C
E01C
E01E
ENDCHAR
STARTCHAR 0159
ENCODING 345
SWIDTH 400 0
DWIDTH 10 0
BBX 9 20 2 0
BITMAP
E380
7700
3E00
3E00
0000
0000
EF00
FF00
FF00
F000
E000
E000
E000
E000
E000
E000
E000
E000
E000
E000
ENDCHAR
STARTCHAR 015A
ENCODING 346
SWIDTH 680 0
DWIDTH 17 0
BBX 15 24 1 0
BITMAP
01E0
03C0
0380
0700
0000
0000
07C0
1FF0
3FF8
783C
701C
7800
7E00
3FC0
1FF0
07FC
00FC
001E
E00E
F00E
781E
7FFC
3FF8
0FE0
ENDCHAR
STARTCHAR 015B
ENCODING 347
SWIDTH 560 0
DWIDTH 14 0
BBX 12 20 1 0
BITMAP
03C0
0780
0700
0E00
0000
0000
1F80
7FE0
F0F0
E060
F000
FE00
7FC0
3FE0
07F0
00F0
6070
F0F0
7FE0
1F80
ENDCHAR
STARTCHAR 015C
ENCODING 348
SWIDTH 680 0
DWIDTH 17 0
BBX 15 24 1 0
BITMAP
0380
07C0
0EE0
1C70
0000
0000
07C0
1FF0
3FF8
783C
701C
7800
7E00
3FC0
1FF0
07FC
00FC
001E
E00E
F00E
781E
7FFC
3FF8
0FE0
ENDCHAR
STARTCHAR 015D
ENCODING 349
SWIDTH 560 0
DWIDTH 14 0
BBX 12 20 1 0
BITMAP
0700
0F80
1DC0
38E0
0000
0000
1F80
7FE0
F0F0
E060
F000
FE00
7FC0
3FE0
07F0
00F0
6070
F0F0
7FE0
1F80
ENDCHAR
STARTCHAR 015E
ENCODING 350
SWIDTH 680 0
DWIDTH 17 0
BBX 15 22 1 -4
BITMAP
07C0
1FF0
3FF8
783C
701C
7800
7E00
3FC0
1FF0
07FC
00FC
001E
E00E
F00E
781E
7FFC
3FF8
0FE0
07C0
00E0
00E0
0FC0
ENDCHAR
STARTCHAR 015F
ENCODING 351
SWIDTH 560 0
DWIDTH 14 0
BBX 12 18 1 -4
BITMAP
1F80
7FE0
F0F0
E060
F000
FE00
7FC0
3FE0
07F0
00F0
6070
F0F0
7FE0
1F80
0F80
01C0
01C0
1F80
ENDCHAR
STARTCHAR 0160
ENCODING 352
SWIDTH 680 0
DWIDTH 17 0
BBX 15 24 1 0
BITMAP
1C70
0EE0
07C0
07C0
0000
0000
07C0
1FF0
3FF8
783C
701C
7800
7E00
3FC0
1FF0
07FC
00FC
001E
E00E
F00E
781E
7FFC
3FF8
0FE0
ENDCHAR
STARTCHAR 0161
ENCODING 353
SWIDTH 560 0
DWIDTH 14 0
BBX 12 20 1 0
BITMAP
38E0
1DC0
0F80
0F80
0000
0000
1F80
7FE0
F0F0
E060
F000
FE00
7FC0
3FE0
07F0
00F0
6070
F0F0
7FE0
1F80
ENDCHAR
STARTCHAR 0162
ENCODING 354
SWIDTH 600 0
DWIDTH 15 0
BBX 13 27 1 -9
BITMAP
FFF8
FFF8
FFF8
0700
0700
0700
0700
0700
0700
0700
0700
0700
0700
0700
0700
0700
0700
0700
0000
0000
0700
0700
0700
0300
0300
0600
0400
ENDCHAR
STARTCHAR 0163
ENCODING 355
SWIDTH 320 0
DWIDTH 8 0
BBX 8 25 0 -7
BITMAP
08
18
38
38
FF
FF
FF
38
38
38
38
38
38
38
38
3F
3F
1F
00
1C
1C
1C
0C
18
10
ENDCHAR
STARTCHAR 0164
ENCODING 356
SWIDTH 600 0
DWIDTH 15 0
BBX 13 24 1 0
BITMAP
38E0
1DC0
0F80
0F80
0000
0000
FFF8
FFF8
FFF8
0700
0700
0700
0700
0700
0700
0700
0700
0700
0700
0700
0700
0700
0700
0700
ENDCHAR
STARTCHAR 0165
ENCODING 357
SWIDTH 480 0
DWIDTH 12 0
BBX 12 18 0 0
BITMAP
0870
1870
3870
3830
FF30
FF60
FF40
3800
3800
3800
3800
3800
3800
3800
3800
3F00
3F00
1F00
ENDCHAR
STARTCHAR 0166
ENCODING 358
SWIDTH 600 0
DWIDTH 15 0
BBX 13 18 1 0
BITMAP
FFF8
FFF8
FFF8
0700
0700
0700
0700
0700
0700
7FF0
7FF0
0700
0700
0700
0700
0700
0700
0700
ENDCHAR
STARTCHAR 0167
ENCODING 359
SWIDTH 320 0
DWIDTH 8 0
BBX 8 18 0 0
BITMAP
08
18
38
38
FF
FF
FF
38
38
38
FF
FF
38
38
38
3F
3F
1F
ENDCHAR
STARTCHAR 0168
ENCODING 360
SWIDTH 720 0
DWIDTH 18 0
BBX 14 23 2 0
BITMAP
0E60
1FE0
19C0
0000
0000
E01C
E01C
E01C
E01C
E01C
E01C
E01C
E01C
E01C
E01C
E01C
E01C
E01C
F03C
7878
7FF8
3FF0
0FC0
ENDCHAR
STARTCHAR 0169
ENCODING 361
SWIDTH 600 0
DWIDTH 15 0
BBX 11 19 2 0
BITMAP
1CC0
3FC0
3380
0000
0000
E0E0
E0E0
E0E0
E0E0
E0E0
E0E0
E0E0
E0E0
E0E0
E0E0
F1E0
FFE0
7FE0
3CE0
ENDCHAR
STARTCHAR 016A
ENCODING 362
SWIDTH 720 0
DWIDTH 18 0
BBX 14 23 2 0
BITMAP
0FE0
0FE0
0FE0
0000
0000
E01C
E01C
E01C
E01C
E01C
E01C
E01C
E01C
E01C
E01C
E01C
E01C
E01C
F03C
7878
7FF8
3FF0
0FC0
ENDCHAR
STARTCHAR 016B
ENCODING 363
SWIDTH 600 0
DWIDTH 15 0
BBX 11 19 2 0
BITMAP
3F80
3F80
3F80
0000
0000
E0E0
E0E0
E0E0
E0E0
E0E0
E0E0
E0E0
E0E0
E0E0
E0E0
F1E0
FFE0
7FE0
3CE0
ENDCHAR
STARTCHAR 016C
ENCODING 364
SWIDTH 720 0
DWIDTH 18 0
BBX 14 24 2 0
BITMAP
1860
1CE0
0FC0
0780
0000
0000
E01C
E01C
E01C
E01C
E01C
E01C
E01C
E01C
E01C
E01C
E01C
E01C
E01C
F03C
7878
7FF8
3FF0
0FC0
ENDCHAR
STARTCHAR 016D
ENCODING 365
SWIDTH 600 0
DWIDTH 15 0
BBX 11 20 2 0
BITMAP
30C0
39C0
1F80
0F00
0000
0000
E0E0
E0E0
E0E0
E0E0
E0E0
E0E0
E0E0
E0E0
E0E0
E0E0
F1E0
FFE0
7FE0
3CE0
ENDCHAR
STARTCHAR 016E
ENCODING 366
SWIDTH 720 0
DWIDTH 18 0
BBX 14 22 2 0
BITMAP
0300
0480
0480
0300
E01C
E01C
E01C
E01C
E01C
E01C
E01C
E01C
E01C
E01C
E01C
E01C
E01C
F03C
7878
7FF8
3FF0
0FC0
ENDCHAR
STARTCHAR 016F
ENCODING 367
SWIDTH 600 0
DWIDTH 15 0
BBX 11 20 2 0
BITMAP
0600
0900
0900
0600
0000
0000
E0E0
E0E0
E0E0
E0E0
E0E0
E0E0
E0E0
E0E0
E0E0
E0E0
F1E0
FFE0
7FE0
3CE0
ENDCHAR
STARTCHAR 0170
ENCODING 368
SWIDTH 720 0
DWIDTH 18 0
BBX 14 24 2 0
BITMAP
0F78
1EF0
1CE0
39C0
0000
0000
E01C
E01C
E01C
E01C
E01C
E01C
E01C
E01C
E01C
E01C
E01C
E01C
E01C
F03C
7878
7FF8
3FF0
0FC0
ENDCHAR
STARTCHAR 0171
ENCODING 369
SWIDTH 600 0
DWIDTH 15 0
BBX 12 20 2 0
BITMAP
1EF0
3DE0
39C0
7380
0000
0000
E0E0
E0E0
E0E0
E0E0
E0E0
E0E0
E0E0
E0E0
E0E0
E0E0
F1E0
FFE0
7FE0
3CE0
ENDCHAR
STARTCHAR 0172
ENCODING 370
SWIDTH 720 0
DWIDTH 18 0
BBX 14 23 2 -5
BITMAP
E01C
E01C
E01C
E01C
E01C
E01C
E01C
E01C
E01C
E01C
E01C
E01C
E01C
F03C
7878
7FF8
3FF0
1FC0
0700
0700
0700
07C0
03C0
ENDCHAR
STARTCHAR 0173
ENCODING 371
SWIDTH 600 0
DWIDTH 15 0
BBX 13 19 2 -5
BITMAP
E0E0
E0E0
E0E0
E0E0
E0E0
E0E0
E0E0
E0E0
E0E0
E0E0
F1E0
FFE0
7FE0
3CE0
00C0
01C0
01C0
01F8
00F8
ENDCHAR
STARTCHAR 0174
ENCODING 372
SWIDTH 920 0
DWIDTH 23 0
BBX 23 24 0 0
BITMAP
003800
007C00
00EE00
01C700
000000
000000
E0380E
E0380E
707C1C
707C1C
707C1C
306C1C
38EE38
38EE38
38C638
18C630
1DC770
1DC770
1D8370
0D8360
0F83E0
0F83E0
0701C0
0701C0
ENDCHAR
STARTCHAR 0175
ENCODING 373
SWIDTH 760 0
DWIDTH 19 0
BBX 19 20 0 0
BITMAP
00E000
01F000
03B800
071C00
000000
000000
E0E0E0
F0E1E0
70E1C0
71F1C0
71B1C0
31B180
3BB380
3BBB80
1B1B00
1B1B00
1F1F00
0E0E00
0E0E00
0E0E00
ENDCHAR
STARTCHAR 0176
ENCODING 374
SWIDTH 680 0
DWIDTH 17 0
BBX 15 24 1 0
BITMAP
0380
07C0
0EE0
1C70
0000
0000
E00E
F01E
701C
3838
3C78
1C70
0EE0
0EE0
07C0
07C0
0380
0380
0380
0380
0380
0380
0380
0380
ENDCHAR
STARTCHAR 0177
ENCODING 375
SWIDTH 520 0
DWIDTH 13 0
BBX 13 25 0 -5
BITMAP
0700
0F80
1DC0
38E0
0000
0000
E038
E038
7070
7070
7070
38E0
38E0
3DE0
1DC0
1DC0
0F80
0F80
0F80
0700
0700
0F00
7E00
7E00
7800
ENDCHAR
STARTCHAR 0178
ENCODING 376
SWIDTH 680 0
DWIDTH 17 0
BBX 15 23 1 0
BITMAP
0E70
0E70
0E70
0000
0000
E00E
F01E
701C
3838
3C78
1C70
0EE0
0EE0
07C0
07C0
0380
0380
0380
0380
0380
0380
0380
0380
ENDCHAR
STARTCHAR 0179
ENCODING 377
SWIDTH 560 0
DWIDTH 14 0
BBX 14 24 0 0
BITMAP
00F0
01E0
01C0
0380
0000
0000
7FFC
7FFC
7FFC
003C
0078
00F0
01E0
03C0
0380
0700
0F00
1E00
3C00
7800
F000
FFFC
FFFC
FFFC
ENDCHAR
STARTCHAR 017A
ENCODING 378
SWIDTH 520 0
DWIDTH 13 0
BBX 11 20 1 0
BITMAP
03C0
0780
0700
0E00
0000
0000
FFE0
FFE0
FFE0
01C0
0380
0700
0F00
1E00
1C00
3800
7000
FFE0
FFE0
FFE0
ENDCHAR
STARTCHAR 017B
ENCODING 379
SWIDTH 560 0
DWIDTH 14 0
BBX 14 23 0 0
BITMAP
0380
0380
0380
0000
0000
7FFC
7FFC
7FFC
003C
0078
00F0
01E0
03C0
0380
0700
0F00
1E00
3C00
7800
F000
FFFC
FFFC
FFFC
ENDCHAR
STARTCHAR 017C
ENCODING 380
SWIDTH 520 0
DWIDTH 13 0
BBX 11 19 1 0
BITMAP
0E00
0E00
0E00
0000
0000
FFE0
FFE0
FFE0
01C0
0380
0700
0F00
1E00
1C00
3800
7000
FFE0
FFE0
FFE0
ENDCHAR
STARTCHAR 017D
ENCODING 381
SWIDTH 560 0
DWIDTH 14 0
BBX 14 24 0 0
BITMAP
1C70
0EE0
07C0
07C0
0000
0000
7FFC
7FFC
7FFC
003C
0078
00F0
01E0
03C0
0380
0700
0F00
1E00
3C00
7800
F000
FFFC
FFFC
FFFC
ENDCHAR
STARTCHAR 017E
ENCODING 382
SWIDTH 520 0
DWIDTH 13 0
BBX 11 20 1 0
BITMAP
71C0
3B80
1F00
1F00
0000
0000
FFE0
FFE0
FFE0
01C0
0380
0700
0F00
1E00
1C00
3800
7000
FFE0
FFE0
FFE0
ENDCHAR
STARTCHAR 017F
ENCODING 383
SWIDTH 280 0
DWIDTH 7 0
BBX 7 18 2 0
BITMAP
3E
7E
FE
E0
E0
E0
E0
E0
E0
E0
E0
E0
E0
E0
E0
E0
E0
E0
ENDCHAR
STARTCHAR 018F
ENCODING 399
SWIDTH 720 0
DWIDTH 18 0
BBX 16 18 1 0
BITMAP
0FE0
3FF8
7FFC
783C
F01E
600E
0007
0007
FFFF
FFFF
FFFF
E007
E007
700E
783E
3FFC
1FF8
07E0
ENDCHAR
STARTCHAR 0192
ENCODING 402
SWIDTH 560 0
DWIDTH 14 0
BBX 14 23 0 -5
BITMAP
007C
00FC
01F8
01C0
01C0
0FF0
0FF0
0FF0
0380
0380
0780
0700
0700
0700
0700
0700
0F00
0E00
0E00
0E00
7E00
FC00
F800
ENDCHAR
STARTCHAR 01A0
ENCODING 416
SWIDTH 840 0
DWIDTH 21 0
BBX 20 18 1 0
BITMAP
07F070
1FFC70
3FFE70
7C1F30
780760
7007C0
E00380
E00380
E00380
E00380
E00380
E00380
F00700
780F00
7C1E00
3FFE00
1FFC00
07F000
ENDCHAR
STARTCHAR 01A1
ENCODING 417
SWIDTH 720 0
DWIDTH 18 0
BBX 17 14 1 0
BITMAP
0F8380
3FE380
7FF380
78F980
F07B00
E03E00
E03800
E03800
E03800
F07800
78F000
7FF000
3FE000
0F8000
ENDCHAR
STARTCHAR 01AF
ENCODING 431
SWIDTH 840 0
DWIDTH 21 0
BBX 19 18 2 0
BITMAP
E01CE0
E01CE0
E01CE0
E01C60
E01C60
E01CC0
E01F00
E01C00
E01C00
E01C00
E01C00
E01C00
E01C00
F03C00
787800
7FF800
3FF000
0FC000
ENDCHAR
STARTCHAR 01B0
ENCODING 432
SWIDTH 720 0
DWIDTH 18 0
BBX 16 14 2 0
BITMAP
E0E7
E0E7
E0E7
E0E3
E0E3
E0E6
E0F8
E0E0
E0E0
E0E0
F1E0
FFE0
7FE0
3CE0
ENDCHAR
STARTCHAR 01CD
ENCODING 461
SWIDTH 680 0
DWIDTH 17 0
BBX 17 24 0 0
BITMAP
0E3800
077000
03E000
03E000
000000
000000
03E000
03E000
03E000
077000
077000
0F7800
0E3800
0E3800
1E1C00
1C1C00
1C1C00
3FFE00
3FFE00
3FFE00
700700
700700
700700
E00380
ENDCHAR
STARTCHAR 01CE
ENCODING 462
SWIDTH 560 0
DWIDTH 14 0
BBX 12 20 1 0
BITMAP
71C0
3B80
1F00
1F00
0000
0000
1F80
7FC0
71E0
E0E0
00E0
03E0
1FE0
7CE0
F0E0
E0E0
E0E0
F1E0
7FE0
3E70
ENDCHAR
STARTCHAR 01CF
ENCODING 463
SWIDTH 280 0
DWIDTH 7 0
BBX 9 24 -1 0
BITMAP
E380
7700
3E00
3E00
0000
0000
1C00
1C00
1C00
1C00
1C00
1C00
1C00
1C00
1C00
1C00
1C00
1C00
1C00
1C00
1C00
1C00
1C00
1C00
ENDCHAR
STARTCHAR 01D0
ENCODING 464
SWIDTH 280 0
DWIDTH 7 0
BBX 9 20 -1 0
BITMAP
E380
7700
3E00
3E00
0000
0000
1C00
1C00
1C00
1C00
1C00
1C00
1C00
1C00
1C00
1C00
1C00
1C00
1C00
1C00
ENDCHAR
STARTCHAR 01D1
ENCODING 465
SWIDTH 760 0
DWIDTH 19 0
BBX 17 24 1 0
BITMAP
0E3800
077000
03E000
03E000
000000
000000
07F000
1FFC00
3FFE00
7C1F00
780F00
700700
E00380
E00380
E00380
E00380
E00380
E00380
700780
780F00
7C1F00
3FFE00
1FFC00
07F000
ENDCHAR
STARTCHAR 01D2
ENCODING 466
SWIDTH 600 0
DWIDTH 15 0
BBX 13 20 1 0
BITMAP
38E0
1DC0
0F80
0F80
0000
0000
0F80
3FE0
7FF0
78F0
F078
E038
E038
E038
E038
F078
78F0
7FF0
3FE0
0F80
ENDCHAR
STARTCHAR 01D3
ENCODING 467
SWIDTH 720 0
DWIDTH 18 0
BBX 14 24 2 0
BITMAP
1C70
0EE0
07C0
07C0
0000
0000
E01C
E01C
E01C
E01C
E01C
E01C
E01C
E01C
E01C
E01C
E01C
E01C
E01C
F03C
7878
7FF8
3FF0
0FC0
ENDCHAR
STARTCHAR 01D4
ENCODING 468
SWIDTH 600 0
DWIDTH 15 0
BBX 11 20 2 0
BITMAP
71C0
3B80
1F00
1F00
0000
0000
E0E0
E0E0
E0E0
E0E0
E0E0
E0E0
E0E0
E0E0
E0E0
E0E0
F1E0
FFE0
7FE0
3CE0
ENDCHAR
STARTCHAR 01D5
ENCODING 469
SWIDTH 720 0
DWIDTH 18 0
BBX 14 24 2 0
BITMAP
0FE0
0000
0C60
0C60
0000
0000
E01C
E01C
E01C
E01C
E01C
E01C
E01C
E01C
E01C
E01C
E01C
E01C
E01C
F03C
7878
7FF8
3FF0
0FC0
ENDCHAR
STARTCHAR 01D6
ENCODING 470
SWIDTH 600 0
DWIDTH 15 0
BBX 11 23 2 0
BITMAP
3F80
3F80
3F80
0000
39C0
39C0
39C0
0000
0000
E0E0
E0E0
E0E0
E0E0
E0E0
E0E0
E0E0
E0E0
E0E0
E0E0
F1E0
FFE0
7FE0
3CE0
ENDCHAR
STARTCHAR 01D7
ENCODING 471
SWIDTH 720 0
DWIDTH 18 0
BBX 14 23 2 0
BITMAP
00C0
0180
0C60
0C60
0000
E01C
E01C
E01C
E01C
E01C
E01C
E01C
E01C
E01C
E01C
E01C
E01C
E01C
F03C
7878
7FF8
3FF0
0FC0
ENDCHAR
STARTCHAR 01D8
ENCODING 472
SWIDTH 600 0
DWIDTH 15 0
BBX 11 24 2 0
BITMAP
01E0
03C0
0380
0700
0000
39C0
39C0
39C0
0000
0000
E0E0
E0E0
E0E0
E0E0
E0E0
E0E0
E0E0
E0E0
E0E0
E0E0
F1E0
FFE0
7FE0
3CE0
ENDCHAR
STARTCHAR 01D9
ENCODING 473
SWIDTH 720 0
DWIDTH 18 0
BBX 14 23 2 0
BITMAP
0CC0
0780
1860
1860
0000
E01C
E01C
E01C
E01C
E01C
E01C
E01C
E01C
E01C
E01C
E01C
E01C
E01C
F03C
7878
7FF8
3FF0
0FC0
ENDCHAR
STARTCHAR 01DA
ENCODING 474
SWIDTH 600 0
DWIDTH 15 0
BBX 11 24 2 0
BITMAP
38E0
1DC0
0F80
0F80
0000
39C0
39C0
39C0
0000
0000
E0E0
E0E0
E0E0
E0E0
E0E0
E0E0
E0E0
E0E0
E0E0
E0E0
F1E0
FFE0
7FE0
3CE0
ENDCHAR
STARTCHAR 01DB
ENCODING 475
SWIDTH 720 0
DWIDTH 18 0
BBX 14 23 2 0
BITMAP
0600
0300
0C60
0C60
0000
E01C
E01C
E01C
E01C
E01C
E01C
E01C
E01C
E01C
E01C
E01C
E01C
E01C
F03C
7878
7FF8
3FF0
0FC0
ENDCHAR
STARTCHAR 01DC
ENCODING 476
SWIDTH 600 0
DWIDTH 15 0
BBX 11 24 2 0
BITMAP
3C00
1E00
0E00
0700
0000
39C0
39C0
39C0
0000
0000
E0E0
E0E0
E0E0
E0E0
E0E0
E0E0
E0E0
E0E0
E0E0
E0E0
F1E0
FFE0
7FE0
3CE0
ENDCHAR
STARTCHAR 01FA
ENCODING 506
SWIDTH 680 0
DWIDTH 17 0
BBX 17 25 0 0
BITMAP
007800
00F000
00E000
01C000
00C000
012000
012000
03E000
03E000
03E000
077000
077000
0F7800
0E3800
0E3800
1E1C00
1C1C00
1C1C00
3FFE00
3FFE00
3FFE00
700700
700700
700700
E00380
ENDCHAR
STARTCHAR 01FB
ENCODING 507
SWIDTH 560 0
DWIDTH 14 0
BBX 12 24 1 0
BITMAP
03C0
0780
0700
0E00
0000
0600
0900
0900
0600
0000
1F80
7FC0
71E0
E0E0
00E0
03E0
1FE0
7CE0
F0E0
E0E0
E0E0
F1E0
7FE0
3E70
ENDCHAR
STARTCHAR 01FC
ENCODING 508
SWIDTH 1000 0
DWIDTH 25 0
BBX 25 24 -1 0
BITMAP
00078000
000F0000
000E0000
001C0000
00000000
00000000
007FFF80
00FFFF80
00FFFF80
01EE0000
01CE0000
03CE0000
038E0000
078FFF00
070FFF00
0F0FFF00
0E0E0000
1FFE0000
1FFE0000
3FFE0000
380E0000
780FFF80
700FFF80
F00FFF80
ENDCHAR
STARTCHAR 01FD
ENCODING 509
SWIDTH 880 0
DWIDTH 22 0
BBX 20 20 1 0
BITMAP
003C00
007800
007000
00E000
000000
000000
1F8F00
7FFFC0
71FFE0
E0F0E0
00E070
03E070
3FFFF0
7CFFF0
F0E000
E0E000
E0F060
F1FFF0
7FBFE0
3E0F80
ENDCHAR
STARTCHAR 01FE
ENCODING 510
SWIDTH 760 0
DWIDTH 19 0
BBX 19 25 0 -1
BITMAP
003C00
007800
007000
00E000
000000
000080
03F8E0
0FFFC0
1FFF80
3E0F80
3C0F80
781FC0
7039C0
7071C0
70E1C0
70E1C0
71C1C0
7381C0
7F0380
3E0780
3E0F80
3FFF00
7FFE00
E3F800
200000
ENDCHAR
STARTCHAR 01FF
ENCODING 511
SWIDTH 600 0
DWIDTH 15 0
BBX 13 21 1 -1
BITMAP
01E0
03C0
0380
0700
0000
0010
0F98
3FF0
7FE0
78F0
F0F0
E1B8
E338
E638
EC38
F878
78F0
7FF0
7FE0
CF80
4000
ENDCHAR
STARTCHAR 0259
ENCODING 601
SWIDTH 560 0
DWIDTH 14 0
BBX 12 14 1 0
BITMAP
1F00
3FC0
7FE0
F0E0
E070
0070
FFF0
FFF0
FFF0
E070
70E0
7FE0
3FC0
0F80
ENDCHAR
STARTCHAR 02C6
ENCODING 710
SWIDTH 320 0
DWIDTH 8 0
BBX 9 4 0 14
BITMAP
1C00
3E00
7700
E380
ENDCHAR
STARTCHAR 02C7
ENCODING 711
SWIDTH 320 0
DWIDTH 8 0
BBX 9 4 0 14
BITMAP
E380
7700
3E00
3E00
ENDCHAR
STARTCHAR 02C9
ENCODING 713
SWIDTH 320 0
DWIDTH 8 0
BBX 7 3 0 15
BITMAP
FE
FE
FE
ENDCHAR
STARTCHAR 02D8
ENCODING 728
SWIDTH 360 0
DWIDTH 9 0
BBX 8 4 0 14
BITMAP
C3
E7
7E
3C
ENDCHAR
STARTCHAR 02D9
ENCODING 729
SWIDTH 320 0
DWIDTH 8 0
BBX 3 3 2 15
BITMAP
E0
E0
E0
ENDCHAR
STARTCHAR 02DA
ENCODING 730
SWIDTH 320 0
DWIDTH 8 0
BBX 4 4 2 14
BITMAP
60
90
90
60
ENDCHAR
STARTCHAR 02DB
ENCODING 731
SWIDTH 360 0
DWIDTH 9 0
BBX 6 5 2 -5
BITMAP
E0
E0
E0
FC
7C
ENDCHAR
STARTCHAR 02DC
ENCODING 732
SWIDTH 320 0
DWIDTH 8 0
BBX 8 3 0 15
BITMAP
73
FF
CE
ENDCHAR
STARTCHAR 02DD
ENCODING 733
SWIDTH 320 0
DWIDTH 8 0
BBX 11 4 1 14
BITMAP
3DE0
7BC0
7380
E700
ENDCHAR
STARTCHAR 0300
ENCODING 768
SWIDTH 0 0
DWIDTH 0 0
BBX 5 3 -7 21
BITMAP
E0
70
38
ENDCHAR
STARTCHAR 0301
ENCODING 769
SWIDTH 0 0
DWIDTH 0 0
BBX 5 3 -5 21
BITMAP
38
70
E0
ENDCHAR
STARTCHAR 0303
ENCODING 771
SWIDTH 0 0
DWIDTH 0 0
BBX 8 3 -12 21
BITMAP
73
FF
CE
ENDCHAR
STARTCHAR 0309
ENCODING 777
SWIDTH 0 0
DWIDTH 0 0
BBX 5 4 -6 20
BITMAP
F0
18
18
20
ENDCHAR
STARTCHAR 0323
ENCODING 803
SWIDTH 0 0
DWIDTH 0 0
BBX 3 3 -11 -5
BITMAP
E0
E0
E0
ENDCHAR
STARTCHAR 037E
ENCODING 894
SWIDTH 280 0
DWIDTH 7 0
BBX 3 18 2 -4
BITMAP
E0
E0
E0
00
00
00
00
00
00
00
00
E0
E0
E0
60
60
C0
80
ENDCHAR
STARTCHAR 0384
ENCODING 900
SWIDTH 320 0
DWIDTH 8 0
BBX 6 4 2 14
BITMAP
3C
78
70
E0
ENDCHAR
STARTCHAR 0385
ENCODING 901
SWIDTH 480 0
DWIDTH 12 0
BBX 12 4 0 14
BITMAP
0780
E770
EE70
EE70
ENDCHAR
STARTCHAR 0386
ENCODING 902
SWIDTH 680 0
DWIDTH 17 0
BBX 18 18 -1 0
BITMAP
3DF000
79F000
E1F000
03B800
03B800
07BC00
071C00
071C00
0F0E00
0E0E00
0E0E00
1FFF00
1FFF00
1FFF00
380380
380380
380380
7001C0
ENDCHAR
STARTCHAR 0387
ENCODING 903
SWIDTH 320 0
DWIDTH 8 0
BBX 3 3 2 11
BITMAP
E0
E0
E0
ENDCHAR
STARTCHAR 0388
ENCODING 904
SWIDTH 840 0
DWIDTH 21 0
BBX 22 18 -1 0
BITMAP
3CFFFC
78FFFC
E0FFFC
00E000
00E000
00E000
00E000
00FFF8
00FFF8
00FFF8
00E000
00E000
00E000
00E000
00E000
00FFFC
00FFFC
00FFFC
ENDCHAR
STARTCHAR 0389
ENCODING 905
SWIDTH 920 0
DWIDTH 23 0
BBX 22 18 -1 0
BITMAP
3CE01C
78E01C
E0E01C
00E01C
00E01C
00E01C
00E01C
00FFFC
00FFFC
00FFFC
00E01C
00E01C
00E01C
00E01C
00E01C
00E01C
00E01C
00E01C
ENDCHAR
STARTCHAR 038A
ENCODING 906
SWIDTH 480 0
DWIDTH 12 0
BBX 11 18 -1 0
BITMAP
3CE0
78E0
E0E0
00E0
00E0
00E0
00E0
00E0
00E0
00E0
00E0
00E0
00E0
00E0
00E0
00E0
00E0
00E0
ENDCHAR
STARTCHAR 038C
ENCODING 908
SWIDTH 840 0
DWIDTH 21 0
BBX 21 18 -1 0
BITMAP
3C7F00
79FFC0
E3FFE0
07C1F0
078070
0F0070
0E0038
0E0038
0E0038
0E0038
0E0038
0E0038
0F0078
0780F0
07C1F0
03FFE0
01FFC0
007F00
ENDCHAR
STARTCHAR 038E
ENCODING 910
SWIDTH 920 0
DWIDTH 23 0
BBX 22 18 0 0
BITMAP
3FC01C
79E03C
E0E038
007070
0078F0
0038E0
001DC0
001DC0
000F80
000F80
000700
000700
000700
000700
000700
000700
000700
000700
ENDCHAR
STARTCHAR 038F
ENCODING 911
SWIDTH 840 0
DWIDTH 21 0
BBX 21 18 -1 0
BITMAP
3C7E00
7BFFC0
E7FFE0
0F81F0
0F00F0
1E0078
1C0038
1C0038
1C0038
1C0038
1C0038
0E0070
0E0070
0700E0
03C3C0
1FE7F8
1FE7F8
1FE7F8
ENDCHAR
STARTCHAR 0390
ENCODING 912
SWIDTH 280 0
DWIDTH 7 0
BBX 12 20 -2 0
BITMAP
0780
E770
EE70
EE70
0000
0000
0E00
0E00
0E00
0E00
0E00
0E00
0E00
0E00
0E00
0E00
0E00
0E00
0E00
0E00
ENDCHAR
STARTCHAR 0391
ENCODING 913
SWIDTH 680 0
DWIDTH 17 0
BBX 17 18 0 0
BITMAP
03E000
03E000
03E000
077000
077000
0F7800
0E3800
0E3800
1E1C00
1C1C00
1C1C00
3FFE00
3FFE00
3FFE00
700700
700700
700700
E00380
ENDCHAR
STARTCHAR 0392
ENCODING 914
SWIDTH 720 0
DWIDTH 18 0
BBX 15 18 2 0
BITMAP
FFE0
FFF8
FFFC
E03C
E01C
E01C
E03C
FFF8
FFF8
FFFC
E01E
E00E
E00E
E00E
E01E
FFFC
FFF8
FFF0
ENDCHAR
STARTCHAR 0393
ENCODING 915
SWIDTH 600 0
DWIDTH 15 0
BBX 12 18 2 0
BITMAP
FFF0
FFF0
FFF0
E000
E000
E000
E000
E000
E000
E000
E000
E000
E000
E000
E000
E000
E000
E000
ENDCHAR
STARTCHAR 0394
ENCODING 916
SWIDTH 720 0
DWIDTH 18 0
BBX 18 18 0 0
BITMAP
01E000
01E000
03F000
03F000
073800
073800
063800
0E1C00
0E1C00
1C0E00
1C0E00
180E00
380700
380700
700380
7FFF80
7FFF80
FFFFC0
ENDCHAR
STARTCHAR 0395
ENCODING 917
SWIDTH 680 0
DWIDTH 17 0
BBX 14 18 2 0
BITMAP
FFFC
FFFC
FFFC
E000
E000
E000
E000
FFF8
FFF8
FFF8
E000
E000
E000
E000
E000
FFFC
FFFC
FFFC
ENDCHAR
STARTCHAR 0396
ENCODING 918
SWIDTH 560 0
DWIDTH 14 0
BBX 14 18 0 0
BITMAP
7FFC
7FFC
7FFC
003C
0078
00F0
01E0
03C0
0380
0700
0F00
1E00
3C00
7800
F000
FFFC
FFFC
FFFC
ENDCHAR
STARTCHAR 0397
ENCODING 919
SWIDTH 720 0
DWIDTH 18 0
BBX 14 18 2 0
BITMAP
E01C
E01C
E01C
E01C
E01C
E01C
E01C
FFFC
FFFC
FFFC
E01C
E01C
E01C
E01C
E01C
E01C
E01C
E01C
ENDCHAR
STARTCHAR 0398
ENCODING 920
SWIDTH 760 0
DWIDTH 19 0
BBX 17 18 1 0
BITMAP
07F000
1FFC00
3FFE00
7C1F00
780700
F00700
E00380
E7F380
E7F380
E7F380
E00380
E00380
F00780
780F00
7C1F00
3FFE00
1FFC00
07F000
ENDCHAR
STARTCHAR 0399
ENCODING 921
SWIDTH 280 0
DWIDTH 7 0
BBX 3 18 2 0
BITMAP
E0
E0
E0
E0
E0
E0
E0
E0
E0
E0
E0
E0
E0
E0
E0
E0
E0
E0
ENDCHAR
STARTCHAR 039A
ENCODING 922
SWIDTH 720 0
DWIDTH 18 0
BBX 15 18 2 0
BITMAP
E01E
E03C
E078
E0F0
E1E0
E3C0
E780
EF80
FFC0
FDC0
F9E0
F0E0
E070
E078
E038
E01C
E01E
E00E
ENDCHAR
STARTCHAR 039B
ENCODING 923
SWIDTH 680 0
DWIDTH 17 0
BBX 17 18 0 0
BITMAP
01C000
01E000
03E000
03E000
03F000
077000
077000
0E7800
0E3800
1E3C00
1C1C00
1C1C00
381E00
380E00
780F00
700700
700700
E00780
ENDCHAR
STARTCHAR 039C
ENCODING 924
SWIDTH 840 0
DWIDTH 21 0
BBX 17 18 2 0
BITMAP
F80F80
F80F80
FC1F80
FC1F80
EC1B80
EE3B80
EE3B80
E63380
E63380
E77380
E77380
E36380
E36380
E3E380
E3E380
E1C380
E1C380
E1C380
ENDCHAR
STARTCHAR 039D
ENCODING 925
SWIDTH 720 0
DWIDTH 18 0
BBX 14 18 2 0
BITMAP
E01C
F01C
F81C
F81C
FC1C
FC1C
EE1C
EF1C
E71C
E39C
E39C
E1DC
E1FC
E0FC
E07C
E07C
E03C
E03C
ENDCHAR
STARTCHAR 039E
ENCODING 926
SWIDTH 640 0
DWIDTH 16 0
BBX 14 18 1 0
BITMAP
FFFC
FFFC
FFFC
0000
0000
0000
0000
7FF8
7FF8
7FF8
0000
0000
0000
0000
0000
FFFC
FFFC
FFFC
ENDCHAR
STARTCHAR 039F
ENCODING 927
SWIDTH 760 0
DWIDTH 19 0
BBX 17 18 1 0
BITMAP
07F000
1FFC00
3FFE00
7C1F00
780F00
700700
E00380
E00380
E00380
E00380
E00380
E00380
700780
780F00
7C1F00
3FFE00
1FFC00
07F000
ENDCHAR
STARTCHAR 03A0
ENCODING 928
SWIDTH 720 0
DWIDTH 18 0
BBX 14 18 2 0
BITMAP
FFFC
FFFC
FFFC
E01C
E01C
E01C
E01C
E01C
E01C
E01C
E01C
E01C
E01C
E01C
E01C
E01C
E01C
E01C
ENDCHAR
STARTCHAR 03A1
ENCODING 929
SWIDTH 680 0
DWIDTH 17 0
BBX 14 18 2 0
BITMAP
FFE0
FFF0
FFF8
E03C
E01C
E01C
E01C
E03C
FFF8
FFF0
FFC0
E000
E000
E000
E000
E000
E000
E000
ENDCHAR
STARTCHAR 03A3
ENCODING 931
SWIDTH 600 0
DWIDTH 15 0
BBX 13 18 1 0
BITMAP
FFF8
FFF8
FFF8
F000
7800
3C00
1E00
0F00
0780
0780
0F00
1E00
3C00
7800
F000
FFF8
FFF8
FFF8
ENDCHAR
STARTCHAR 03A4
ENCODING 932
SWIDTH 600 0
DWIDTH 15 0
BBX 13 18 1 0
BITMAP
FFF8
FFF8
FFF8
0700
0700
0700
0700
0700
0700
0700
0700
0700
0700
0700
0700
0700
0700
0700
ENDCHAR
STARTCHAR 03A5
ENCODING 933
SWIDTH 680 0
DWIDTH 17 0
BBX 15 18 1 0
BITMAP
E00E
F01E
701C
3838
3C78
1C70
0EE0
0EE0
07C0
07C0
0380
0380
0380
0380
0380
0380
0380
0380
ENDCHAR
STARTCHAR 03A6
ENCODING 934
SWIDTH 760 0
DWIDTH 19 0
BBX 17 18 1 0
BITMAP
01C000
01C000
0FF800
1FFC00
7FFF00
79CF00
F1C780
E1C380
E1C380
E1C380
E1C380
F1C780
79CF00
3FFE00
1FFC00
0FF000
01C000
01C000
ENDCHAR
STARTCHAR 03A7
ENCODING 935
SWIDTH 680 0
DWIDTH 17 0
BBX 15 18 1 0
BITMAP
701C
783C
3C78
1C70
1EF0
0EE0
07C0
07C0
0380
07C0
0FE0
0EE0
1C70
3C78
3838
783C
F01E
E00E
ENDCHAR
STARTCHAR 03A8
ENCODING 936
SWIDTH 760 0
DWIDTH 19 0
BBX 17 18 1 0
BITMAP
E1C380
E1C380
E1C380
E1C380
E1C380
E1C380
E1C380
E1C380
F1C780
79CF00
7FFF00
3FFE00
0FF800
01C000
01C000
01C000
01C000
01C000
ENDCHAR
STARTCHAR 03A9
ENCODING 937
SWIDTH 800 0
DWIDTH 20 0
BBX 18 18 1 0
BITMAP
03F000
1FFE00
3FFF00
7C0F80
780780
F003C0
E001C0
E001C0
E001C0
E001C0
E001C0
700380
700380
380700
1E1E00
FF3FC0
FF3FC0
FF3FC0
ENDCHAR
STARTCHAR 03AA
ENCODING 938
SWIDTH 280 0
DWIDTH 7 0
BBX 8 23 0 0
BITMAP
E7
E7
E7
00
00
38
38
38
38
38
38
38
38
38
38
38
38
38
38
38
38
38
38
ENDCHAR
STARTCHAR 03AB
ENCODING 939
SWIDTH 680 0
DWIDTH 17 0
BBX 15 23 1 0
BITMAP
0E70
0E70
0E70
0000
0000
E00E
F01E
701C
3838
3C78
1C70
0EE0
0EE0
07C0
07C0
0380
0380
0380
0380
0380
0380
0380
0380
ENDCHAR
STARTCHAR 03AC
ENCODING 940
SWIDTH 600 0
DWIDTH 15 0
BBX 13 20 1 0
BITMAP
00F0
01E0
01C0
0380
0000
0000
1F38
3FB8
7FF0
71F0
F0F0
E070
E070
E070
E070
F0F0
70F0
7FF0
3FB8
1F38
ENDCHAR
STARTCHAR 03AD
ENCODING 941
SWIDTH 480 0
DWIDTH 12 0
BBX 11 20 1 0
BITMAP
0780
0F00
0E00
1C00
0000
0000
3F00
7FC0
FF80
E100
E000
7E00
3E00
7E00
F000
E000
E080
FFC0
7FE0
3F80
ENDCHAR
STARTCHAR 03AE
ENCODING 942
SWIDTH 600 0
DWIDTH 15 0
BBX 11 25 2 -5
BITMAP
03C0
0780
0700
0E00
0000
0000
E780
FFC0
FFE0
F1E0
E0E0
E0E0
E0E0
E0E0
E0E0
E0E0
E0E0
E0E0
E0E0
E0E0
00E0
00E0
00E0
00E0
00E0
ENDCHAR
STARTCHAR 03AF
ENCODING 943
SWIDTH 280 0
DWIDTH 7 0
BBX 6 20 2 0
BITMAP
3C
78
70
E0
00
00
E0
E0
E0
E0
E0
E0
E0
E0
E0
E0
E0
E0
E0
E0
ENDCHAR
STARTCHAR 03B0
ENCODING 944
SWIDTH 600 0
DWIDTH 15 0
BBX 12 20 2 0
BITMAP
0780
E770
EE70
EE70
0000
0000
E0E0
E0E0
E0E0
E0E0
E0E0
E0E0
E0E0
E0E0
E0E0
E0E0
F1E0
7FC0
7FC0
1F00
ENDCHAR
STARTCHAR 03B1
ENCODING 945
SWIDTH 600 0
DWIDTH 15 0
BBX 13 14 1 0
BITMAP
1F38
3FB8
7FF0
71F0
F0F0
E070
E070
E070
E070
F0F0
70F0
7FF0
3FB8
1F38
ENDCHAR
STARTCHAR 03B2
ENCODING 946
SWIDTH 600 0
DWIDTH 15 0
BBX 12 23 2 -5
BITMAP
0F00
3FC0
7FE0
71E0
E0E0
E0E0
E1C0
E780
E7C0
E1E0
E0F0
E070
E070
F070
F8F0
FFE0
EFE0
E780
E000
E000
E000
E000
E000
ENDCHAR
STARTCHAR 03B3
ENCODING 947
SWIDTH 520 0
DWIDTH 13 0
BBX 13 19 0 -5
BITMAP
E038
E038
F078
7070
7070
38E0
38E0
38E0
1DC0
1DC0
0D80
0F80
0F80
0700
0700
0700
0700
0700
0700
ENDCHAR
STARTCHAR 03B4
ENCODING 948
SWIDTH 600 0
DWIDTH 15 0
BBX 13 18 1 0
BITMAP
7FF0
7FF0
7FF0
1C00
1F00
3F80
7FE0
78F0
F070
E038
E038
E038
E038
F078
78F0
7FF0
3FE0
0F80
ENDCHAR
STARTCHAR 03B5
ENCODING 949
SWIDTH 480 0
DWIDTH 12 0
BBX 11 14 1 0
BITMAP
3F00
7FC0
FF80
E100
E000
7E00
3E00
7E00
F000
E000
E080
FFC0
7FE0
3F80
ENDCHAR
STARTCHAR 03B6
ENCODING 950
SWIDTH 480 0
DWIDTH 12 0
BBX 10 23 1 -5
BITMAP
7FC0
7FC0
7FC0
0780
0E00
1C00
1800
3800
7000
7000
E000
E000
E000
E000
F000
7F00
7F80
1FC0
01C0
01C0
07C0
0F80
0E00
ENDCHAR
STARTCHAR 03B7
ENCODING 951
SWIDTH 600 0
DWIDTH 15 0
BBX 11 19 2 -5
BITMAP
E780
FFC0
FFE0
F1E0
E0E0
E0E0
E0E0
E0E0
E0E0
E0E0
E0E0
E0E0
E0E0
E0E0
00E0
00E0
00E0
00E0
00E0
ENDCHAR
STARTCHAR 03B8
ENCODING 952
SWIDTH 560 0
DWIDTH 14 0
BBX 12 18 1 0
BITMAP
0F00
3FC0
7FE0
70E0
6060
E070
E070
FFF0
FFF0
FFF0
E070
E070
E070
70E0
70E0
7FE0
3FC0
1F00
ENDCHAR
STARTCHAR 03B9
ENCODING 953
SWIDTH 280 0
DWIDTH 7 0
BBX 3 14 2 0
BITMAP
E0
E0
E0
E0
E0
E0
E0
E0
E0
E0
E0
E0
E0
E0
ENDCHAR
STARTCHAR 03BA
ENCODING 954
SWIDTH 560 0
DWIDTH 14 0
BBX 12 14 2 0
BITMAP
E1E0
E3C0
E780
EF00
EE00
FC00
FC00
FE00
FF00
E780
E380
E3C0
E1E0
E0F0
ENDCHAR
STARTCHAR 03BB
ENCODING 955
SWIDTH 520 0
DWIDTH 13 0
BBX 13 18 0 0
BITMAP
1C00
0E00
0E00
0700
0700
0F80
0F80
0D80
1DC0
1DC0
38E0
38E0
38E0
7070
7070
F078
E038
E038
ENDCHAR
STARTCHAR 03BC
ENCODING 956
SWIDTH 600 0
DWIDTH 15 0
BBX 11 19 2 -5
BITMAP
E0E0
E0E0
E0E0
E0E0
E0E0
E0E0
E0E0
E0E0
E0E0
E0E0
F1E0
FFE0
FFE0
EEE0
E000
E000
E000
E000
E000
ENDCHAR
STARTCHAR 03BD
ENCODING 957
SWIDTH 600 0
DWIDTH 15 0
BBX 13 14 1 0
BITMAP
E038
E038
7070
7070
7070
38E0
38E0
1DC0
1DC0
1FC0
0F80
0F80
0700
0700
ENDCHAR
STARTCHAR 03BE
ENCODING 958
SWIDTH 440 0
DWIDTH 11 0
BBX 10 23 1 -5
BITMAP
1F80
3F80
7F80
7800
7000
7800
3F80
1F80
1F80
3C00
7000
E000
E000
E000
F800
7F00
7F80
1FC0
01C0
01C0
07C0
0F80
0E00
ENDCHAR
STARTCHAR 03BF
ENCODING 959
SWIDTH 600 0
DWIDTH 15 0
BBX 13 14 1 0
BITMAP
0F80
3FE0
7FF0
78F0
F078
E038
E038
E038
E038
F078
78F0
7FF0
3FE0
0F80
ENDCHAR
STARTCHAR 03C0
ENCODING 960
SWIDTH 760 0
DWIDTH 19 0
BBX 19 14 0 0
BITMAP
FFFFE0
FFFFE0
FFFFE0
0E0E00
0E0E00
0E0E00
0E0E00
0E0E00
0E0E00
0E0E00
0E0E00
0E0E00
0E0E00
0E0E00
ENDCHAR
STARTCHAR 03C1
ENCODING 961
SWIDTH 600 0
DWIDTH 15 0
BBX 13 19 1 -5
BITMAP
0F80
3FC0
7FE0
78F0
F078
E038
E038
E038
E038
F078
F8F0
FFF0
FFE0
EF80
E000
E000
E000
E000
E000
ENDCHAR
STARTCHAR 03C2
ENCODING 962
SWIDTH 520 0
DWIDTH 13 0
BBX 11 19 1 -5
BITMAP
07E0
1FE0
3FC0
7C00
7000
F000
E000
E000
E000
F000
7800
7F00
3FC0
0FE0
00E0
00E0
07E0
0FC0
0F80
ENDCHAR
STARTCHAR 03C3
ENCODING 963
SWIDTH 680 0
DWIDTH 17 0
BBX 15 14 1 0
BITMAP
0FFE
3FFE
7FFE
78F0
F078
E038
E038
E038
E038
F078
78F0
7FF0
3FE0
0F80
ENDCHAR
STARTCHAR 03C4
ENCODING 964
SWIDTH 440 0
DWIDTH 11 0
BBX 9 14 1 0
BITMAP
FF80
FF80
FF80
1C00
1C00
1C00
1C00
1C00
1C00
1C00
1C00
1C00
1C00
1C00
ENDCHAR
STARTCHAR 03C5
ENCODING 965
SWIDTH 600 0
DWIDTH 15 0
BBX 11 14 2 0
BITMAP
E0E0
E0E0
E0E0
E0E0
E0E0
E0E0
E0E0
E0E0
E0E0
E0E0
F1E0
7FC0
7FC0
1F00
ENDCHAR
STARTCHAR 03C6
ENCODING 966
SWIDTH 680 0
DWIDTH 17 0
BBX 15 19 1 -5
BITMAP
1DF0
3DF8
7BFC
739C
E38E
E38E
E38E
E38E
E38E
F39C
7BBC
3FF8
1FF0
0FE0
0380
0380
0380
0380
0380
ENDCHAR
STARTCHAR 03C7
ENCODING 967
SWIDTH 560 0
DWIDTH 14 0
BBX 12 19 1 -5
BITMAP
E070
E0F0
70E0
70E0
39C0
39C0
1F80
1F80
0F00
0F00
1F00
1F80
1F80
39C0
39C0
70E0
70E0
E070
E070
ENDCHAR
STARTCHAR 03C8
ENCODING 968
SWIDTH 760 0
DWIDTH 19 0
BBX 15 19 2 -5
BITMAP
E38E
E38E
E38E
E38E
E38E
E38E
E38E
E38E
E38E
E38E
F39E
7FFC
3FF8
0FE0
0380
0380
0380
0380
0380
ENDCHAR
STARTCHAR 03C9
ENCODING 969
SWIDTH 840 0
DWIDTH 21 0
BBX 19 14 1 0
BITMAP
380380
7001C0
7001C0
70E1C0
E0E0E0
E0E0E0
E0E0E0
E0E0E0
E0E0E0
E0E0E0
71F1C0
7FBFC0
3FBF80
1F1F00
ENDCHAR
STARTCHAR 03CA
ENCODING 970
SWIDTH 280 0
DWIDTH 7 0
BBX 8 19 0 0
BITMAP
E7
E7
E7
00
00
38
38
38
38
38
38
38
38
38
38
38
38
38
38
ENDCHAR
STARTCHAR 03CB
ENCODING 971
SWIDTH 600 0
DWIDTH 15 0
BBX 11 19 2 0
BITMAP
39C0
39C0
39C0
0000
0000
E0E0
E0E0
E0E0
E0E0
E0E0
E0E0
E0E0
E0E0
E0E0
E0E0
F1E0
7FC0
7FC0
1F00
ENDCHAR
STARTCHAR 03CC
ENCODING 972
SWIDTH 600 0
DWIDTH 15 0
BBX 13 20 1 0
BITMAP
01E0
03C0
0380
0700
0000
0000
0F80
3FE0
7FF0
78F0
F078
E038
E038
E038
E038
F078
78F0
7FF0
3FE0
0F80
ENDCHAR
STARTCHAR 03CD
ENCODING 973
SWIDTH 600 0
DWIDTH 15 0
BBX 11 20 2 0
BITMAP
03C0
0780
0700
0E00
0000
0000
E0E0
E0E0
E0E0
E0E0
E0E0
E0E0
E0E0
E0E0
E0E0
E0E0
F1E0
7FC0
7FC0
1F00
ENDCHAR
STARTCHAR 03CE
ENCODING 974
SWIDTH 840 0
DWIDTH 21 0
BBX 19 20 1 0
BITMAP
003C00
007800
007000
00E000
000000
000000
380380
7001C0
7001C0
70E1C0
E0E0E0
E0E0E0
E0E0E0
E0E0E0
E0E0E0
E0E0E0
71F1C0
7FBFC0
3FBF80
1F1F00
ENDCHAR
STARTCHAR 0401
ENCODING 1025
SWIDTH 680 0
DWIDTH 17 0
BBX 14 23 2 0
BITMAP
1CE0
1CE0
1CE0
0000
0000
FFFC
FFFC
FFFC
E000
E000
E000
E000
FFF8
FFF8
FFF8
E000
E000
E000
E000
E000
FFFC
FFFC
FFFC
ENDCHAR
STARTCHAR 0402
ENCODING 1026
SWIDTH 880 0
DWIDTH 22 0
BBX 21 18 0 0
BITMAP
FFF800
FFF800
FFF800
070000
070000
070000
073F80
07FFE0
07FFF0
07E0F0
070078
070038
070038
070038
070078
070FF0
070FE0
070F80
ENDCHAR
STARTCHAR 0403
ENCODING 1027
SWIDTH 600 0
DWIDTH 15 0
BBX 12 24 2 0
BITMAP
03C0
0780
0700
0E00
0000
0000
FFF0
FFF0
FFF0
E000
E000
E000
E000
E000
E000
E000
E000
E000
E000
E000
E000
E000
E000
E000
ENDCHAR
STARTCHAR 0404
ENCODING 1028
SWIDTH 720 0
DWIDTH 18 0
BBX 16 18 1 0
BITMAP
03E0
0FFC
3FFE
3C1E
700F
7006
E000
FFC0
FFC0
FFC0
E000
E000
F006
700F
7C1E
3FFE
1FFC
03E0
ENDCHAR
STARTCHAR 0405
ENCODING 1029
SWIDTH 680 0
DWIDTH 17 0
BBX 15 18 1 0
BITMAP
07C0
1FF0
3FF8
783C
701C
7800
7E00
3FC0
1FF0
07FC
00FC
001E
E00E
F00E
781E
7FFC
3FF8
0FE0
ENDCHAR
STARTCHAR 0406
ENCODING 1030
SWIDTH 280 0
DWIDTH 7 0
BBX 3 18 2 0
BITMAP
E0
E0
E0
E0
E0
E0
E0
E0
E0
E0
E0
E0
E0
E0
E0
E0
E0
E0
ENDCHAR
STARTCHAR 0407
ENCODING 1031
SWIDTH 280 0
DWIDTH 7 0
BBX 8 23 0 0
BITMAP
E7
E7
E7
00
00
38
38
38
38
38
38
38
38
38
38
38
38
38
38
38
38
38
38
ENDCHAR
STARTCHAR 0408
ENCODING 1032
SWIDTH 560 0
DWIDTH 14 0
BBX 12 18 0 0
BITMAP
0070
0070
0070
0070
0070
0070
0070
0070
0070
0070
0070
0070
E070
E070
F0F0
7FE0
3FC0
1F80
ENDCHAR
STARTCHAR 0409
ENCODING 1033
SWIDTH 1080 0
DWIDTH 27 0
BBX 26 18 0 0
BITMAP
3FFC0000
3FFC0000
3FFC0000
381C0000
381C0000
381C0000
381C0000
381FFC00
381FFF00
381FFF80
381C03C0
381C01C0
381C01C0
381C01C0
381C03C0
F81FFF80
F01FFF00
E01FFE00
ENDCHAR
STARTCHAR 040A
ENCODING 1034
SWIDTH 1080 0
DWIDTH 27 0
BBX 24 18 2 0
BITMAP
E0E000
E0E000
E0E000
E0E000
E0E000
E0E000
E0E000
FFFFF0
FFFFFC
FFFFFE
E0E01F
E0E007
E0E007
E0E007
E0E00F
E0FFFE
E0FFFC
E0FFF8
ENDCHAR
STARTCHAR 040B
ENCODING 1035
SWIDTH 880 0
DWIDTH 22 0
BBX 20 18 0 0
BITMAP
FFF800
FFF800
FFF800
070000
070000
070000
077F00
07FFC0
07FFE0
0781F0
070070
070070
070070
070070
070070
070070
070070
070070
ENDCHAR
STARTCHAR 040C
ENCODING 1036
SWIDTH 600 0
DWIDTH 15 0
BBX 13 24 2 0
BITMAP
03C0
0780
0700
0E00
0000
0000
E078
E0F8
E1F8
E1C0
E380
E380
E700
EF00
FE00
FC00
FF00
E780
E3C0
E1C0
E0E0
E0F0
E070
E078
ENDCHAR
STARTCHAR 040E
ENCODING 1038
SWIDTH 640 0
DWIDTH 16 0
BBX 16 24 0 0
BITMAP
0C30
0E70
07E0
03C0
0000
0000
E007
F00F
700E
781E
381C
1C3C
1C38
0E78
0E70
07F0
07E0
03E0
01C0
03C0
0380
3F00
3F00
3E00
ENDCHAR
STARTCHAR 040F
ENCODING 1039
SWIDTH 760 0
DWIDTH 19 0
BBX 15 23 2 -5
BITMAP
E00E
E00E
E00E
E00E
E00E
E00E
E00E
E00E
E00E
E00E
E00E
E00E
E00E
E00E
E00E
FFFE
FFFE
FFFE
0380
0380
0380
0380
0380
ENDCHAR
STARTCHAR 0410
ENCODING 1040
SWIDTH 680 0
DWIDTH 17 0
BBX 17 18 0 0
BITMAP
03E000
03E000
03E000
077000
077000
0F7800
0E3800
0E3800
1E1C00
1C1C00
1C1C00
3FFE00
3FFE00
3FFE00
700700
700700
700700
E00380
ENDCHAR
STARTCHAR 0411
ENCODING 1041
SWIDTH 720 0
DWIDTH 18 0
BBX 15 18 2 0
BITMAP
FFF8
FFF8
FFF8
E000
E000
E000
E000
FFF0
FFF8
FFFC
E01E
E00E
E00E
E00E
E01E
FFFC
FFF8
FFF0
ENDCHAR
STARTCHAR 0412
ENCODING 1042
SWIDTH 720 0
DWIDTH 18 0
BBX 15 18 2 0
BITMAP
FFE0
FFF8
FFFC
E03C
E01C
E01C
E03C
FFF8
FFF8
FFFC
E01E
E00E
E00E
E00E
E01E
FFFC
FFF8
FFF0
ENDCHAR
STARTCHAR 0413
ENCODING 1043
SWIDTH 560 0
DWIDTH 14 0
BBX 12 18 2 0
BITMAP
FFF0
FFF0
FFF0
E000
E000
E000
E000
E000
E000
E000
E000
E000
E000
E000
E000
E000
E000
E000
ENDCHAR
STARTCHAR 0414
ENCODING 1044
SWIDTH 720 0
DWIDTH 18 0
BBX 17 22 0 -4
BITMAP
0FFE00
0FFE00
0FFE00
0E0E00
0E0E00
0E0E00
0E0E00
0E0E00
0E0E00
0E0E00
1C0E00
1C0E00
1C0E00
1C0E00
380E00
FFFF80
FFFF80
FFFF80
E00380
E00380
E00380
E00380
ENDCHAR
STARTCHAR 0415
ENCODING 1045
SWIDTH 680 0
DWIDTH 17 0
BBX 14 18 2 0
BITMAP
FFFC
FFFC
FFFC
E000
E000
E000
E000
FFF8
FFF8
FFF8
E000
E000
E000
E000
E000
FFFC
FFFC
FFFC
ENDCHAR
STARTCHAR 0416
ENCODING 1046
SWIDTH 840 0
DWIDTH 21 0
BBX 21 18 0 0
BITMAP
F07078
F870F8
FC71F8
1C71C0
1C71C0
0E7380
0F7380
07FF00
03FE00
0FFF80
0E7380
1E73C0
1C71C0
3870E0
3870E0
707070
707070
F07078
ENDCHAR
STARTCHAR 0417
ENCODING 1047
SWIDTH 640 0
DWIDTH 16 0
BBX 15 18 0 0
BITMAP
0FE0
3FF8
7FF8
F03C
601C
001C
0038
01F0
01F8
01FC
001E
000E
600E
F00E
783E
7FFC
3FF8
0FE0
ENDCHAR
STARTCHAR 0418
ENCODING 1048
SWIDTH 720 0
DWIDTH 18 0
BBX 14 18 2 0
BITMAP
E01C
E03C
E07C
E07C
E0FC
E0FC
E1DC
E3DC
E39C
E71C
EF1C
EE1C
FC1C
FC1C
F81C
F81C
F01C
E01C
ENDCHAR
STARTCHAR 0419
ENCODING 1049
SWIDTH 720 0
DWIDTH 18 0
BBX 14 24 2 0
BITMAP
1860
1CE0
0FC0
0780
0000
0000
E01C
E03C
E07C
E07C
E0FC
E0FC
E1DC
E3DC
E39C
E71C
EF1C
EE1C
FC1C
FC1C
F81C
F81C
F01C
E01C
ENDCHAR
STARTCHAR 041A
ENCODING 1050
SWIDTH 600 0
DWIDTH 15 0
BBX 13 18 2 0
BITMAP
E078
E0F8
E1F8
E1C0
E380
E380
E700
EF00
FE00
FC00
FF00
E780
E3C0
E1C0
E0E0
E0F0
E070
E078
ENDCHAR
STARTCHAR 041B
ENCODING 1051
SWIDTH 720 0
DWIDTH 18 0
BBX 16 18 0 0
BITMAP
1FFF
1FFF
1FFF
1C07
1C07
1C07
1C07
1C07
1C07
1C07
1C07
1C07
1C07
1C07
1C07
FC07
F807
F007
ENDCHAR
STARTCHAR 041C
ENCODING 1052
SWIDTH 840 0
DWIDTH 21 0
BBX 17 18 2 0
BITMAP
F80F80
F80F80
FC1F80
FC1F80
EC1B80
EE3B80
EE3B80
E63380
E63380
E77380
E77380
E36380
E36380
E3E380
E3E380
E1C380
E1C380
E1C380
ENDCHAR
STARTCHAR 041D
ENCODING 1053
SWIDTH 720 0
DWIDTH 18 0
BBX 14 18 2 0
BITMAP
E01C
E01C
E01C
E01C
E01C
E01C
E01C
FFFC
FFFC
FFFC
E01C
E01C
E01C
E01C
E01C
E01C
E01C
E01C
ENDCHAR
STARTCHAR 041E
ENCODING 1054
SWIDTH 760 0
DWIDTH 19 0
BBX 17 18 1 0
BITMAP
07F000
1FFC00
3FFE00
7C1F00
780F00
700700
E00380
E00380
E00380
E00380
E00380
E00380
700780
780F00
7C1F00
3FFE00
1FFC00
07F000
ENDCHAR
STARTCHAR 041F
ENCODING 1055
SWIDTH 720 0
DWIDTH 18 0
BBX 14 18 2 0
BITMAP
FFFC
FFFC
FFFC
E01C
E01C
E01C
E01C
E01C
E01C
E01C
E01C
E01C
E01C
E01C
E01C
E01C
E01C
E01C
ENDCHAR
STARTCHAR 0420
ENCODING 1056
SWIDTH 680 0
DWIDTH 17 0
BBX 14 18 2 0
BITMAP
FFE0
FFF0
FFF8
E03C
E01C
E01C
E01C
E03C
FFF8
FFF0
FFC0
E000
E000
E000
E000
E000
E000
E000
ENDCHAR
STARTCHAR 0421
ENCODING 1057
SWIDTH 720 0
DWIDTH 18 0
BBX 16 18 1 0
BITMAP
03F0
1FFC
3FFE
7C1E
700F
7006
E000
E000
E000
E000
E000
E006
F00F
700F
7C1E
3FFC
1FF8
07E0
ENDCHAR
STARTCHAR 0422
ENCODING 1058
SWIDTH 600 0
DWIDTH 15 0
BBX 13 18 1 0
BITMAP
FFF8
FFF8
FFF8
0700
0700
0700
0700
0700
0700
0700
0700
0700
0700
0700
0700
0700
0700
0700
ENDCHAR
STARTCHAR 0423
ENCODING 1059
SWIDTH 640 0
DWIDTH 16 0
BBX 16 18 0 0
BITMAP
E007
F00F
700E
781E
381C
1C3C
1C38
0E78
0E70
07F0
07E0
03E0
01C0
03C0
0380
3F00
3F00
3E00
ENDCHAR
STARTCHAR 0424
ENCODING 1060
SWIDTH 840 0
DWIDTH 21 0
BBX 19 18 1 0
BITMAP
00E000
00E000
07FC00
3FFF00
7FFFC0
78E3C0
F0E1E0
E0E0E0
E0E0E0
E0E0E0
E0E0E0
F0E1E0
78E3C0
7FFFC0
3FFF80
07FC00
00E000
00E000
ENDCHAR
STARTCHAR 0425
ENCODING 1061
SWIDTH 680 0
DWIDTH 17 0
BBX 15 18 1 0
BITMAP
701C
783C
3C78
1C70
1EF0
0EE0
07C0
07C0
0380
07C0
0FE0
0EE0
1C70
3C78
3838
783C
F01E
E00E
ENDCHAR
STARTCHAR 0426
ENCODING 1062
SWIDTH 720 0
DWIDTH 18 0
BBX 15 22 2 -4
BITMAP
E01C
E01C
E01C
E01C
E01C
E01C
E01C
E01C
E01C
E01C
E01C
E01C
E01C
E01C
E01C
FFFE
FFFE
FFFE
000E
000E
000E
000E
ENDCHAR
STARTCHAR 0427
ENCODING 1063
SWIDTH 720 0
DWIDTH 18 0
BBX 14 18 2 0
BITMAP
E01C
E01C
E01C
E01C
E01C
E01C
E01C
E01C
F03C
7FFC
3FFC
1FDC
001C
001C
001C
001C
001C
001C
ENDCHAR
STARTCHAR 0428
ENCODING 1064
SWIDTH 1000 0
DWIDTH 25 0
BBX 21 18 2 0
BITMAP
E07038
E07038
E07038
E07038
E07038
E07038
E07038
E07038
E07038
E07038
E07038
E07038
E07038
E07038
E07038
FFFFF8
FFFFF8
FFFFF8
ENDCHAR
STARTCHAR 0429
ENCODING 1065
SWIDTH 1000 0
DWIDTH 25 0
BBX 23 22 2 -4
BITMAP
E07038
E07038
E07038
E07038
E07038
E07038
E07038
E07038
E07038
E07038
E07038
E07038
E07038
E07038
E07038
FFFFFE
FFFFFE
FFFFFE
00000E
00000E
00000E
00000E
ENDCHAR
STARTCHAR 042A
ENCODING 1066
SWIDTH 880 0
DWIDTH 22 0
BBX 21 18 0 0
BITMAP
FF8000
FF8000
FF8000
038000
038000
038000
038000
03FF80
03FFE0
03FFF0
038078
038038
038038
038038
038078
03FFF0
03FFE0
03FFC0
ENDCHAR
STARTCHAR 042B
ENCODING 1067
SWIDTH 960 0
DWIDTH 24 0
BBX 20 18 2 0
BITMAP
E00070
E00070
E00070
E00070
E00070
E00070
E00070
FFE070
FFF870
FFFC70
E01E70
E00E70
E00E70
E00E70
E01E70
FFFC70
FFF870
FFF070
ENDCHAR
STARTCHAR 042C
ENCODING 1068
SWIDTH 720 0
DWIDTH 18 0
BBX 15 18 2 0
BITMAP
E000
E000
E000
E000
E000
E000
E000
FFE0
FFF8
FFFC
E01E
E00E
E00E
E00E
E01E
FFFC
FFF8
FFF0
ENDCHAR
STARTCHAR 042D
ENCODING 1069
SWIDTH 720 0
DWIDTH 18 0
BBX 16 18 1 0
BITMAP
0FE0
3FF8
7FFC
783C
F00E
600E
0007
03FF
03FF
03FF
0007
0007
600E
F00E
783E
7FFC
3FF8
0FE0
ENDCHAR
STARTCHAR 042E
ENCODING 1070
SWIDTH 1040 0
DWIDTH 26 0
BBX 23 18 2 0
BITMAP
E01FC0
E07FF0
E0FFF8
E1F07C
E1C01C
E3C01E
E3800E
FF800E
FF800E
FF800E
E3800E
E3800E
E1C01E
E1E01C
E0F07C
E0FFF8
E07FF0
E01FC0
ENDCHAR
STARTCHAR 042F
ENCODING 1071
SWIDTH 720 0
DWIDTH 18 0
BBX 15 18 1 0
BITMAP
0FFE
3FFE
3FFE
780E
700E
700E
780E
3FFE
1FFE
07FE
0F8E
0E0E
1E0E
3C0E
380E
780E
700E
F00E
ENDCHAR
STARTCHAR 0430
ENCODING 1072
SWIDTH 560 0
DWIDTH 14 0
BBX 12 14 1 0
BITMAP
1F80
7FC0
71E0
E0E0
00E0
03E0
1FE0
7CE0
F0E0
E0E0
E0E0
F1E0
7FE0
3E70
ENDCHAR
STARTCHAR 0431
ENCODING 1073
SWIDTH 600 0
DWIDTH 15 0
BBX 13 19 1 0
BITMAP
0030
0FF0
3FE0
7000
6000
CF80
DFE0
FFF0
F8F0
F078
E038
E038
E038
E038
F078
78F0
7FF0
3FE0
0F80
ENDCHAR
STARTCHAR 0432
ENCODING 1074
SWIDTH 600 0
DWIDTH 15 0
BBX 12 14 2 0
BITMAP
FFC0
FFE0
FFF0
E070
E070
FFE0
FFC0
FFE0
E0F0
E070
E0F0
FFF0
FFE0
FFC0
ENDCHAR
STARTCHAR 0433
ENCODING 1075
SWIDTH 400 0
DWIDTH 10 0
BBX 8 14 2 0
BITMAP
FF
FF
FF
E0
E0
E0
E0
E0
E0
E0
E0
E0
E0
E0
ENDCHAR
STARTCHAR 0434
ENCODING 1076
SWIDTH 640 0
DWIDTH 16 0
BBX 15 17 0 -3
BITMAP
1FFC
1FFC
1FFC
1C1C
1C1C
1C1C
1C1C
381C
381C
381C
701C
FFFE
FFFE
FFFE
E00E
E00E
E00E
ENDCHAR
STARTCHAR 0435
ENCODING 1077
SWIDTH 560 0
DWIDTH 14 0
BBX 12 14 1 0
BITMAP
0F00
3FC0
7FE0
70E0
E070
E070
FFF0
FFF0
E000
E000
7060
7FF0
3FE0
0F80
ENDCHAR
STARTCHAR 0436
ENCODING 1078
SWIDTH 680 0
DWIDTH 17 0
BBX 17 14 0 0
BITMAP
E1C380
F1C780
F9CF80
39CE00
1DDC00
0FF800
07F000
0FF800
1DDC00
39CE00
39CE00
71C700
71C700
E1C380
ENDCHAR
STARTCHAR 0437
ENCODING 1079
SWIDTH 480 0
DWIDTH 12 0
BBX 11 14 0 0
BITMAP
1F80
7FC0
7FE0
F0E0
60E0
07C0
0780
07C0
01E0
60E0
F1E0
7FE0
7FC0
1F00
ENDCHAR
STARTCHAR 0438
ENCODING 1080
SWIDTH 600 0
DWIDTH 15 0
BBX 11 14 2 0
BITMAP
E0E0
E1E0
E1E0
E3E0
E3E0
E6E0
E6E0
ECE0
FCE0
F8E0
F8E0
F0E0
F0E0
E0E0
ENDCHAR
STARTCHAR 0439
ENCODING 1081
SWIDTH 600 0
DWIDTH 15 0
BBX 11 20 2 0
BITMAP
30C0
39C0
1F80
0F00
0000
0000
E0E0
E1E0
E1E0
E3E0
E3E0
E6E0
E6E0
ECE0
FCE0
F8E0
F8E0
F0E0
F0E0
E0E0
ENDCHAR
STARTCHAR 043A
ENCODING 1082
SWIDTH 520 0
DWIDTH 13 0
BBX 11 14 2 0
BITMAP
E1C0
E3C0
E7C0
E700
E700
EE00
FE00
FC00
FF00
E700
E780
E3C0
E1C0
E1E0
ENDCHAR
STARTCHAR 043B
ENCODING 1083
SWIDTH 640 0
DWIDTH 16 0
BBX 14 14 0 0
BITMAP
1FFC
1FFC
1FFC
1C1C
1C1C
1C1C
1C1C
1C1C
1C1C
1C1C
1C1C
FC1C
F81C
F01C
ENDCHAR
STARTCHAR 043C
ENCODING 1084
SWIDTH 760 0
DWIDTH 19 0
BBX 15 14 2 0
BITMAP
F01E
F03E
F83E
F83E
FC7E
FC7E
EC6E
EEEE
EEEE
E6CE
E7CE
E7CE
E38E
E38E
ENDCHAR
STARTCHAR 043D
ENCODING 1085
SWIDTH 600 0
DWIDTH 15 0
BBX 11 14 2 0
BITMAP
E0E0
E0E0
E0E0
E0E0
E0E0
FFE0
FFE0
FFE0
E0E0
E0E0
E0E0
E0E0
E0E0
E0E0
ENDCHAR
STARTCHAR 043E
ENCODING 1086
SWIDTH 600 0
DWIDTH 15 0
BBX 13 14 1 0
BITMAP
0F80
3FE0
7FF0
78F0
F078
E038
E038
E038
E038
F078
78F0
7FF0
3FE0
0F80
ENDCHAR
STARTCHAR 043F
ENCODING 1087
SWIDTH 600 0
DWIDTH 15 0
BBX 11 14 2 0
BITMAP
FFE0
FFE0
FFE0
E0E0
E0E0
E0E0
E0E0
E0E0
E0E0
E0E0
E0E0
E0E0
E0E0
E0E0
ENDCHAR
STARTCHAR 0440
ENCODING 1088
SWIDTH 600 0
DWIDTH 15 0
BBX 12 19 2 -5
BITMAP
E780
FFC0
FFE0
F0E0
E0F0
E070
E070
E070
E070
F070
F0E0
FFE0
FFC0
E780
E000
E000
E000
E000
E000
ENDCHAR
STARTCHAR 0441
ENCODING 1089
SWIDTH 560 0
DWIDTH 14 0
BBX 12 14 1 0
BITMAP
0F80
3FE0
7FE0
70F0
E060
E000
E000
E000
E000
E060
70F0
7FE0
3FE0
0F80
ENDCHAR
STARTCHAR 0442
ENCODING 1090
SWIDTH 440 0
DWIDTH 11 0
BBX 11 14 0 0
BITMAP
FFE0
FFE0
FFE0
0E00
0E00
0E00
0E00
0E00
0E00
0E00
0E00
0E00
0E00
0E00
ENDCHAR
STARTCHAR 0443
ENCODING 1091
SWIDTH 520 0
DWIDTH 13 0
BBX 13 19 0 -5
BITMAP
E038
E038
7070
7070
7070
38E0
38E0
3DE0
1DC0
1DC0
0F80
0F80
0F80
0700
0700
0F00
7E00
7E00
7800
ENDCHAR
STARTCHAR 0444
ENCODING 1092
SWIDTH 920 0
DWIDTH 23 0
BBX 21 23 1 -5
BITMAP
007000
007000
007000
007000
1E73C0
3F77E0
7FFFF0
71FC70
F0F878
E07038
E07038
E07038
E07038
F0F878
71F870
7FFFF0
3F7FE0
1E73C0
007000
007000
007000
007000
007000
ENDCHAR
STARTCHAR 0445
ENCODING 1093
SWIDTH 560 0
DWIDTH 14 0
BBX 12 14 1 0
BITMAP
E070
70F0
70E0
39C0
3FC0
1F80
0F00
0F00
1F80
3FC0
39C0
70E0
F0F0
E070
ENDCHAR
STARTCHAR 0446
ENCODING 1094
SWIDTH 600 0
DWIDTH 15 0
BBX 12 17 2 -3
BITMAP
E0E0
E0E0
E0E0
E0E0
E0E0
E0E0
E0E0
E0E0
E0E0
E0E0
E0E0
FFF0
FFF0
FFF0
0070
0070
0070
ENDCHAR
STARTCHAR 0447
ENCODING 1095
SWIDTH 600 0
DWIDTH 15 0
BBX 11 14 2 0
BITMAP
E0E0
E0E0
E0E0
E0E0
E0E0
F0E0
7FE0
7FE0
1FE0
00E0
00E0
00E0
00E0
00E0
ENDCHAR
STARTCHAR 0448
ENCODING 1096
SWIDTH 840 0
DWIDTH 21 0
BBX 17 14 2 0
BITMAP
E1C380
E1C380
E1C380
E1C380
E1C380
E1C380
E1C380
E1C380
E1C380
E1C380
E1C380
FFFF80
FFFF80
FFFF80
ENDCHAR
STARTCHAR 0449
ENCODING 1097
SWIDTH 840 0
DWIDTH 21 0
BBX 18 17 2 -3
BITMAP
E1C380
E1C380
E1C380
E1C380
E1C380
E1C380
E1C380
E1C380
E1C380
E1C380
E1C380
FFFFC0
FFFFC0
FFFFC0
0001C0
0001C0
0001C0
ENDCHAR
STARTCHAR 044A
ENCODING 1098
SWIDTH 720 0
DWIDTH 18 0
BBX 15 14 2 0
BITMAP
FC00
FC00
FC00
1C00
1C00
1C00
1FF8
1FFC
1FFE
1C0E
1C0E
1FFE
1FFC
1FF8
ENDCHAR
STARTCHAR 044B
ENCODING 1099
SWIDTH 840 0
DWIDTH 21 0
BBX 17 14 2 0
BITMAP
E00380
E00380
E00380
E00380
E00380
FFC380
FFE380
FFF380
E0F380
E07380
E07380
FFF380
FFE380
FFC380
ENDCHAR
STARTCHAR 044C
ENCODING 1100
SWIDTH 600 0
DWIDTH 15 0
BBX 12 14 2 0
BITMAP
E000
E000
E000
E000
E000
FFC0
FFE0
FFF0
E0F0
E070
E070
FFF0
FFE0
FFC0
ENDCHAR
STARTCHAR 044D
ENCODING 1101
SWIDTH 560 0
DWIDTH 14 0
BBX 12 14 1 0
BITMAP
1F00
7FC0
7FE0
F0E0
6070
07F0
07F0
07F0
0070
6070
F0E0
7FE0
7FC0
1F80
ENDCHAR
STARTCHAR 044E
ENCODING 1102
SWIDTH 840 0
DWIDTH 21 0
BBX 18 14 2 0
BITMAP
E07C00
E0FF00
E1FF80
E1C380
E381C0
E381C0
FF81C0
FF81C0
FF81C0
E381C0
E3C380
E1FF80
E0FF00
E07E00
ENDCHAR
STARTCHAR 044F
ENCODING 1103
SWIDTH 600 0
DWIDTH 15 0
BBX 12 14 1 0
BITMAP
1FF0
3FF0
7FF0
7070
7070
7070
7FF0
3FF0
0FF0
1C70
3870
3870
7070
F070
ENDCHAR
STARTCHAR 0451
ENCODING 1105
SWIDTH 560 0
DWIDTH 14 0
BBX 12 19 1 0
BITMAP
39C0
39C0
39C0
0000
0000
0F00
3FC0
7FE0
70E0
E070
E070
FFF0
FFF0
E000
E000
7060
7FF0
3FE0
0F80
ENDCHAR
STARTCHAR 0452
ENCODING 1106
SWIDTH 600 0
DWIDTH 15 0
BBX 13 23 0 -5
BITMAP
3800
FF80
FF80
3800
39E0
3BF0
3FF8
3C78
3838
3838
3838
3838
3838
3838
3838
3838
3838
3838
0038
0038
01F8
01F0
01E0
ENDCHAR
STARTCHAR 0453
ENCODING 1107
SWIDTH 400 0
DWIDTH 10 0
BBX 8 20 2 0
BITMAP
1E
3C
38
70
00
00
FF
FF
FF
E0
E0
E0
E0
E0
E0
E0
E0
E0
E0
E0
ENDCHAR
STARTCHAR 0454
ENCODING 1108
SWIDTH 560 0
DWIDTH 14 0
BBX 12 14 1 0
BITMAP
0F80
3FE0
7FE0
70F0
E060
FE00
FE00
FE00
E000
E060
70F0
7FE0
3FE0
1F80
ENDCHAR
STARTCHAR 0455
ENCODING 1109
SWIDTH 560 0
DWIDTH 14 0
BBX 12 14 1 0
BITMAP
1F80
7FE0
F0F0
E060
F000
FE00
7FC0
3FE0
07F0
00F0
6070
F0F0
7FE0
1F80
ENDCHAR
STARTCHAR 0456
ENCODING 1110
SWIDTH 280 0
DWIDTH 7 0
BBX 3 18 2 0
BITMAP
E0
E0
00
00
E0
E0
E0
E0
E0
E0
E0
E0
E0
E0
E0
E0
E0
E0
ENDCHAR
STARTCHAR 0457
ENCODING 1111
SWIDTH 280 0
DWIDTH 7 0
BBX 8 19 0 0
BITMAP
E7
E7
E7
00
00
38
38
38
38
38
38
38
38
38
38
38
38
38
38
ENDCHAR
STARTCHAR 0458
ENCODING 1112
SWIDTH 280 0
DWIDTH 7 0
BBX 6 23 -1 -5
BITMAP
1C
1C
00
00
1C
1C
1C
1C
1C
1C
1C
1C
1C
1C
1C
1C
1C
1C
1C
1C
FC
F8
F0
ENDCHAR
STARTCHAR 0459
ENCODING 1113
SWIDTH 960 0
DWIDTH 24 0
BBX 23 14 0 0
BITMAP
1FFC00
1FFC00
1FFC00
1C1C00
1C1C00
1C1FF8
1C1FFC
1C1FFE
1C1C1E
1C1C0E
1C1C0E
FC1FFE
F81FFC
F01FF8
ENDCHAR
STARTCHAR 045A
ENCODING 1114
SWIDTH 920 0
DWIDTH 23 0
BBX 20 14 2 0
BITMAP
E0E000
E0E000
E0E000
E0E000
E0E000
FFFFC0
FFFFE0
FFFFF0
E0E070
E0E070
E0E0F0
E0FFF0
E0FFE0
E0FFC0
ENDCHAR
STARTCHAR 045B
ENCODING 1115
SWIDTH 600 0
DWIDTH 15 0
BBX 13 18 0 0
BITMAP
3800
FF80
FF80
3800
39E0
3BF0
3FF8
3C78
3838
3838
3838
3838
3838
3838
3838
3838
3838
3838
ENDCHAR
STARTCHAR 045C
ENCODING 1116
SWIDTH 520 0
DWIDTH 13 0
BBX 11 20 2 0
BITMAP
0780
0F00
0E00
1C00
0000
0000
E1C0
E3C0
E7C0
E700
E700
EE00
FE00
FC00
FF00
E700
E780
E3C0
E1C0
E1E0
ENDCHAR
STARTCHAR 045E
ENCODING 1118
SWIDTH 520 0
DWIDTH 13 0
BBX 13 25 0 -5
BITMAP
1860
1CE0
0FC0
0780
0000
0000
E038
E038
7070
7070
7070
38E0
38E0
3DE0
1DC0
1DC0
0F80
0F80
0F80
0700
0700
0F00
7E00
7E00
7800
ENDCHAR
STARTCHAR 045F
ENCODING 1119
SWIDTH 600 0
DWIDTH 15 0
BBX 11 17 2 -3
BITMAP
E0E0
E0E0
E0E0
E0E0
E0E0
E0E0
E0E0
E0E0
E0E0
E0E0
E0E0
FFE0
FFE0
FFE0
0E00
0E00
0E00
ENDCHAR
STARTCHAR 0490
ENCODING 1168
SWIDTH 480 0
DWIDTH 12 0
BBX 9 22 2 0
BITMAP
0380
0380
0380
0380
FF80
FF80
FF80
E000
E000
E000
E000
E000
E000
E000
E000
E000
E000
E000
E000
E000
E000
E000
ENDCHAR
STARTCHAR 0491
ENCODING 1169
SWIDTH 440 0
DWIDTH 11 0
BBX 8 17 2 0
BITMAP
07
07
07
FF
FF
FF
E0
E0
E0
E0
E0
E0
E0
E0
E0
E0
E0
ENDCHAR
STARTCHAR 0492
ENCODING 1170
SWIDTH 560 0
DWIDTH 14 0
BBX 14 18 0 0
BITMAP
3FFC
3FFC
3FFC
3800
3800
3800
3800
3800
FF80
FF80
FF80
3800
3800
3800
3800
3800
3800
3800
ENDCHAR
STARTCHAR 0493
ENCODING 1171
SWIDTH 400 0
DWIDTH 10 0
BBX 10 14 0 0
BITMAP
3FC0
3FC0
3FC0
3800
3800
3800
FE00
FE00
FE00
3800
3800
3800
3800
3800
ENDCHAR
STARTCHAR 0496
ENCODING 1174
SWIDTH 920 0
DWIDTH 23 0
BBX 21 22 1 -4
BITMAP
F07078
F870F8
FC71F8
1C71C0
1E73C0
0E7380
0F7780
07FF00
03FF00
0FFF80
1E73C0
1C71C0
3C70E0
3870E0
387070
707078
707078
E07038
000038
000038
000038
000038
ENDCHAR
STARTCHAR 0497
ENCODING 1175
SWIDTH 720 0
DWIDTH 18 0
BBX 17 17 0 -3
BITMAP
F1C780
F1C780
F9CF80
39CE00
1DDC00
1FFC00
0FF800
1FFC00
3DDE00
39CE00
79C700
71C780
71C780
E1C380
000380
000380
000380
ENDCHAR
STARTCHAR 049A
ENCODING 1178
SWIDTH 600 0
DWIDTH 15 0
BBX 12 22 2 -4
BITMAP
E0F0
E1F0
E3F0
E3C0
E380
E780
E700
FF00
FE00
FF00
E780
E380
E1C0
E1C0
E0E0
E0F0
E0F0
E070
0070
0070
0070
0070
ENDCHAR
STARTCHAR 049B
ENCODING 1179
SWIDTH 520 0
DWIDTH 13 0
BBX 11 17 2 -3
BITMAP
E1C0
E3C0
E7C0
E700
EF00
FE00
FC00
FF00
E780
E380
E3C0
E1E0
E1E0
E0E0
00E0
00E0
00E0
ENDCHAR
STARTCHAR 049C
ENCODING 1180
SWIDTH 600 0
DWIDTH 15 0
BBX 13 18 2 0
BITMAP
E078
E0F8
E9F8
EBC0
EF80
EF00
EF00
FE00
FE00
FF00
EF80
EFC0
EBC0
E9E0
E8E0
E0F0
E070
E078
ENDCHAR
STARTCHAR 049D
ENCODING 1181
SWIDTH 520 0
DWIDTH 13 0
BBX 11 14 2 0
BITMAP
E1C0
EBC0
EFC0
EF00
EF00
FE00
FC00
FE00
EF00
EF80
EB80
EBC0
E1C0
E1E0
ENDCHAR
STARTCHAR 04A2
ENCODING 1186
SWIDTH 720 0
DWIDTH 18 0
BBX 14 22 2 -4
BITMAP
E038
E038
E038
E038
E038
E038
E038
FFF8
FFF8
FFF8
E038
E038
E038
E038
E038
E03C
E03C
E03C
001C
001C
001C
001C
ENDCHAR
STARTCHAR 04A3
ENCODING 1187
SWIDTH 600 0
DWIDTH 15 0
BBX 12 17 2 -3
BITMAP
E0E0
E0E0
E0E0
E0E0
E0E0
FFE0
FFE0
FFE0
E0E0
E0E0
E0E0
E0F0
E0F0
E0F0
0070
0070
0070
ENDCHAR
STARTCHAR 04AE
ENCODING 1198
SWIDTH 560 0
DWIDTH 14 0
BBX 13 18 0 0
BITMAP
F078
7070
78F0
38E0
3DE0
1DC0
1FC0
0F80
0F80
0700
0700
0700
0700
0700
0700
0700
0700
0700
ENDCHAR
STARTCHAR 04AF
ENCODING 1199
SWIDTH 560 0
DWIDTH 14 0
BBX 13 19 0 -5
BITMAP
E038
7070
7070
7070
38E0
38E0
39E0
1DC0
1DC0
1FC0
0F80
0F80
0F80
0700
0700
0700
0700
0700
0700
ENDCHAR
STARTCHAR 04B0
ENCODING 1200
SWIDTH 560 0
DWIDTH 14 0
BBX 13 18 0 0
BITMAP
E078
7070
7070
38E0
38E0
1DC0
1DC0
1FC0
7FF0
7FF0
7FF0
0700
0700
0700
0700
0700
0700
0700
ENDCHAR
STARTCHAR 04B1
ENCODING 1201
SWIDTH 560 0
DWIDTH 14 0
BBX 13 20 0 -6
BITMAP
E038
7070
7070
7070
38E0
38E0
39E0
1DC0
1DC0
1FC0
0F80
0F80
0F80
0700
7FF0
7FF0
7FF0
0700
0700
0700
ENDCHAR
STARTCHAR 04B2
ENCODING 1202
SWIDTH 680 0
DWIDTH 17 0
BBX 18 22 -1 -4
BITMAP
780780
3C0F00
1E0E00
0E1C00
0F3C00
07F800
03F000
01E000
01E000
03F000
03F800
073800
0F3C00
1E1E00
1C0F00
3807C0
7807C0
F003C0
0001C0
0001C0
0001C0
0001C0
ENDCHAR
STARTCHAR 04B3
ENCODING 1203
SWIDTH 560 0
DWIDTH 14 0
BBX 13 17 1 -3
BITMAP
F0F0
78E0
39C0
3FC0
1F80
0F80
0F00
0F80
1F80
1FC0
3DE0
38F8
7078
F078
0038
0038
0038
ENDCHAR
STARTCHAR 04B8
ENCODING 1208
SWIDTH 720 0
DWIDTH 18 0
BBX 13 18 2 0
BITMAP
E038
E038
E038
E038
E638
E638
E638
E638
F678
7FF8
7FF8
1F38
0638
0638
0638
0038
0038
0038
ENDCHAR
STARTCHAR 04B9
ENCODING 1209
SWIDTH 600 0
DWIDTH 15 0
BBX 11 14 2 0
BITMAP
E0E0
E0E0
E0E0
E4E0
E4E0
F4E0
FFE0
7FE0
1FE0
04E0
04E0
04E0
00E0
00E0
ENDCHAR
STARTCHAR 04BA
ENCODING 1210
SWIDTH 720 0
DWIDTH 18 0
BBX 14 18 2 0
BITMAP
E000
E000
E000
E000
E000
E000
EFE0
FFF0
FFF8
F03C
E01C
E01C
E01C
E01C
E01C
E01C
E01C
E01C
ENDCHAR
STARTCHAR 04BB
ENCODING 1211
SWIDTH 600 0
DWIDTH 15 0
BBX 11 18 2 0
BITMAP
E000
E000
E000
E000
E780
EFC0
FFE0
F1E0
E0E0
E0E0
E0E0
E0E0
E0E0
E0E0
E0E0
E0E0
E0E0
E0E0
ENDCHAR
STARTCHAR 04D8
ENCODING 1240
SWIDTH 720 0
DWIDTH 18 0
BBX 16 18 1 0
BITMAP
0FE0
3FF8
7FFC
783C
F01E
600E
0007
0007
FFFF
FFFF
FFFF
E007
E007
700E
783E
3FFC
1FF8
07E0
ENDCHAR
STARTCHAR 04D9
ENCODING 1241
SWIDTH 560 0
DWIDTH 14 0
BBX 12 14 1 0
BITMAP
1F00
3FC0
7FE0
F0E0
E070
0070
FFF0
FFF0
FFF0
E070
70E0
7FE0
3FC0
0F80
ENDCHAR
STARTCHAR 04E8
ENCODING 1256
SWIDTH 760 0
DWIDTH 19 0
BBX 17 18 1 0
BITMAP
07F000
1FFC00
3FFE00
7C1F00
700700
F00700
E00380
FFFF80
FFFF80
FFFF80
E00380
E00380
F00780
780F00
7C1F00
3FFE00
1FFC00
07F000
ENDCHAR
STARTCHAR 04E9
ENCODING 1257
SWIDTH 600 0
DWIDTH 15 0
BBX 13 14 1 0
BITMAP
0F80
3FE0
7FF0
7070
E038
FFF8
FFF8
FFF8
E038
F078
78F0
7FF0
3FE0
0F80
ENDCHAR
STARTCHAR 05B0
ENCODING 1456
SWIDTH 320 0
DWIDTH 8 0
BBX 1 3 3 -5
BITMAP
80
00
80
ENDCHAR
STARTCHAR 05B1
ENCODING 1457
SWIDTH 320 0
DWIDTH 8 0
BBX 5 3 1 -5
BITMAP
A8
00
48
ENDCHAR
STARTCHAR 05B2
ENCODING 1458
SWIDTH 320 0
DWIDTH 8 0
BBX 7 3 0 -5
BITMAP
F2
00
02
ENDCHAR
STARTCHAR 05B3
ENCODING 1459
SWIDTH 320 0
DWIDTH 8 0
BBX 6 3 1 -5
BITMAP
E4
40
44
ENDCHAR
STARTCHAR 05B4
ENCODING 1460
SWIDTH 320 0
DWIDTH 8 0
BBX 1 1 3 -3
BITMAP
80
ENDCHAR
STARTCHAR 05B5
ENCODING 1461
SWIDTH 320 0
DWIDTH 8 0
BBX 4 1 2 -3
BITMAP
90
ENDCHAR
STARTCHAR 05B6
ENCODING 1462
SWIDTH 320 0
DWIDTH 8 0
BBX 4 3 2 -5
BITMAP
90
00
40
ENDCHAR
STARTCHAR 05B7
ENCODING 1463
SWIDTH 320 0
DWIDTH 8 0
BBX 5 1 2 -3
BITMAP
F8
ENDCHAR
STARTCHAR 05B8
ENCODING 1464
SWIDTH 320 0
DWIDTH 8 0
BBX 5 3 1 -5
BITMAP
F8
20
20
ENDCHAR
STARTCHAR 05B9
ENCODING 1465
SWIDTH 320 0
DWIDTH 8 0
BBX 1 1 3 16
BITMAP
80
ENDCHAR
STARTCHAR 05BA
ENCODING 1466
SWIDTH 320 0
DWIDTH 8 0
BBX 1 1 3 16
BITMAP
80
ENDCHAR
STARTCHAR 05BB
ENCODING 1467
SWIDTH 320 0
DWIDTH 8 0
BBX 5 3 1 -5
BITMAP
80
20
08
ENDCHAR
STARTCHAR 05BC
ENCODING 1468
SWIDTH 320 0
DWIDTH 8 0
BBX 1 1 3 6
BITMAP
80
ENDCHAR
STARTCHAR 05BD
ENCODING 1469
SWIDTH 320 0
DWIDTH 8 0
BBX 1 4 3 -5
BITMAP
80
80
80
80
ENDCHAR
STARTCHAR 05BE
ENCODING 1470
SWIDTH 440 0
DWIDTH 11 0
BBX 7 3 2 11
BITMAP
FE
FE
FE
ENDCHAR
STARTCHAR 05BF
ENCODING 1471
SWIDTH 320 0
DWIDTH 8 0
BBX 5 1 2 16
BITMAP
F8
ENDCHAR
STARTCHAR 05C0
ENCODING 1472
SWIDTH 280 0
DWIDTH 7 0
BBX 3 19 2 -3
BITMAP
E0
E0
E0
E0
E0
E0
E0
E0
E0
E0
E0
E0
E0
E0
E0
E0
E0
E0
E0
ENDCHAR
STARTCHAR 05C1
ENCODING 1473
SWIDTH 320 0
DWIDTH 8 0
BBX 1 1 9 16
BITMAP
80
ENDCHAR
STARTCHAR 05C2
ENCODING 1474
SWIDTH 320 0
DWIDTH 8 0
BBX 1 1 -2 16
BITMAP
80
ENDCHAR
STARTCHAR 05C3
ENCODING 1475
SWIDTH 280 0
DWIDTH 7 0
BBX 3 14 2 0
BITMAP
E0
E0
E0
00
00
00
00
00
00
00
00
E0
E0
E0
ENDCHAR
STARTCHAR 05D0
ENCODING 1488
SWIDTH 600 0
DWIDTH 15 0
BBX 14 14 1 0
BITMAP
F038
7838
3C38
1C38
1E70
3F70
7FE0
7BE0
73C0
F1E0
E0E0
E070
E078
E03C
ENDCHAR
STARTCHAR 05D1
ENCODING 1489
SWIDTH 560 0
DWIDTH 14 0
BBX 12 14 1 0
BITMAP
FE00
FF80
FF80
03C0
01C0
01C0
01C0
01C0
01C0
01C0
01C0
FFF0
FFF0
FFF0
ENDCHAR
STARTCHAR 05D2
ENCODING 1490
SWIDTH 440 0
DWIDTH 11 0
BBX 10 14 0 0
BITMAP
3E00
3F00
3F80
0780
0380
0380
0380
0380
0F80
1F80
3F80
79C0
71C0
E1C0
ENDCHAR
STARTCHAR 05D3
ENCODING 1491
SWIDTH 560 0
DWIDTH 14 0
BBX 12 14 1 0
BITMAP
FFF0
FFF0
FFF0
01C0
01C0
01C0
01C0
01C0
01C0
01C0
01C0
01C0
01C0
01C0
ENDCHAR
STARTCHAR 05D4
ENCODING 1492
SWIDTH 600 0
DWIDTH 15 0
BBX 11 14 2 0
BITMAP
FE00
FF80
FFC0
03C0
01E0
00E0
00E0
E0E0
E0E0
E0E0
E0E0
E0E0
E0E0
E0E0
ENDCHAR
STARTCHAR 05D5
ENCODING 1493
SWIDTH 280 0
DWIDTH 7 0
BBX 3 14 2 0
BITMAP
E0
E0
E0
E0
E0
E0
E0
E0
E0
E0
E0
E0
E0
E0
ENDCHAR
STARTCHAR 05D6
ENCODING 1494
SWIDTH 400 0
DWIDTH 10 0
BBX 9 14 1 0
BITMAP
FF80
FF80
FF80
0E00
0C00
1C00
1C00
1C00
1C00
1C00
1C00
1C00
1C00
1C00
ENDCHAR
STARTCHAR 05D7
ENCODING 1495
SWIDTH 600 0
DWIDTH 15 0
BBX 11 14 2 0
BITMAP
FF00
FF80
FFC0
E1E0
E0E0
E0E0
E0E0
E0E0
E0E0
E0E0
E0E0
E0E0
E0E0
E0E0
ENDCHAR
STARTCHAR 05D8
ENCODING 1496
SWIDTH 640 0
DWIDTH 16 0
BBX 12 14 2 0
BITMAP
E3C0
E7E0
E7F0
E270
E070
E070
E070
E070
E070
E070
70E0
7FE0
3FC0
0F00
ENDCHAR
STARTCHAR 05D9
ENCODING 1497
SWIDTH 280 0
DWIDTH 7 0
BBX 3 8 2 6
BITMAP
E0
E0
E0
E0
E0
E0
E0
E0
ENDCHAR
STARTCHAR 05DA
ENCODING 1498
SWIDTH 520 0
DWIDTH 13 0
BBX 11 19 0 -5
BITMAP
FE00
FF80
FFC0
03C0
01E0
00E0
00E0
00E0
00E0
00E0
00E0
00E0
00E0
00E0
00E0
00E0
00E0
00E0
00E0
ENDCHAR
STARTCHAR 05DB
ENCODING 1499
SWIDTH 480 0
DWIDTH 12 0
BBX 10 14 1 0
BITMAP
FC00
FF00
FF80
0780
03C0
01C0
01C0
01C0
01C0
03C0
0780
FF80
FF00
FC00
ENDCHAR
STARTCHAR 05DC
ENCODING 1500
SWIDTH 480 0
DWIDTH 12 0
BBX 10 18 1 0
BITMAP
E000
E000
E000
E000
FFC0
FFC0
FFC0
01C0
01C0
01C0
01C0
03C0
0380
0780
0700
0700
0700
0700
ENDCHAR
STARTCHAR 05DD
ENCODING 1501
SWIDTH 600 0
DWIDTH 15 0
BBX 11 14 2 0
BITMAP
FF00
FF80
FFC0
E1E0
E0E0
E0E0
E0E0
E0E0
E0E0
E0E0
E0E0
FFE0
FFE0
FFE0
ENDCHAR
STARTCHAR 05DE
ENCODING 1502
SWIDTH 640 0
DWIDTH 16 0
BBX 15 14 0 0
BITMAP
E1F0
67F8
77FC
7F1C
3E0E
3C0E
1C0E
1C0E
380E
380E
380E
78FE
70FE
70FE
ENDCHAR
STARTCHAR 05DF
ENCODING 1503
SWIDTH 280 0
DWIDTH 7 0
BBX 3 19 2 -5
BITMAP
E0
E0
E0
E0
E0
E0
E0
E0
E0
E0
E0
E0
E0
E0
E0
E0
E0
E0
E0
ENDCHAR
STARTCHAR 05E0
ENCODING 1504
SWIDTH 400 0
DWIDTH 10 0
BBX 7 14 1 0
BITMAP
F8
FC
FE
1E
0E
0E
0E
0E
0E
0E
0E
FE
FE
FE
ENDCHAR
STARTCHAR 05E1
ENCODING 1505
SWIDTH 600 0
DWIDTH 15 0
BBX 13 14 1 0
BITMAP
0F80
3FE0
7FF0
78F0
F078
E038
E038
E038
E038
F078
78F0
7FF0
3FE0
0F80
ENDCHAR
STARTCHAR 05E2
ENCODING 1506
SWIDTH 560 0
DWIDTH 14 0
BBX 13 16 0 -2
BITMAP
7038
7038
3838
3838
3838
3838
3838
1C38
1C38
1C70
1C70
1DE0
1FC0
FF80
FC00
E000
ENDCHAR
STARTCHAR 05E3
ENCODING 1507
SWIDTH 600 0
DWIDTH 15 0
BBX 12 19 1 -5
BITMAP
FF00
FFC0
FFE0
E1E0
E0F0
E070
E070
F870
7C70
3C70
0070
0070
0070
0070
0070
0070
0070
0070
0070
ENDCHAR
STARTCHAR 05E4
ENCODING 1508
SWIDTH 600 0
DWIDTH 15 0
BBX 13 14 1 0
BITMAP
7F00
FFC0
FFF0
E0F0
E078
F838
7C38
3C38
0038
0078
40F0
FFF0
FFC0
7F00
ENDCHAR
STARTCHAR 05E5
ENCODING 1509
SWIDTH 480 0
DWIDTH 12 0
BBX 11 19 0 -5
BITMAP
E0E0
70E0
70E0
38E0
39E0
1DC0
1FC0
0F80
0F00
0E00
0E00
0E00
0E00
0E00
0E00
0E00
0E00
0E00
0E00
ENDCHAR
STARTCHAR 05E6
ENCODING 1510
SWIDTH 520 0
DWIDTH 13 0
BBX 12 14 0 0
BITMAP
F070
7070
3870
3C70
1C70
0EE0
0FE0
07C0
0380
01C0
01C0
7FE0
7FF0
7FF0
ENDCHAR
STARTCHAR 05E7
ENCODING 1511
SWIDTH 560 0
DWIDTH 14 0
BBX 11 19 2 -5
BITMAP
FFE0
FFE0
FFE0
00E0
00E0
00E0
00E0
E1E0
E1C0
E3C0
E380
E380
E380
E380
E000
E000
E000
E000
E000
ENDCHAR
STARTCHAR 05E8
ENCODING 1512
SWIDTH 520 0
DWIDTH 13 0
BBX 11 14 0 0
BITMAP
FE00
FF80
FFC0
03C0
01E0
00E0
00E0
00E0
00E0
00E0
00E0
00E0
00E0
00E0
ENDCHAR
STARTCHAR 05E9
ENCODING 1513
SWIDTH 680 0
DWIDTH 17 0
BBX 15 14 1 0
BITMAP
E38E
E38E
E38E
E38E
E38E
E78E
FF1C
FF1C
7C1C
703C
7878
3FF8
1FF0
07C0
ENDCHAR
STARTCHAR 05EA
ENCODING 1514
SWIDTH 680 0
DWIDTH 17 0
BBX 14 14 1 0
BITMAP
FFE0
FFF8
FFF8
1C3C
1C1C
1C1C
1C1C
1C1C
1C1C
1C1C
1C1C
FC1C
FC1C
781C
ENDCHAR
STARTCHAR 05F0
ENCODING 1520
SWIDTH 560 0
DWIDTH 14 0
BBX 10 14 2 0
BITMAP
E1C0
E1C0
E1C0
E1C0
E1C0
E1C0
E1C0
E1C0
E1C0
E1C0
E1C0
E1C0
E1C0
E1C0
ENDCHAR
STARTCHAR 05F1
ENCODING 1521
SWIDTH 560 0
DWIDTH 14 0
BBX 10 14 2 0
BITMAP
E1C0
E1C0
E1C0
E1C0
E1C0
E1C0
E1C0
E1C0
01C0
01C0
01C0
01C0
01C0
01C0
ENDCHAR
STARTCHAR 05F2
ENCODING 1522
SWIDTH 560 0
DWIDTH 14 0
BBX 10 8 2 6
BITMAP
E1C0
E1C0
E1C0
E1C0
E1C0
E1C0
E1C0
E1C0
ENDCHAR
STARTCHAR 05F3
ENCODING 1523
SWIDTH 280 0
DWIDTH 7 0
BBX 5 5 1 9
BITMAP
78
70
F0
E0
C0
ENDCHAR
STARTCHAR 05F4
ENCODING 1524
SWIDTH 520 0
DWIDTH 13 0
BBX 11 5 1 9
BITMAP
79E0
71C0
F3C0
E380
C300
ENDCHAR
STARTCHAR 060C
ENCODING 1548
SWIDTH 320 0
DWIDTH 8 0
BBX 4 8 2 3
BITMAP
20
40
80
80
E0
F0
F0
60
ENDCHAR
STARTCHAR 061B
ENCODING 1563
SWIDTH 320 0
DWIDTH 8 0
BBX 4 12 2 3
BITMAP
20
40
80
80
E0
F0
F0
60
00
70
70
70
ENDCHAR
STARTCHAR 061F
ENCODING 1567
SWIDTH 360 0
DWIDTH 9 0
BBX 7 15 1 3
BITMAP
3C
62
C2
C6
E6
E0
70
30
10
10
00
00
38
38
38
ENDCHAR
STARTCHAR 0621
ENCODING 1569
SWIDTH 480 0
DWIDTH 12 0
BBX 9 12 2 1
BITMAP
1E00
3C00
7C00
4000
E380
FF80
7F00
3C00
3000
6000
C000
8000
ENDCHAR
STARTCHAR 0622
ENCODING 1570
SWIDTH 240 0
DWIDTH 6 0
BBX 5 19 1 3
BITMAP
88
70
00
00
20
20
60
60
60
60
70
30
30
30
30
30
30
20
20
ENDCHAR
STARTCHAR 0623
ENCODING 1571
SWIDTH 240 0
DWIDTH 6 0
BBX 4 20 1 3
BITMAP
60
80
60
80
00
20
20
60
60
60
60
70
30
30
30
30
30
30
20
20
ENDCHAR
STARTCHAR 0624
ENCODING 1572
SWIDTH 440 0
DWIDTH 11 0
BBX 11 19 0 -2
BITMAP
0600
0800
0600
0800
0000
00C0
01E0
03E0
0320
0320
03E0
03E0
01E0
0020
0060
00C0
C3C0
3F80
0E00
ENDCHAR
STARTCHAR 0625
ENCODING 1573
SWIDTH 240 0
DWIDTH 6 0
BBX 3 21 2 -3
BITMAP
40
40
C0
C0
C0
C0
E0
60
60
60
60
60
60
40
40
00
00
60
80
60
80
ENDCHAR
STARTCHAR 0626
ENCODING 1574
SWIDTH 640 0
DWIDTH 16 0
BBX 12 16 2 -2
BITMAP
3000
4000
3070
41F0
01F0
2310
4600
4400
87C0
83E0
8020
80E0
C3C0
FFC0
FF00
7C00
ENDCHAR
STARTCHAR 0627
ENCODING 1575
SWIDTH 240 0
DWIDTH 6 0
BBX 3 15 2 3
BITMAP
40
40
C0
C0
C0
C0
E0
60
60
60
60
60
60
40
40
ENDCHAR
STARTCHAR 0628
ENCODING 1576
SWIDTH 640 0
DWIDTH 16 0
BBX 15 14 1 -2
BITMAP
4004
C004
800E
8006
C002
FFFE
7FFE
3FFE
0000
0000
0100
01C0
0380
0080
ENDCHAR
STARTCHAR 0629
ENCODING 1577
SWIDTH 360 0
DWIDTH 9 0
BBX 7 15 1 3
BITMAP
08
5C
E8
40
00
20
38
7C
3E
5E
86
8E
FE
FC
70
ENDCHAR
STARTCHAR 062A
ENCODING 1578
SWIDTH 640 0
DWIDTH 16 0
BBX 15 11 1 4
BITMAP
0040
02E0
0740
4204
C004
800E
8006
C002
FFFE
7FFE
3FFE
ENDCHAR
STARTCHAR 062B
ENCODING 1579
SWIDTH 640 0
DWIDTH 16 0
BBX 15 13 1 4
BITMAP
0100
0380
0140
02E0
0740
4204
C004
800E
8006
C002
FFFE
7FFE
3FFE
ENDCHAR
STARTCHAR 062C
ENCODING 1580
SWIDTH 560 0
DWIDTH 14 0
BBX 13 18 1 -5
BITMAP
3FF0
7FF0
FFE0
8F80
1C00
3000
6000
6000
C100
C1C0
C380
C080
E000
F000
7C00
7FF8
3FF0
0FC0
ENDCHAR
STARTCHAR 062D
ENCODING 1581
SWIDTH 560 0
DWIDTH 14 0
BBX 13 18 1 -5
BITMAP
3FF0
7FF0
FFE0
8F80
1C00
3000
6000
6000
C000
C000
C000
C000
E000
F000
7C00
7FF8
3FF0
0FC0
ENDCHAR
STARTCHAR 062E
ENCODING 1582
SWIDTH 560 0
DWIDTH 14 0
BBX 13 24 1 -5
BITMAP
0400
0700
0E00
0200
0000
0000
3FF0
7FF0
FFE0
8F80
1C00
3000
6000
6000
C000
C000
C000
C000
E000
F000
7C00
7FF8
3FF0
0FC0
ENDCHAR
STARTCHAR 062F
ENCODING 1583
SWIDTH 360 0
DWIDTH 9 0
BBX 8 11 1 4
BITMAP
08
0C
0E
0E
07
03
01
81
FF
FF
FF
ENDCHAR
STARTCHAR 0630
ENCODING 1584
SWIDTH 360 0
DWIDTH 9 0
BBX 8 17 1 4
BITMAP
10
1C
38
08
00
00
08
0C
0E
0E
07
03
01
81
FF
FF
FF
ENDCHAR
STARTCHAR 0631
ENCODING 1585
SWIDTH 440 0
DWIDTH 11 0
BBX 11 14 0 -2
BITMAP
0040
0040
0060
0060
0060
0020
0020
0020
0060
00E0
01C0
C7C0
3F80
0E00
ENDCHAR
STARTCHAR 0632
ENCODING 1586
SWIDTH 440 0
DWIDTH 11 0
BBX 11 20 0 -2
BITMAP
0100
01C0
0380
0080
0000
0000
0040
0040
0060
0060
0060
0020
0020
0020
0060
00E0
01C0
C7C0
3F80
0E00
ENDCHAR
STARTCHAR 0633
ENCODING 1587
SWIDTH 880 0
DWIDTH 22 0
BBX 21 14 1 -2
BITMAP
002000
002008
207098
407098
403088
803FF8
801FF8
801F78
801000
C03000
E07000
7FE000
7FE000
1F8000
ENDCHAR
STARTCHAR 0634
ENCODING 1588
SWIDTH 880 0
DWIDTH 22 0
BBX 21 19 1 -2
BITMAP
000080
0001C0
0000A0
000170
0003A0
002100
002008
207098
407098
403088
803FF8
801FF8
801F78
801000
C03000
E07000
7FE000
7FE000
1F8000
ENDCHAR
STARTCHAR 0635
ENCODING 1589
SWIDTH 1080 0
DWIDTH 27 0
BBX 26 15 1 -2
BITMAP
00000780
00100FC0
00103FC0
203871C0
4038E0C0
401BC1C0
801FFFC0
800FFFC0
800FFFC0
80080000
C0180000
E0380000
7FF00000
7FE00000
1FC00000
ENDCHAR
STARTCHAR 0636
ENCODING 1590
SWIDTH 1080 0
DWIDTH 27 0
BBX 26 20 1 -2
BITMAP
00004000
00007000
0000E000
00002000
00000000
00000780
00100FC0
00103FC0
203871C0
4038E0C0
401BC1C0
801FFFC0
800FFFC0
800FFFC0
80080000
C0180000
E0380000
7FF00000
7FE00000
1FC00000
ENDCHAR
STARTCHAR 0637
ENCODING 1591
SWIDTH 520 0
DWIDTH 13 0
BBX 14 16 -1 4
BITMAP
1000
1C00
3C00
3C00
1C00
1800
1800
0C78
0CFC
0FFC
0F1C
1E0C
381C
FFFC
FFFC
FFFC
ENDCHAR
STARTCHAR 0638
ENCODING 1592
SWIDTH 520 0
DWIDTH 13 0
BBX 14 16 -1 4
BITMAP
1000
1C00
3C80
3CE0
1DC0
1840
1800
0C78
0CFC
0FFC
0F1C
1E0C
381C
FFFC
FFFC
FFFC
ENDCHAR
STARTCHAR 0639
ENCODING 1593
SWIDTH 560 0
DWIDTH 14 0
BBX 13 20 1 -5
BITMAP
1F00
3F80
3000
6000
6060
71E0
7FC0
3F00
3800
7000
4000
C000
8000
8000
8000
C000
F800
7FF8
3FF0
0F80
ENDCHAR
STARTCHAR 063A
ENCODING 1594
SWIDTH 560 0
DWIDTH 14 0
BBX 13 26 1 -5
BITMAP
0800
0E00
1C00
0400
0000
0000
1F00
3F80
3000
6000
6060
71E0
7FC0
3F00
3800
7000
4000
C000
8000
8000
8000
C000
F800
7FF8
3FF0
0F80
ENDCHAR
STARTCHAR 0640
ENCODING 1600
SWIDTH 200 0
DWIDTH 5 0
BBX 6 3 -1 4
BITMAP
FC
FC
FC
ENDCHAR
STARTCHAR 0641
ENCODING 1601
SWIDTH 760 0
DWIDTH 19 0
BBX 18 16 1 4
BITMAP
000200
000380
000700
000100
000000
000000
000300
400780
4007C0
800DC0
800CC0
800EC0
C00FC0
FFFFC0
FFFFC0
3FFFC0
ENDCHAR
STARTCHAR 0642
ENCODING 1602
SWIDTH 600 0
DWIDTH 15 0
BBX 14 20 1 -3
BITMAP
0010
00B8
01D0
0080
0000
0030
0078
0078
009C
109C
20FC
60FC
407C
C004
C004
C00C
F03C
FFF8
7FF0
1FC0
ENDCHAR
STARTCHAR 0643
ENCODING 1603
SWIDTH 560 0
DWIDTH 14 0
BBX 13 15 1 4
BITMAP
0020
0020
0078
0178
0318
0410
0790
4790
8190
8F08
8008
C008
FFF8
7FF8
3FF8
ENDCHAR
STARTCHAR 0644
ENCODING 1604
SWIDTH 440 0
DWIDTH 11 0
BBX 10 20 1 -1
BITMAP
0100
0100
03C0
03C0
00C0
0080
0080
0080
0080
0040
2040
4040
4040
8040
8040
80C0
C1C0
FF80
7F00
3E00
ENDCHAR
STARTCHAR 0645
ENCODING 1605
SWIDTH 360 0
DWIDTH 9 0
BBX 8 16 1 -5
BITMAP
18
3C
4E
07
07
7F
FF
C0
80
80
C0
40
40
40
40
40
ENDCHAR
STARTCHAR 0646
ENCODING 1606
SWIDTH 560 0
DWIDTH 14 0
BBX 13 18 1 -2
BITMAP
0200
0380
0700
0100
0010
0010
2038
4038
4018
8018
8008
8008
8008
C018
E038
7FF0
7FF0
1FC0
ENDCHAR
STARTCHAR 0647
ENCODING 1607
SWIDTH 360 0
DWIDTH 9 0
BBX 7 10 1 3
BITMAP
20
38
7C
3E
5E
86
8E
FE
FC
70
ENDCHAR
STARTCHAR 0648
ENCODING 1608
SWIDTH 440 0
DWIDTH 11 0
BBX 11 14 0 -2
BITMAP
00C0
01E0
03E0
0320
0320
03E0
03E0
01E0
0020
0060
00C0
C3C0
3F80
0E00
ENDCHAR
STARTCHAR 0649
ENCODING 1609
SWIDTH 640 0
DWIDTH 16 0
BBX 12 14 2 -2
BITMAP
0070
01F0
01F0
2310
4600
4400
87C0
83E0
8020
80E0
C3C0
FFC0
FF00
7C00
ENDCHAR
STARTCHAR 064A
ENCODING 1610
SWIDTH 640 0
DWIDTH 16 0
BBX 12 17 2 -5
BITMAP
0070
01F0
03F0
2310
4400
47C0
83E0
8020
80E0
C3C0
FFC0
FF00
7C00
0100
0B80
1D00
0800
ENDCHAR
STARTCHAR 064B
ENCODING 1611
SWIDTH 200 0
DWIDTH 5 0
BBX 4 4 1 17
BITMAP
30
C0
30
C0
ENDCHAR
STARTCHAR 064C
ENCODING 1612
SWIDTH 240 0
DWIDTH 6 0
BBX 6 5 0 17
BITMAP
0C
14
D8
54
60
ENDCHAR
STARTCHAR 064D
ENCODING 1613
SWIDTH 200 0
DWIDTH 5 0
BBX 4 4 1 -3
BITMAP
30
C0
30
C0
ENDCHAR
STARTCHAR 064E
ENCODING 1614
SWIDTH 200 0
DWIDTH 5 0
BBX 4 2 1 17
BITMAP
30
C0
ENDCHAR
STARTCHAR 064F
ENCODING 1615
SWIDTH 200 0
DWIDTH 5 0
BBX 4 5 1 17
BITMAP
30
50
70
50
80
ENDCHAR
STARTCHAR 0650
ENCODING 1616
SWIDTH 200 0
DWIDTH 5 0
BBX 4 2 1 -1
BITMAP
30
C0
ENDCHAR
STARTCHAR 0651
ENCODING 1617
SWIDTH 200 0
DWIDTH 5 0
BBX 5 4 0 17
BITMAP
08
28
B0
C0
ENDCHAR
STARTCHAR 0652
ENCODING 1618
SWIDTH 160 0
DWIDTH 4 0
BBX 3 4 1 17
BITMAP
40
A0
A0
C0
ENDCHAR
STARTCHAR 0653
ENCODING 1619
SWIDTH 240 0
DWIDTH 6 0
BBX 6 2 0 19
BITMAP
E0
3C
ENDCHAR
STARTCHAR 0654
ENCODING 1620
SWIDTH 200 0
DWIDTH 5 0
BBX 3 4 1 18
BITMAP
60
80
60
80
ENDCHAR
STARTCHAR 0655
ENCODING 1621
SWIDTH 200 0
DWIDTH 5 0
BBX 3 4 1 -3
BITMAP
60
80
60
80
ENDCHAR
STARTCHAR 0660
ENCODING 1632
SWIDTH 560 0
DWIDTH 14 0
BBX 4 6 5 5
BITMAP
40
60
F0
F0
60
20
ENDCHAR
STARTCHAR 0661
ENCODING 1633
SWIDTH 560 0
DWIDTH 14 0
BBX 5 14 4 4
BITMAP
40
60
E0
F0
70
30
38
18
18
18
08
08
08
08
ENDCHAR
STARTCHAR 0662
ENCODING 1634
SWIDTH 560 0
DWIDTH 14 0
BBX 7 14 3 4
BITMAP
42
62
FE
FE
7E
7C
30
38
18
18
08
08
08
08
ENDCHAR
STARTCHAR 0663
ENCODING 1635
SWIDTH 560 0
DWIDTH 14 0
BBX 10 14 2 4
BITMAP
4240
67C0
FFC0
FFC0
7D80
3C00
3000
1800
1800
0800
0800
0800
0800
0800
ENDCHAR
STARTCHAR 0664
ENCODING 1636
SWIDTH 560 0
DWIDTH 14 0
BBX 6 14 4 4
BITMAP
08
18
38
60
70
FC
F8
70
20
40
E0
FC
FC
38
ENDCHAR
STARTCHAR 0665
ENCODING 1637
SWIDTH 560 0
DWIDTH 14 0
BBX 8 9 3 6
BITMAP
1C
3E
7F
4F
C3
E3
FE
FE
78
ENDCHAR
STARTCHAR 0666
ENCODING 1638
SWIDTH 560 0
DWIDTH 14 0
BBX 8 14 3 4
BITMAP
80
FC
FC
FC
7C
04
04
04
06
06
07
07
03
01
ENDCHAR
STARTCHAR 0667
ENCODING 1639
SWIDTH 560 0
DWIDTH 14 0
BBX 9 14 2 4
BITMAP
8080
C180
C180
E380
E380
6300
3600
3600
1400
1400
1C00
1800
0800
0800
ENDCHAR
STARTCHAR 0668
ENCODING 1640
SWIDTH 560 0
DWIDTH 14 0
BBX 9 14 2 4
BITMAP
0800
0800
0C00
1C00
1400
1400
3600
3600
6300
E380
E380
C180
C180
8080
ENDCHAR
STARTCHAR 0669
ENCODING 1641
SWIDTH 560 0
DWIDTH 14 0
BBX 8 14 3 4
BITMAP
38
7C
7C
CC
CC
FC
FC
7C
0C
0E
0F
0F
06
02
ENDCHAR
STARTCHAR 066A
ENCODING 1642
SWIDTH 520 0
DWIDTH 13 0
BBX 9 17 2 2
BITMAP
7080
7100
7100
0200
0200
0400
0400
0800
0800
0800
1000
1000
2000
2000
4700
4700
8700
ENDCHAR
STARTCHAR 066B
ENCODING 1643
SWIDTH 320 0
DWIDTH 8 0
BBX 3 6 3 0
BITMAP
E0
E0
E0
60
C0
80
ENDCHAR
STARTCHAR 066C
ENCODING 1644
SWIDTH 320 0
DWIDTH 8 0
BBX 4 8 2 3
BITMAP
20
40
80
80
E0
F0
F0
60
ENDCHAR
STARTCHAR 066D
ENCODING 1645
SWIDTH 520 0
DWIDTH 13 0
BBX 9 9 2 10
BITMAP
0800
6B00
6B00
1C00
F780
1C00
6B00
6B00
0800
ENDCHAR
STARTCHAR 066E
ENCODING 1646
SWIDTH 640 0
DWIDTH 16 0
BBX 15 8 1 4
BITMAP
4004
C004
800E
8006
C002
FFFE
7FFE
3FFE
ENDCHAR
STARTCHAR 066F
ENCODING 1647
SWIDTH 600 0
DWIDTH 15 0
BBX 14 15 1 -3
BITMAP
0030
0078
0078
009C
109C
20FC
60FC
407C
C004
C004
C00C
F03C
FFF8
7FF0
1FC0
ENDCHAR
STARTCHAR 0670
ENCODING 1648
SWIDTH 0 0
DWIDTH 0 0
BBX 2 7 -1 13
BITMAP
80
80
C0
40
40
40
40
ENDCHAR
STARTCHAR 0671
ENCODING 1649
SWIDTH 240 0
DWIDTH 6 0
BBX 5 19 1 3
BITMAP
38
68
F0
80
20
20
60
60
60
60
70
30
30
30
30
30
30
20
20
ENDCHAR
STARTCHAR 0672
ENCODING 1650
SWIDTH 240 0
DWIDTH 6 0
BBX 5 19 0 3
BITMAP
18
20
18
E0
10
10
30
30
30
30
38
18
18
18
18
18
18
10
10
ENDCHAR
STARTCHAR 0673
ENCODING 1651
SWIDTH 240 0
DWIDTH 6 0
BBX 5 21 0 -3
BITMAP
10
10
30
30
30
30
38
18
18
18
18
18
18
10
10
00
00
18
20
18
E0
ENDCHAR
STARTCHAR 0674
ENCODING 1652
SWIDTH 200 0
DWIDTH 5 0
BBX 3 4 1 18
BITMAP
60
80
60
80
ENDCHAR
STARTCHAR 0675
ENCODING 1653
SWIDTH 240 0
DWIDTH 6 0
BBX 6 15 2 3
BITMAP
4C
50
CC
D0
C0
C0
E0
60
60
60
60
60
60
40
40
ENDCHAR
STARTCHAR 0676
ENCODING 1654
SWIDTH 440 0
DWIDTH 11 0
BBX 12 19 0 -2
BITMAP
0030
0040
0030
0040
0000
00C0
01E0
03E0
0320
0320
03E0
03E0
01E0
0020
0060
00C0
C3C0
3F80
0E00
ENDCHAR
STARTCHAR 0677
ENCODING 1655
SWIDTH 440 0
DWIDTH 11 0
BBX 12 20 0 -2
BITMAP
0300
0530
0740
0530
0840
0000
00C0
01E0
03E0
0320
0320
03E0
03E0
01E0
0020
0060
00C0
C3C0
3F80
0E00
ENDCHAR
STARTCHAR 0678
ENCODING 1656
SWIDTH 640 0
DWIDTH 16 0
BBX 13 19 2 -2
BITMAP
0018
0020
0018
0020
0000
0070
01F0
01F0
2310
4600
4400
87C0
83E0
8020
80E0
C3C0
FFC0
FF00
7C00
ENDCHAR
STARTCHAR 0679
ENCODING 1657
SWIDTH 640 0
DWIDTH 16 0
BBX 15 17 1 4
BITMAP
0C00
0600
0400
02C0
03E0
0620
0FE0
0FE0
0000
4004
C004
800E
8006
C002
FFFE
7FFE
3FFE
ENDCHAR
STARTCHAR 067A
ENCODING 1658
SWIDTH 640 0
DWIDTH 16 0
BBX 15 14 1 4
BITMAP
0100
0380
0100
0080
01C0
0080
4004
C004
800E
8006
C002
FFFE
7FFE
3FFE
ENDCHAR
STARTCHAR 067B
ENCODING 1659
SWIDTH 640 0
DWIDTH 16 0
BBX 15 16 1 -4
BITMAP
4004
C004
800E
8006
C002
FFFE
7FFE
3FFE
0000
0000
0080
01C0
0080
0040
00E0
0040
ENDCHAR
STARTCHAR 067C
ENCODING 1660
SWIDTH 640 0
DWIDTH 16 0
BBX 15 14 1 1
BITMAP
0040
02E0
0740
4204
C004
800E
8006
C002
FFFE
7FFE
3FFE
0140
0140
0180
ENDCHAR
STARTCHAR 067D
ENCODING 1661
SWIDTH 640 0
DWIDTH 16 0
BBX 15 13 1 4
BITMAP
0080
05C0
0E80
0480
01C0
4084
C004
800E
8006
C002
FFFE
7FFE
3FFE
ENDCHAR
STARTCHAR 067E
ENCODING 1662
SWIDTH 640 0
DWIDTH 16 0
BBX 15 16 1 -4
BITMAP
4004
C004
800E
8006
C002
FFFE
7FFE
3FFE
0000
0000
0040
02E0
0740
0240
00E0
0040
ENDCHAR
STARTCHAR 067F
ENCODING 1663
SWIDTH 640 0
DWIDTH 16 0
BBX 15 15 1 4
BITMAP
0080
05C0
0E80
0440
02E0
0740
0200
4004
C004
800E
8006
C002
FFFE
7FFE
3FFE
ENDCHAR
STARTCHAR 0680
ENCODING 1664
SWIDTH 640 0
DWIDTH 16 0
BBX 15 17 1 -5
BITMAP
4004
C004
800E
8006
C002
FFFE
7FFE
3FFE
0000
0000
0040
02E0
0740
0220
0170
03A0
0100
ENDCHAR
STARTCHAR 0681
ENCODING 1665
SWIDTH 560 0
DWIDTH 14 0
BBX 13 23 1 -5
BITMAP
0180
0200
0180
0200
0000
3FF0
7FF0
FFE0
8F80
1C00
3000
6000
6000
C000
C000
C000
C000
E000
F000
7C00
7FF8
3FF0
0FC0
ENDCHAR
STARTCHAR 0682
ENCODING 1666
SWIDTH 560 0
DWIDTH 14 0
BBX 13 26 1 -5
BITMAP
0400
0E00
0400
0200
0700
0200
0000
0000
3FF0
7FF0
FFE0
8F80
1C00
3000
6000
6000
C000
C000
C000
C000
E000
F000
7C00
7FF8
3FF0
0FC0
ENDCHAR
STARTCHAR 0683
ENCODING 1667
SWIDTH 560 0
DWIDTH 14 0
BBX 13 18 1 -5
BITMAP
3FF0
7FF0
FFE0
8F80
1C00
3000
6000
6040
C2E0
C740
C200
C000
E000
F000
7C00
7FF8
3FF0
0FC0
ENDCHAR
STARTCHAR 0684
ENCODING 1668
SWIDTH 560 0
DWIDTH 14 0
BBX 13 18 1 -5
BITMAP
3FF0
7FF0
FFE0
8F80
1C00
3000
6000
6100
C380
C100
C080
C1C0
E080
F000
7C00
7FF8
3FF0
0FC0
ENDCHAR
STARTCHAR 0685
ENCODING 1669
SWIDTH 560 0
DWIDTH 14 0
BBX 13 26 1 -5
BITMAP
0200
0700
0280
05C0
0E80
0400
0000
0000
3FF0
7FF0
FFE0
8F80
1C00
3000
6000
6000
C000
C000
C000
C000
E000
F000
7C00
7FF8
3FF0
0FC0
ENDCHAR
STARTCHAR 0686
ENCODING 1670
SWIDTH 560 0
DWIDTH 14 0
BBX 13 18 1 -5
BITMAP
3FF0
7FF0
FFE0
8F80
1C00
3000
6080
65C0
CE80
C480
C1C0
C080
E000
F000
7C00
7FF8
3FF0
0FC0
ENDCHAR
STARTCHAR 0687
ENCODING 1671
SWIDTH 560 0
DWIDTH 14 0
BBX 13 18 1 -5
BITMAP
3FF0
7FF0
FFE0
8F80
1C00
3000
6080
65C0
CE80
C440
C2E0
C740
E200
F000
7C00
7FF8
3FF0
0FC0
ENDCHAR
STARTCHAR 0688
ENCODING 1672
SWIDTH 360 0
DWIDTH 9 0
BBX 8 18 1 4
BITMAP
C0
60
40
2C
3E
62
FE
FE
08
0E
0E
0F
03
03
81
FF
FF
FF
ENDCHAR
STARTCHAR 0689
ENCODING 1673
SWIDTH 360 0
DWIDTH 9 0
BBX 8 14 1 1
BITMAP
08
0C
0E
0E
07
03
01
81
FF
FF
FF
14
14
18
ENDCHAR
STARTCHAR 068A
ENCODING 1674
SWIDTH 360 0
DWIDTH 9 0
BBX 8 17 1 -2
BITMAP
08
0C
0E
0E
07
03
01
81
FF
FF
FF
00
00
10
1C
38
08
ENDCHAR
STARTCHAR 068B
ENCODING 1675
SWIDTH 360 0
DWIDTH 9 0
BBX 8 24 1 -2
BITMAP
C0
60
40
2C
3E
62
FE
FE
08
0E
0E
0F
03
03
81
FF
FF
FF
00
00
10
1C
38
08
ENDCHAR
STARTCHAR 068C
ENCODING 1676
SWIDTH 360 0
DWIDTH 9 0
BBX 8 17 1 4
BITMAP
04
2E
74
20
00
00
08
0C
0E
0E
07
03
01
81
FF
FF
FF
ENDCHAR
STARTCHAR 068D
ENCODING 1677
SWIDTH 360 0
DWIDTH 9 0
BBX 8 17 1 -2
BITMAP
08
0C
0E
0E
07
03
01
81
FF
FF
FF
00
00
04
2E
74
20
ENDCHAR
STARTCHAR 068E
ENCODING 1678
SWIDTH 360 0
DWIDTH 9 0
BBX 8 18 1 4
BITMAP
10
38
14
2E
74
20
00
00
08
0E
0E
0F
03
03
81
FF
FF
FF
ENDCHAR
STARTCHAR 068F
ENCODING 1679
SWIDTH 360 0
DWIDTH 9 0
BBX 8 19 1 4
BITMAP
08
5C
E8
48
1C
08
00
00
00
08
0E
0E
0F
03
03
81
FF
FF
FF
ENDCHAR
STARTCHAR 0690
ENCODING 1680
SWIDTH 360 0
DWIDTH 9 0
BBX 8 18 1 4
BITMAP
08
5C
E8
44
2E
74
20
00
08
0E
0E
0F
03
03
81
FF
FF
FF
ENDCHAR
STARTCHAR 0691
ENCODING 1681
SWIDTH 440 0
DWIDTH 11 0
BBX 11 23 0 -2
BITMAP
0C00
0600
0400
02C0
03E0
0620
0FE0
0FE0
0000
0040
0040
0060
0060
0060
0020
0020
0020
0060
00E0
01C0
C7C0
3F80
0E00
ENDCHAR
STARTCHAR 0692
ENCODING 1682
SWIDTH 440 0
DWIDTH 11 0
BBX 11 19 0 -2
BITMAP
0220
0140
0080
0000
0000
0040
0040
0060
0060
0060
0020
0020
0020
0060
00E0
01C0
C7C0
3F80
0E00
ENDCHAR
STARTCHAR 0693
ENCODING 1683
SWIDTH 440 0
DWIDTH 11 0
BBX 11 15 0 -3
BITMAP
0040
0040
0060
0060
0060
0020
0020
0020
0060
00E0
01C0
C7C0
3FA0
0EA0
00C0
ENDCHAR
STARTCHAR 0694
ENCODING 1684
SWIDTH 440 0
DWIDTH 11 0
BBX 12 17 0 -5
BITMAP
0040
0040
0060
0060
0060
0020
0020
0020
0060
00E0
01C0
C7C0
3F80
0E40
0070
00E0
0020
ENDCHAR
STARTCHAR 0695
ENCODING 1685
SWIDTH 440 0
DWIDTH 11 0
BBX 13 17 0 -5
BITMAP
0040
0040
0060
0060
0060
0020
0020
0020
0060
00E0
01C0
C7C0
3F80
0E00
0088
0050
0020
ENDCHAR
STARTCHAR 0696
ENCODING 1686
SWIDTH 440 0
DWIDTH 11 0
BBX 12 17 0 -5
BITMAP
0040
0040
0060
0060
0060
0420
0720
0E20
0260
00E0
01C0
C7C0
3F80
0E40
0070
00E0
0020
ENDCHAR
STARTCHAR 0697
ENCODING 1687
SWIDTH 440 0
DWIDTH 11 0
BBX 12 19 0 -2
BITMAP
0020
0170
03A0
0100
0000
0040
0040
0060
0060
0060
0020
0020
0020
0060
00E0
01C0
C7C0
3F80
0E00
ENDCHAR
STARTCHAR 0698
ENCODING 1688
SWIDTH 440 0
DWIDTH 11 0
BBX 11 21 0 -2
BITMAP
0100
0380
0140
02E0
0740
0200
0000
0040
0040
0060
0060
0060
0020
0020
0020
0060
00E0
01C0
C7C0
3F80
0E00
ENDCHAR
STARTCHAR 0699
ENCODING 1689
SWIDTH 440 0
DWIDTH 11 0
BBX 12 22 0 -2
BITMAP
0040
02E0
0740
0220
0170
03A0
0100
0000
0040
0040
0060
0060
0060
0020
0020
0020
0060
00E0
01C0
C7C0
3F80
0E00
ENDCHAR
STARTCHAR 069A
ENCODING 1690
SWIDTH 880 0
DWIDTH 22 0
BBX 21 17 1 -2
BITMAP
000200
000380
000700
002100
002008
207098
407098
403088
803FF8
801FF8
801F78
801000
C03000
E07080
7FE0E0
7FE1C0
1F8040
ENDCHAR
STARTCHAR 069B
ENCODING 1691
SWIDTH 880 0
DWIDTH 22 0
BBX 21 16 1 -4
BITMAP
002000
002008
207098
407098
403088
803FF8
801FF8
801F78
801000
C03000
E07020
7FE170
7FE3A0
1F8120
000070
000020
ENDCHAR
STARTCHAR 069C
ENCODING 1692
SWIDTH 880 0
DWIDTH 22 0
BBX 21 21 1 -4
BITMAP
000080
0001C0
0000A0
000170
0003A0
002100
002008
207098
407098
403088
803FF8
801FF8
801F78
801000
C03000
E07020
7FE170
7FE3A0
1F8120
000070
000020
ENDCHAR
STARTCHAR 069D
ENCODING 1693
SWIDTH 1080 0
DWIDTH 27 0
BBX 26 15 1 -2
BITMAP
00000780
00100FC0
00103FC0
203871C0
4038E0C0
401BC1C0
801FFFC0
800FFFC0
800FFFC0
80080000
C0180000
E0380400
7FF02E00
7FE07400
1FC02000
ENDCHAR
STARTCHAR 069E
ENCODING 1694
SWIDTH 1080 0
DWIDTH 27 0
BBX 26 22 1 -2
BITMAP
00004000
0000E000
00005000
0000B800
0001D000
00008000
00000000
00000780
00100FC0
00103FC0
203871C0
4038E0C0
401BC1C0
801FFFC0
800FFFC0
800FFFC0
80080000
C0180000
E0380000
7FF00000
7FE00000
1FC00000
ENDCHAR
STARTCHAR 069F
ENCODING 1695
SWIDTH 520 0
DWIDTH 13 0
BBX 14 17 -1 4
BITMAP
0020
1070
1C28
3C5C
3CE8
1C40
1800
1800
0C78
0CFC
0FFC
0F1C
1E0C
381C
FFFC
FFFC
FFFC
ENDCHAR
STARTCHAR 06A0
ENCODING 1696
SWIDTH 560 0
DWIDTH 14 0
BBX 13 27 1 -5
BITMAP
1000
3800
1400
2E00
7400
2000
0000
1F00
3F80
3000
6000
6060
71E0
7FC0
3F00
3800
7000
4000
C000
8000
8000
8000
C000
F800
7FF8
3FF0
0F80
ENDCHAR
STARTCHAR 06A1
ENCODING 1697
SWIDTH 760 0
DWIDTH 19 0
BBX 18 10 1 4
BITMAP
000300
400780
4007C0
800DC0
800CC0
800EC0
C00FC0
FFFFC0
FFFFC0
3FFFC0
ENDCHAR
STARTCHAR 06A2
ENCODING 1698
SWIDTH 760 0
DWIDTH 19 0
BBX 18 16 1 -2
BITMAP
000300
400780
4007C0
800DC0
800CC0
800EC0
C00FC0
FFFFC0
FFFFC0
3FFFC0
000000
000000
000200
000380
000700
000100
ENDCHAR
STARTCHAR 06A3
ENCODING 1699
SWIDTH 760 0
DWIDTH 19 0
BBX 18 22 1 -2
BITMAP
000200
000380
000700
000100
000000
000000
000300
400780
4007C0
800DC0
800CC0
800EC0
C00FC0
FFFFC0
FFFFC0
3FFFC0
000000
000000
004000
007000
00E000
002000
ENDCHAR
STARTCHAR 06A4
ENCODING 1700
SWIDTH 760 0
DWIDTH 19 0
BBX 18 18 1 4
BITMAP
000200
000700
000280
0005C0
000E80
000400
000000
000000
000300
400780
4007C0
800DC0
800CC0
800EC0
C00FC0
FFFFC0
FFFFC0
3FFFC0
ENDCHAR
STARTCHAR 06A5
ENCODING 1701
SWIDTH 760 0
DWIDTH 19 0
BBX 18 18 1 -4
BITMAP
000300
400780
4007C0
800DC0
800CC0
800EC0
C00FC0
FFFFC0
FFFFC0
3FFFC0
000000
000000
000080
0005C0
000E80
000480
0001C0
000080
ENDCHAR
STARTCHAR 06A6
ENCODING 1702
SWIDTH 760 0
DWIDTH 19 0
BBX 18 18 1 4
BITMAP
000100
000B80
001D00
000880
0005C0
000E80
000400
000000
000300
400780
4007C0
800DC0
800CC0
800EC0
C00FC0
FFFFC0
FFFFC0
3FFFC0
ENDCHAR
STARTCHAR 06A7
ENCODING 1703
SWIDTH 600 0
DWIDTH 15 0
BBX 14 20 1 -3
BITMAP
0060
0070
00E0
0020
0000
0030
0078
0078
009C
109C
20FC
60FC
407C
C004
C004
C00C
F03C
FFF8
7FF0
1FC0
ENDCHAR
STARTCHAR 06A8
ENCODING 1704
SWIDTH 600 0
DWIDTH 15 0
BBX 14 22 1 -3
BITMAP
0040
00E0
0050
00B8
01D0
0080
0000
0030
0078
0078
009C
109C
20FC
60FC
407C
C004
C004
C00C
F03C
FFF8
7FF0
1FC0
ENDCHAR
STARTCHAR 06A9
ENCODING 1705
SWIDTH 760 0
DWIDTH 19 0
BBX 18 14 1 4
BITMAP
000080
000780
001F80
003E00
003800
003C00
401E00
800F00
800300
800180
C000C0
FFFFC0
7FFFC0
3FFFC0
ENDCHAR
STARTCHAR 06AA
ENCODING 1706
SWIDTH 760 0
DWIDTH 19 0
BBX 18 13 1 4
BITMAP
002000
01E000
07E000
0F8000
0E0000
0F8000
8FFC00
87FF00
807F80
C003C0
FFFFC0
7FFFC0
3FFFC0
ENDCHAR
STARTCHAR 06AB
ENCODING 1707
SWIDTH 760 0
DWIDTH 19 0
BBX 18 14 1 4
BITMAP
000080
000780
001F80
003F40
003940
003D80
401E00
800F00
800300
800180
C000C0
FFFFC0
7FFFC0
3FFFC0
ENDCHAR
STARTCHAR 06AC
ENCODING 1708
SWIDTH 560 0
DWIDTH 14 0
BBX 13 18 1 4
BITMAP
0400
0700
0E00
0220
0020
0078
0178
0318
0410
0790
4790
8190
8F08
8008
C008
FFF8
7FF8
3FF8
ENDCHAR
STARTCHAR 06AD
ENCODING 1709
SWIDTH 560 0
DWIDTH 14 0
BBX 13 17 1 4
BITMAP
0600
0780
0DA0
0C20
0078
0178
0318
0410
0790
4790
8190
8F08
8008
C008
FFF8
7FF8
3FF8
ENDCHAR
STARTCHAR 06AE
ENCODING 1710
SWIDTH 560 0
DWIDTH 14 0
BBX 13 23 1 -4
BITMAP
0020
0020
0078
0178
0318
0410
0790
4790
8190
8F08
8008
C008
FFF8
7FF8
3FF8
0000
0000
0100
0B80
1D00
0900
0380
0100
ENDCHAR
STARTCHAR 06AF
ENCODING 1711
SWIDTH 760 0
DWIDTH 19 0
BBX 18 19 1 4
BITMAP
000080
000380
000F80
001F00
003800
002080
000780
001F80
003E00
003800
003C00
401E00
800F00
800300
800180
C000C0
FFFFC0
7FFFC0
3FFFC0
ENDCHAR
STARTCHAR 06B0
ENCODING 1712
SWIDTH 760 0
DWIDTH 19 0
BBX 18 19 1 4
BITMAP
000080
000380
000F80
001F00
003800
002080
0007C0
001FC0
003FC0
0039C0
003D80
401E00
800F00
800300
800180
C000C0
FFFFC0
7FFFC0
3FFFC0
ENDCHAR
STARTCHAR 06B1
ENCODING 1713
SWIDTH 760 0
DWIDTH 19 0
BBX 18 18 1 4
BITMAP
001880
007B80
006F80
001F00
003880
002780
001F80
003E00
003800
003C00
401E00
800F00
800300
800180
C000C0
FFFFC0
7FFFC0
3FFFC0
ENDCHAR
STARTCHAR 06B2
ENCODING 1714
SWIDTH 760 0
DWIDTH 19 0
BBX 18 25 1 -2
BITMAP
000080
000380
000F80
001F00
003800
002080
000780
001F80
003E00
003800
003C00
401E00
800F00
800300
800180
C000C0
FFFFC0
7FFFC0
3FFFC0
000000
000000
001000
00B800
01D000
008000
ENDCHAR
STARTCHAR 06B3
ENCODING 1715
SWIDTH 760 0
DWIDTH 19 0
BBX 18 27 1 -4
BITMAP
000080
000380
000F80
001F00
003800
002080
000780
001F80
003E00
003800
003C00
401E00
800F00
800300
800180
C000C0
FFFFC0
7FFFC0
3FFFC0
000000
000000
004000
00E000
004000
002000
007000
002000
ENDCHAR
STARTCHAR 06B4
ENCODING 1716
SWIDTH 760 0
DWIDTH 19 0
BBX 18 18 1 4
BITMAP
003000
003D80
006F80
007F80
003C80
003780
001F80
003E00
003800
003C00
401E00
800F00
800300
800180
C000C0
FFFFC0
7FFFC0
3FFFC0
ENDCHAR
STARTCHAR 06B5
ENCODING 1717
SWIDTH 440 0
DWIDTH 11 0
BBX 10 23 1 -1
BITMAP
0880
0500
0200
0000
0100
0300
03C0
00C0
0080
0080
0080
0080
0040
2040
4040
4040
8040
8040
80C0
C1C0
FF80
7F00
3E00
ENDCHAR
STARTCHAR 06B6
ENCODING 1718
SWIDTH 440 0
DWIDTH 11 0
BBX 10 23 1 -1
BITMAP
0800
0E00
1C00
0400
0100
0300
03C0
00C0
0080
0080
0080
0080
0040
2040
4040
4040
8040
8040
80C0
C1C0
FF80
7F00
3E00
ENDCHAR
STARTCHAR 06B7
ENCODING 1719
SWIDTH 440 0
DWIDTH 11 0
BBX 10 23 1 -1
BITMAP
0600
0780
0D80
0C00
0100
0300
03C0
00C0
0080
0080
0080
0080
0040
2040
4040
4040
8040
8040
80C0
C1C0
FF80
7F00
3E00
ENDCHAR
STARTCHAR 06B8
ENCODING 1720
SWIDTH 440 0
DWIDTH 11 0
BBX 10 23 1 -4
BITMAP
0100
0100
03C0
03C0
00C0
0080
0080
0080
0080
0040
2040
4040
4040
8040
8040
80C0
C1C0
FF80
7F00
3E00
0000
0A00
0400
ENDCHAR
STARTCHAR 06B9
ENCODING 1721
SWIDTH 560 0
DWIDTH 14 0
BBX 13 21 1 -5
BITMAP
0200
0380
0700
0110
0010
2038
4038
4018
8018
8008
8008
8008
C018
E038
7FF0
7FF0
1FC0
0200
0380
0700
0100
ENDCHAR
STARTCHAR 06BA
ENCODING 1722
SWIDTH 560 0
DWIDTH 14 0
BBX 13 14 1 -2
BITMAP
0010
0010
2038
4038
4018
8018
8008
8008
8008
C018
E038
FFF0
7FF0
1FC0
ENDCHAR
STARTCHAR 06BB
ENCODING 1723
SWIDTH 560 0
DWIDTH 14 0
BBX 13 22 1 -2
BITMAP
1800
0C00
0800
0580
07C0
0C40
1FC0
1FC0
0010
0010
2038
4038
4018
8018
8008
8008
8008
C018
E038
FFF0
7FF0
1FC0
ENDCHAR
STARTCHAR 06BC
ENCODING 1724
SWIDTH 560 0
DWIDTH 14 0
BBX 13 21 1 -5
BITMAP
0200
0380
0700
0100
0010
0010
2038
4038
4018
8018
8008
8008
8008
C018
E038
7FF0
7FF0
1FC0
0500
0500
0600
ENDCHAR
STARTCHAR 06BD
ENCODING 1725
SWIDTH 560 0
DWIDTH 14 0
BBX 13 21 1 -2
BITMAP
0200
0700
0280
05C0
0E80
0400
0000
0010
0010
2038
4038
4018
8018
8008
8008
8008
C018
E038
FFF0
7FF0
1FC0
ENDCHAR
STARTCHAR 06BE
ENCODING 1726
SWIDTH 480 0
DWIDTH 12 0
BBX 11 13 -1 3
BITMAP
0400
0600
0F00
0780
0F80
1BC0
13C0
1E60
1F20
FFE0
FFE0
E3E0
00C0
ENDCHAR
STARTCHAR 06BF
ENCODING 1727
SWIDTH 560 0
DWIDTH 14 0
BBX 13 23 1 -5
BITMAP
0400
0700
0E00
0200
0000
3FF0
7FF0
FFE0
8F80
1C00
3000
6080
65C0
CE80
C480
C1C0
C080
E000
F000
7C00
7FF8
3FF0
0FC0
ENDCHAR
STARTCHAR 06C0
ENCODING 1728
SWIDTH 360 0
DWIDTH 9 0
BBX 7 14 1 3
BITMAP
30
40
30
40
20
38
7C
3E
5E
86
8E
FE
FC
70
ENDCHAR
STARTCHAR 06C1
ENCODING 1729
SWIDTH 400 0
DWIDTH 10 0
BBX 10 8 0 2
BITMAP
0C00
1E00
3F00
37C0
63C0
41C0
C000
8000
ENDCHAR
STARTCHAR 06C2
ENCODING 1730
SWIDTH 400 0
DWIDTH 10 0
BBX 10 13 0 2
BITMAP
0C00
1000
0C00
1000
0000
0C00
1E00
3F00
37C0
63C0
41C0
C000
8000
ENDCHAR
STARTCHAR 06C3
ENCODING 1731
SWIDTH 400 0
DWIDTH 10 0
BBX 10 13 0 2
BITMAP
0200
1700
3A00
1000
0000
0C00
1E00
3F00
37C0
63C0
41C0
C000
8000
ENDCHAR
STARTCHAR 06C4
ENCODING 1732
SWIDTH 440 0
DWIDTH 11 0
BBX 11 14 0 -2
BITMAP
00C0
01E0
03E0
0320
0320
03E0
03E0
01E0
0020
0260
05C0
C7C0
3F80
0E00
ENDCHAR
STARTCHAR 06C5
ENCODING 1733
SWIDTH 440 0
DWIDTH 11 0
BBX 11 14 0 -2
BITMAP
00C0
01C0
03E0
0320
0320
03E0
03E0
01E0
1C60
07E0
00C0
C3C0
3F80
0F00
ENDCHAR
STARTCHAR 06C6
ENCODING 1734
SWIDTH 440 0
DWIDTH 11 0
BBX 11 19 0 -2
BITMAP
0220
0140
0080
0000
0000
00C0
01E0
03E0
0320
0320
03E0
03E0
01E0
0020
0060
00C0
C3C0
3F80
0E00
ENDCHAR
STARTCHAR 06C7
ENCODING 1735
SWIDTH 440 0
DWIDTH 11 0
BBX 11 21 0 -2
BITMAP
00C0
0140
01C0
0140
0200
0000
0000
00C0
01E0
03E0
0320
0320
03E0
03E0
01E0
0020
0060
00C0
C3C0
3F80
0E00
ENDCHAR
STARTCHAR 06C8
ENCODING 1736
SWIDTH 440 0
DWIDTH 11 0
BBX 11 22 0 -2
BITMAP
0100
0100
0180
0080
0080
0080
0080
0000
00C0
01E0
03E0
0320
0320
03E0
03E0
01E0
0020
0060
00C0
C3C0
3F80
0E00
ENDCHAR
STARTCHAR 06C9
ENCODING 1737
SWIDTH 440 0
DWIDTH 11 0
BBX 11 19 0 -2
BITMAP
0080
0140
0220
0000
0000
00C0
01E0
03E0
0320
0320
03E0
03E0
01E0
0020
0060
00C0
C3C0
3F80
0E00
ENDCHAR
STARTCHAR 06CA
ENCODING 1738
SWIDTH 440 0
DWIDTH 11 0
BBX 11 19 0 -2
BITMAP
0040
02E0
0740
0200
0000
00C0
01E0
03E0
0320
0320
03E0
03E0
01E0
0020
0060
00C0
C3C0
3F80
0E00
ENDCHAR
STARTCHAR 06CB
ENCODING 1739
SWIDTH 440 0
DWIDTH 11 0
BBX 11 21 0 -2
BITMAP
0100
0380
0140
02E0
0740
0200
0000
00C0
01E0
03E0
0320
0320
03E0
03E0
01E0
0020
0060
00C0
C3C0
3F80
0E00
ENDCHAR
STARTCHAR 06CC
ENCODING 1740
SWIDTH 640 0
DWIDTH 16 0
BBX 12 14 2 -2
BITMAP
0070
01F0
01F0
2310
4600
4400
87C0
83E0
8020
80E0
C3C0
FFC0
FF00
7C00
ENDCHAR
STARTCHAR 06CD
ENCODING 1741
SWIDTH 640 0
DWIDTH 16 0
BBX 13 14 1 -2
BITMAP
0038
00F8
00F8
1188
6300
A200
43E0
41F0
4010
4070
61E0
7FE0
7F80
3E00
ENDCHAR
STARTCHAR 06CE
ENCODING 1742
SWIDTH 640 0
DWIDTH 16 0
BBX 12 15 2 -2
BITMAP
4400
2870
11F0
01F0
2310
4600
4400
87C0
83E0
8020
80E0
C3C0
FFC0
FF00
7C00
ENDCHAR
STARTCHAR 06CF
ENCODING 1743
SWIDTH 440 0
DWIDTH 11 0
BBX 11 19 0 -2
BITMAP
0100
01C0
0380
0080
0000
00C0
01E0
03E0
0320
0320
03E0
03E0
01E0
0020
0060
00C0
C3C0
3F80
0E00
ENDCHAR
STARTCHAR 06D0
ENCODING 1744
SWIDTH 640 0
DWIDTH 16 0
BBX 12 17 2 -5
BITMAP
0070
01F0
01F0
2310
4600
4400
87C0
83E0
8020
80E0
C3C0
FFC0
FF00
7C00
0000
0C00
0C00
ENDCHAR
STARTCHAR 06D1
ENCODING 1745
SWIDTH 640 0
DWIDTH 16 0
BBX 12 17 2 -5
BITMAP
0070
01F0
01F0
2310
4600
4400
87C0
83E0
8020
80E0
C3C0
FFC0
FF00
7C00
0000
1400
0800
ENDCHAR
STARTCHAR 06D2
ENCODING 1746
SWIDTH 800 0
DWIDTH 20 0
BBX 19 12 1 -1
BITMAP
008000
01C000
03C000
064000
1E4000
7C0000
780000
E00000
C00000
FFFFE0
FFFFC0
FFFF80
ENDCHAR
STARTCHAR 06D3
ENCODING 1747
SWIDTH 800 0
DWIDTH 20 0
BBX 19 16 1 -1
BITMAP
060000
080000
060000
080000
008000
01C000
03C000
064000
1E4000
7C0000
780000
E00000
C00000
FFFFE0
FFFFC0
FFFF80
ENDCHAR
STARTCHAR 06D4
ENCODING 1748
SWIDTH 200 0
DWIDTH 5 0
BBX 4 3 0 4
BITMAP
F0
F0
F0
ENDCHAR
STARTCHAR 06D5
ENCODING 1749
SWIDTH 360 0
DWIDTH 9 0
BBX 7 10 1 3
BITMAP
20
38
7C
3E
5E
86
8E
FE
FC
70
ENDCHAR
STARTCHAR 06D6
ENCODING 1750
SWIDTH 0 0
DWIDTH 0 0
BBX 12 9 -6 13
BITMAP
2000
3800
1230
0A50
3FF0
7FF0
4000
FF80
FF80
ENDCHAR
STARTCHAR 06D7
ENCODING 1751
SWIDTH 0 0
DWIDTH 0 0
BBX 9 9 -5 13
BITMAP
2500
3200
1700
0900
3F00
7F00
8000
FF80
FF80
ENDCHAR
STARTCHAR 06D8
ENCODING 1752
SWIDTH 0 0
DWIDTH 0 0
BBX 5 4 -3 13
BITMAP
10
28
F8
D8
ENDCHAR
STARTCHAR 06D9
ENCODING 1753
SWIDTH 0 0
DWIDTH 0 0
BBX 6 8 -3 13
BITMAP
08
8C
C8
68
10
18
38
38
ENDCHAR
STARTCHAR 06DA
ENCODING 1754
SWIDTH 0 0
DWIDTH 0 0
BBX 6 9 -3 13
BITMAP
78
F8
60
80
B0
B0
C0
FC
70
ENDCHAR
STARTCHAR 06DB
ENCODING 1755
SWIDTH 0 0
DWIDTH 0 0
BBX 4 4 -2 13
BITMAP
60
60
B0
D0
ENDCHAR
STARTCHAR 06DC
ENCODING 1756
SWIDTH 0 0
DWIDTH 0 0
BBX 10 6 -5 13
BITMAP
0940
4D40
87C0
87C0
FC00
7800
ENDCHAR
STARTCHAR 06DD
ENCODING 1757
SWIDTH 1120 0
DWIDTH 28 0
BBX 26 27 1 -5
BITMAP
007F8000
07807800
05FFE800
0E001C00
18000600
30000200
20000100
60000180
40000080
40000080
80000040
80000040
80000040
80000040
80000040
80000040
80000040
40000080
40000080
60000180
20000100
30000200
18000600
0E001C00
05FFE800
07807800
007F8000
ENDCHAR
STARTCHAR 06DE
ENCODING 1758
SWIDTH 1080 0
DWIDTH 27 0
BBX 28 27 0 -5
BITMAP
00060000
000F0000
00198000
0030C000
0FFFFF00
08C03100
09801900
0B000D00
0E000700
0C000100
18000180
280F0140
48198120
88108110
48198120
280F0140
18000180
08000300
0E000700
0B000D00
09801900
08C03100
0FFFFF00
0030C000
00198000
000F0000
00040000
ENDCHAR
STARTCHAR 06DF
ENCODING 1759
SWIDTH 0 0
DWIDTH 0 0
BBX 2 2 -1 13
BITMAP
C0
C0
ENDCHAR
STARTCHAR 06E0
ENCODING 1760
SWIDTH 0 0
DWIDTH 0 0
BBX 2 2 -1 13
BITMAP
C0
C0
ENDCHAR
STARTCHAR 06E1
ENCODING 1761
SWIDTH 0 0
DWIDTH 0 0
BBX 7 5 -3 13
BITMAP
70
18
0C
FE
FE
ENDCHAR
STARTCHAR 06E2
ENCODING 1762
SWIDTH 0 0
DWIDTH 0 0
BBX 4 8 -2 13
BITMAP
60
70
70
F0
80
80
80
80
ENDCHAR
STARTCHAR 06E3
ENCODING 1763
SWIDTH 0 0
DWIDTH 0 0
BBX 10 6 -5 -5
BITMAP
0940
4D40
87C0
87C0
FC00
7800
ENDCHAR
STARTCHAR 06E4
ENCODING 1764
SWIDTH 0 0
DWIDTH 0 0
BBX 3 1 -1 13
BITMAP
E0
ENDCHAR
STARTCHAR 06E5
ENCODING 1765
SWIDTH 200 0
DWIDTH 5 0
BBX 5 7 0 13
BITMAP
10
38
28
38
88
78
30
ENDCHAR
STARTCHAR 06E6
ENCODING 1766
SWIDTH 360 0
DWIDTH 9 0
BBX 9 6 0 13
BITMAP
1000
3800
6800
8000
FF80
FF00
ENDCHAR
STARTCHAR 06E7
ENCODING 1767
SWIDTH 0 0
DWIDTH 0 0
BBX 9 6 -5 13
BITMAP
1000
3800
6800
8000
FF80
FF00
ENDCHAR
STARTCHAR 06E8
ENCODING 1768
SWIDTH 0 0
DWIDTH 0 0
BBX 6 8 -3 13
BITMAP
30
30
08
4C
84
84
FC
78
ENDCHAR
STARTCHAR 06E9
ENCODING 1769
SWIDTH 600 0
DWIDTH 15 0
BBX 17 20 -1 0
BITMAP
008000
036000
049000
0B6800
349600
5B6D00
AC1A80
522500
2A2B00
2A2A00
2A2A00
2A2A00
2A2A00
2A2A00
2A2A00
2BEA00
280A00
4FF900
400100
FFFF80
ENDCHAR
STARTCHAR 06EA
ENCODING 1770
SWIDTH 0 0
DWIDTH 0 0
BBX 3 4 -2 -4
BITMAP
40
A0
A0
40
ENDCHAR
STARTCHAR 06EB
ENCODING 1771
SWIDTH 0 0
DWIDTH 0 0
BBX 3 4 -2 13
BITMAP
40
A0
A0
40
ENDCHAR
STARTCHAR 06EC
ENCODING 1772
SWIDTH 0 0
DWIDTH 0 0
BBX 2 2 -1 13
BITMAP
C0
C0
ENDCHAR
STARTCHAR 06ED
ENCODING 1773
SWIDTH 0 0
DWIDTH 0 0
BBX 4 8 -2 -5
BITMAP
60
70
70
F0
80
80
80
80
ENDCHAR
STARTCHAR 06F0
ENCODING 1776
SWIDTH 560 0
DWIDTH 14 0
BBX 4 6 5 5
BITMAP
40
60
F0
F0
60
20
ENDCHAR
STARTCHAR 06F1
ENCODING 1777
SWIDTH 560 0
DWIDTH 14 0
BBX 5 14 4 4
BITMAP
40
60
E0
F0
70
30
38
18
18
18
08
08
08
08
ENDCHAR
STARTCHAR 06F2
ENCODING 1778
SWIDTH 560 0
DWIDTH 14 0
BBX 7 14 3 4
BITMAP
42
62
FE
FE
7E
7C
30
38
18
18
08
08
08
08
ENDCHAR
STARTCHAR 06F3
ENCODING 1779
SWIDTH 560 0
DWIDTH 14 0
BBX 10 14 2 4
BITMAP
4240
67C0
FFC0
FFC0
7D80
3C00
3000
1800
1800
0800
0800
0800
0800
0800
ENDCHAR
STARTCHAR 06F4
ENCODING 1780
SWIDTH 560 0
DWIDTH 14 0
BBX 10 14 2 4
BITMAP
4380
4FC0
EC00
F800
7FC0
3FC0
3F80
1F00
1800
0800
0800
0800
0800
0800
ENDCHAR
STARTCHAR 06F5
ENCODING 1781
SWIDTH 560 0
DWIDTH 14 0
BBX 10 14 2 4
BITMAP
0800
0C00
1E00
0F00
0F00
1380
2180
60C0
40C0
C040
C240
FFC0
FF80
7B00
ENDCHAR
STARTCHAR 06F6
ENCODING 1782
SWIDTH 560 0
DWIDTH 14 0
BBX 8 14 3 4
BITMAP
1C
3E
60
40
C1
FF
FE
7C
18
10
30
30
20
20
ENDCHAR
STARTCHAR 06F7
ENCODING 1783
SWIDTH 560 0
DWIDTH 14 0
BBX 9 14 2 4
BITMAP
8080
C180
C180
E380
E380
6300
3600
3600
1400
1400
1C00
1800
0800
0800
ENDCHAR
STARTCHAR 06F8
ENCODING 1784
SWIDTH 560 0
DWIDTH 14 0
BBX 9 14 2 4
BITMAP
0800
0800
0C00
1C00
1400
1400
3600
3600
6300
E380
E380
C180
C180
8080
ENDCHAR
STARTCHAR 06F9
ENCODING 1785
SWIDTH 560 0
DWIDTH 14 0
BBX 8 14 3 4
BITMAP
38
7C
7C
CC
CC
FC
FC
7C
0C
0E
0F
0F
06
02
ENDCHAR
STARTCHAR 06FA
ENCODING 1786
SWIDTH 880 0
DWIDTH 22 0
BBX 21 19 1 -2
BITMAP
000080
0001C0
0000A0
000170
0003A0
002100
002008
207098
407098
403088
803FF8
801FF8
801F78
801000
C03000
E07080
7FE0E0
7FE1C0
1F8040
ENDCHAR
STARTCHAR 06FB
ENCODING 1787
SWIDTH 1080 0
DWIDTH 27 0
BBX 26 20 1 -2
BITMAP
00004000
00007000
0000E000
00002000
00000000
00000780
00100FC0
00103FC0
203871C0
4038E0C0
401BC1C0
801FFFC0
800FFFC0
800FFFC0
80080000
C0180000
E0381000
7FF01C00
7FE03800
1FC00800
ENDCHAR
STARTCHAR 06FC
ENCODING 1788
SWIDTH 560 0
DWIDTH 14 0
BBX 13 26 1 -5
BITMAP
0800
0E00
1C00
0400
0000
0000
1F00
3F80
3000
6000
6060
71E0
7FC0
3F00
3800
7000
4000
C100
81C0
8380
8080
C000
F800
7FF8
3FF0
0F80
ENDCHAR
STARTCHAR 06FD
ENCODING 1789
SWIDTH 480 0
DWIDTH 12 0
BBX 9 17 2 -4
BITMAP
1E00
3C00
7C00
4000
E380
FF80
7F00
3C00
3000
6000
C000
8000
1400
1400
1400
1400
1400
ENDCHAR
STARTCHAR 06FE
ENCODING 1790
SWIDTH 360 0
DWIDTH 9 0
BBX 8 16 1 -5
BITMAP
18
3C
4E
07
07
7F
FF
C0
80
8A
CA
4A
4A
4A
40
40
ENDCHAR
STARTCHAR 1E80
ENCODING 7808
SWIDTH 920 0
DWIDTH 23 0
BBX 23 24 0 0
BITMAP
00F000
007800
003800
001C00
000000
000000
E0380E
E0380E
707C1C
707C1C
707C1C
306C1C
38EE38
38EE38
38C638
18C630
1DC770
1DC770
1D8370
0D8360
0F83E0
0F83E0
0701C0
0701C0
ENDCHAR
STARTCHAR 1E81
ENCODING 7809
SWIDTH 760 0
DWIDTH 19 0
BBX 19 20 0 0
BITMAP
03C000
01E000
00E000
007000
000000
000000
E0E0E0
F0E1E0
70E1C0
71F1C0
71B1C0
31B180
3BB380
3BBB80
1B1B00
1B1B00
1F1F00
0E0E00
0E0E00
0E0E00
ENDCHAR
STARTCHAR 1E82
ENCODING 7810
SWIDTH 920 0
DWIDTH 23 0
BBX 23 24 0 0
BITMAP
000F00
001E00
001C00
003800
000000
000000
E0380E
E0380E
707C1C
707C1C
707C1C
306C1C
38EE38
38EE38
38C638
18C630
1DC770
1DC770
1D8370
0D8360
0F83E0
0F83E0
0701C0
0701C0
ENDCHAR
STARTCHAR 1E83
ENCODING 7811
SWIDTH 760 0
DWIDTH 19 0
BBX 19 20 0 0
BITMAP
003C00
007800
007000
00E000
000000
000000
E0E0E0
F0E1E0
70E1C0
71F1C0
71B1C0
31B180
3BB380
3BBB80
1B1B00
1B1B00
1F1F00
0E0E00
0E0E00
0E0E00
ENDCHAR
STARTCHAR 1E84
ENCODING 7812
SWIDTH 920 0
DWIDTH 23 0
BBX 23 23 0 0
BITMAP
00E700
00E700
00E700
000000
000000
E0380E
E0380E
707C1C
707C1C
707C1C
306C1C
38EE38
38EE38
38C638
18C630
1DC770
1DC770
1D8370
0D8360
0F83E0
0F83E0
0701C0
0701C0
ENDCHAR
STARTCHAR 1E85
ENCODING 7813
SWIDTH 760 0
DWIDTH 19 0
BBX 19 19 0 0
BITMAP
039C00
039C00
039C00
000000
000000
E0E0E0
F0E1E0
70E1C0
71F1C0
71B1C0
31B180
3BB380
3BBB80
1B1B00
1B1B00
1F1F00
0E0E00
0E0E00
0E0E00
ENDCHAR
STARTCHAR 1EA0
ENCODING 7840
SWIDTH 680 0
DWIDTH 17 0
BBX 17 23 0 -5
BITMAP
03E000
03E000
03E000
077000
077000
0F7800
0E3800
0E3800
1E1C00
1C1C00
1C1C00
3FFE00
3FFE00
3FFE00
700700
700700
700700
E00380
000000
000000
01C000
01C000
01C000
ENDCHAR
STARTCHAR 1EA1
ENCODING 7841
SWIDTH 560 0
DWIDTH 14 0
BBX 12 19 1 -5
BITMAP
1F80
7FC0
71E0
E0E0
00E0
03E0
1FE0
7CE0
F0E0
E0E0
E0E0
F1E0
7FE0
3E70
0000
0000
0E00
0E00
0E00
ENDCHAR
STARTCHAR 1EA2
ENCODING 7842
SWIDTH 680 0
DWIDTH 17 0
BBX 17 24 0 0
BITMAP
03C000
006000
006000
008000
000000
000000
03E000
03E000
03E000
077000
077000
0F7800
0E3800
0E3800
1E1C00
1C1C00
1C1C00
3FFE00
3FFE00
3FFE00
700700
700700
700700
E00380
ENDCHAR
STARTCHAR 1EA3
ENCODING 7843
SWIDTH 560 0
DWIDTH 14 0
BBX 12 20 1 0
BITMAP
1E00
0300
0300
0400
0000
0000
1F80
7FC0
71E0
E0E0
00E0
03E0
1FE0
7CE0
F0E0
E0E0
E0E0
F1E0
7FE0
3E70
ENDCHAR
STARTCHAR 1EA4
ENCODING 7844
SWIDTH 680 0
DWIDTH 17 0
BBX 17 24 0 0
BITMAP
006000
00C000
000000
01C000
036000
000000
03E000
03E000
03E000
077000
077000
0F7800
0E3800
0E3800
1E1C00
1C1C00
1C1C00
3FFE00
3FFE00
3FFE00
700700
700700
700700
E00380
ENDCHAR
STARTCHAR 1EA5
ENCODING 7845
SWIDTH 560 0
DWIDTH 14 0
BBX 12 24 1 0
BITMAP
0380
0700
0E00
0000
0000
0E00
1F00
3B80
71C0
0000
1F80
7FC0
71E0
E0E0
00E0
03E0
1FE0
7CE0
F0E0
E0E0
E0E0
F1E0
7FE0
3E70
ENDCHAR
STARTCHAR 1EA6
ENCODING 7846
SWIDTH 680 0
DWIDTH 17 0
BBX 17 24 0 0
BITMAP
018000
00C000
000000
01C000
036000
000000
03E000
03E000
03E000
077000
077000
0F7800
0E3800
0E3800
1E1C00
1C1C00
1C1C00
3FFE00
3FFE00
3FFE00
700700
700700
700700
E00380
ENDCHAR
STARTCHAR 1EA7
ENCODING 7847
SWIDTH 560 0
DWIDTH 14 0
BBX 12 24 1 0
BITMAP
1C00
0E00
0700
0000
0000
0E00
1F00
3B80
71C0
0000
1F80
7FC0
71E0
E0E0
00E0
03E0
1FE0
7CE0
F0E0
E0E0
E0E0
F1E0
7FE0
3E70
ENDCHAR
STARTCHAR 1EA8
ENCODING 7848
SWIDTH 680 0
DWIDTH 17 0
BBX 17 24 0 0
BITMAP
03C000
004000
008000
01C000
036000
000000
03E000
03E000
03E000
077000
077000
0F7800
0E3800
0E3800
1E1C00
1C1C00
1C1C00
3FFE00
3FFE00
3FFE00
700700
700700
700700
E00380
ENDCHAR
STARTCHAR 1EA9
ENCODING 7849
SWIDTH 560 0
DWIDTH 14 0
BBX 12 24 1 0
BITMAP
1E00
0300
0300
0400
0000
0E00
1F00
3B80
71C0
0000
1F80
7FC0
71E0
E0E0
00E0
03E0
1FE0
7CE0
F0E0
E0E0
E0E0
F1E0
7FE0
3E70
ENDCHAR
STARTCHAR 1EAA
ENCODING 7850
SWIDTH 680 0
DWIDTH 17 0
BBX 17 24 0 0
BITMAP
038800
047000
000000
01C000
036000
000000
03E000
03E000
03E000
077000
077000
0F7800
0E3800
0E3800
1E1C00
1C1C00
1C1C00
3FFE00
3FFE00
3FFE00
700700
700700
700700
E00380
ENDCHAR
STARTCHAR 1EAB
ENCODING 7851
SWIDTH 560 0
DWIDTH 14 0
BBX 12 24 1 0
BITMAP
1CC0
3FC0
3380
0000
0000
0E00
1F00
3B80
71C0
0000
1F80
7FC0
71E0
E0E0
00E0
03E0
1FE0
7CE0
F0E0
E0E0
E0E0
F1E0
7FE0
3E70
ENDCHAR
STARTCHAR 1EAC
ENCODING 7852
SWIDTH 680 0
DWIDTH 17 0
BBX 17 27 0 -5
BITMAP
01C000
036000
000000
000000
03E000
03E000
03E000
077000
077000
0F7800
0E3800
0E3800
1E1C00
1C1C00
1C1C00
3FFE00
3FFE00
3FFE00
700700
700700
700700
E00380
000000
000000
01C000
01C000
01C000
ENDCHAR
STARTCHAR 1EAD
ENCODING 7853
SWIDTH 560 0
DWIDTH 14 0
BBX 12 25 1 -5
BITMAP
0E00
1F00
3B80
71C0
0000
0000
1F80
7FC0
71E0
E0E0
00E0
03E0
1FE0
7CE0
F0E0
E0E0
E0E0
F1E0
7FE0
3E70
0000
0000
0E00
0E00
0E00
ENDCHAR
STARTCHAR 1EAE
ENCODING 7854
SWIDTH 680 0
DWIDTH 17 0
BBX 17 24 0 0
BITMAP
006000
00C000
000000
041000
03E000
000000
03E000
03E000
03E000
077000
077000
0F7800
0E3800
0E3800
1E1C00
1C1C00
1C1C00
3FFE00
3FFE00
3FFE00
700700
700700
700700
E00380
ENDCHAR
STARTCHAR 1EAF
ENCODING 7855
SWIDTH 560 0
DWIDTH 14 0
BBX 12 24 1 0
BITMAP
0380
0700
0E00
0000
0000
30C0
39C0
1F80
0F00
0000
1F80
7FC0
71E0
E0E0
00E0
03E0
1FE0
7CE0
F0E0
E0E0
E0E0
F1E0
7FE0
3E70
ENDCHAR
STARTCHAR 1EB0
ENCODING 7856
SWIDTH 680 0
DWIDTH 17 0
BBX 17 24 0 0
BITMAP
030000
018000
000000
041000
03E000
000000
03E000
03E000
03E000
077000
077000
0F7800
0E3800
0E3800
1E1C00
1C1C00
1C1C00
3FFE00
3FFE00
3FFE00
700700
700700
700700
E00380
ENDCHAR
STARTCHAR 1EB1
ENCODING 7857
SWIDTH 560 0
DWIDTH 14 0
BBX 12 24 1 0
BITMAP
1C00
0E00
0700
0000
0000
30C0
39C0
1F80
0F00
0000
1F80
7FC0
71E0
E0E0
00E0
03E0
1FE0
7CE0
F0E0
E0E0
E0E0
F1E0
7FE0
3E70
ENDCHAR
STARTCHAR 1EB2
ENCODING 7858
SWIDTH 680 0
DWIDTH 17 0
BBX 17 24 0 0
BITMAP
03C000
004000
008000
041000
03E000
000000
03E000
03E000
03E000
077000
077000
0F7800
0E3800
0E3800
1E1C00
1C1C00
1C1C00
3FFE00
3FFE00
3FFE00
700700
700700
700700
E00380
ENDCHAR
STARTCHAR 1EB3
ENCODING 7859
SWIDTH 560 0
DWIDTH 14 0
BBX 12 24 1 0
BITMAP
0F00
0180
0180
0200
0000
30C0
39C0
1F80
0F00
0000
1F80
7FC0
71E0
E0E0
00E0
03E0
1FE0
7CE0
F0E0
E0E0
E0E0
F1E0
7FE0
3E70
ENDCHAR
STARTCHAR 1EB4
ENCODING 7860
SWIDTH 680 0
DWIDTH 17 0
BBX 17 24 0 0
BITMAP
038800
047000
000000
041000
03E000
000000
03E000
03E000
03E000
077000
077000
0F7800
0E3800
0E3800
1E1C00
1C1C00
1C1C00
3FFE00
3FFE00
3FFE00
700700
700700
700700
E00380
ENDCHAR
STARTCHAR 1EB5
ENCODING 7861
SWIDTH 560 0
DWIDTH 14 0
BBX 12 24 1 0
BITMAP
1CC0
3FC0
3380
0000
0000
30C0
39C0
1F80
0F00
0000
1F80
7FC0
71E0
E0E0
00E0
03E0
1FE0
7CE0
F0E0
E0E0
E0E0
F1E0
7FE0
3E70
ENDCHAR
STARTCHAR 1EB6
ENCODING 7862
SWIDTH 680 0
DWIDTH 17 0
BBX 17 27 0 -5
BITMAP
041000
03E000
000000
000000
03E000
03E000
03E000
077000
077000
0F7800
0E3800
0E3800
1E1C00
1C1C00
1C1C00
3FFE00
3FFE00
3FFE00
700700
700700
700700
E00380
000000
000000
01C000
01C000
01C000
ENDCHAR
STARTCHAR 1EB7
ENCODING 7863
SWIDTH 560 0
DWIDTH 14 0
BBX 12 25 1 -5
BITMAP
30C0
39C0
1F80
0F00
0000
0000
1F80
7FC0
71E0
E0E0
00E0
03E0
1FE0
7CE0
F0E0
E0E0
E0E0
F1E0
7FE0
3E70
0000
0000
0E00
0E00
0E00
ENDCHAR
STARTCHAR 1EB8
ENCODING 7864
SWIDTH 680 0
DWIDTH 17 0
BBX 14 23 2 -5
BITMAP
FFFC
FFFC
FFFC
E000
E000
E000
E000
FFF8
FFF8
FFF8
E000
E000
E000
E000
E000
FFFC
FFFC
FFFC
0000
0000
0380
0380
0380
ENDCHAR
STARTCHAR 1EB9
ENCODING 7865
SWIDTH 560 0
DWIDTH 14 0
BBX 12 19 1 -5
BITMAP
0F00
3FC0
7FE0
70E0
E070
E070
FFF0
FFF0
E000
E000
7060
7FF0
3FE0
0F80
0000
0000
0700
0700
0700
ENDCHAR
STARTCHAR 1EBA
ENCODING 7866
SWIDTH 680 0
DWIDTH 17 0
BBX 14 24 2 0
BITMAP
0780
00C0
00C0
0100
0000
0000
FFFC
FFFC
FFFC
E000
E000
E000
E000
FFF8
FFF8
FFF8
E000
E000
E000
E000
E000
FFFC
FFFC
FFFC
ENDCHAR
STARTCHAR 1EBB
ENCODING 7867
SWIDTH 560 0
DWIDTH 14 0
BBX 12 20 1 0
BITMAP
0F00
0180
0180
0200
0000
0000
0F00
3FC0
7FE0
70E0
E070
E070
FFF0
FFF0
E000
E000
7060
7FF0
3FE0
0F80
ENDCHAR
STARTCHAR 1EBC
ENCODING 7868
SWIDTH 680 0
DWIDTH 17 0
BBX 14 23 2 0
BITMAP
0E60
1FE0
19C0
0000
0000
FFFC
FFFC
FFFC
E000
E000
E000
E000
FFF8
FFF8
FFF8
E000
E000
E000
E000
E000
FFFC
FFFC
FFFC
ENDCHAR
STARTCHAR 1EBD
ENCODING 7869
SWIDTH 560 0
DWIDTH 14 0
BBX 12 19 1 0
BITMAP
1CC0
3FC0
3380
0000
0000
0F00
3FC0
7FE0
70E0
E070
E070
FFF0
FFF0
E000
E000
7060
7FF0
3FE0
0F80
ENDCHAR
STARTCHAR 1EBE
ENCODING 7870
SWIDTH 680 0
DWIDTH 17 0
BBX 14 24 2 0
BITMAP
00C0
0180
0000
0380
06C0
0000
FFFC
FFFC
FFFC
E000
E000
E000
E000
FFF8
FFF8
FFF8
E000
E000
E000
E000
E000
FFFC
FFFC
FFFC
ENDCHAR
STARTCHAR 1EBF
ENCODING 7871
SWIDTH 560 0
DWIDTH 14 0
BBX 12 24 1 0
BITMAP
01C0
0380
0700
0000
0000
0700
0F80
1DC0
38E0
0000
0F00
3FC0
7FE0
70E0
E070
E070
FFF0
FFF0
E000
E000
7060
7FF0
3FE0
0F80
ENDCHAR
STARTCHAR 1EC0
ENCODING 7872
SWIDTH 680 0
DWIDTH 17 0
BBX 14 24 2 0
BITMAP
0300
0180
0000
0380
06C0
0000
FFFC
FFFC
FFFC
E000
E000
E000
E000
FFF8
FFF8
FFF8
E000
E000
E000
E000
E000
FFFC
FFFC
FFFC
ENDCHAR
STARTCHAR 1EC1
ENCODING 7873
SWIDTH 560 0
DWIDTH 14 0
BBX 12 24 1 0
BITMAP
0E00
0700
0380
0000
0000
0700
0F80
1DC0
38E0
0000
0F00
3FC0
7FE0
70E0
E070
E070
FFF0
FFF0
E000
E000
7060
7FF0
3FE0
0F80
ENDCHAR
STARTCHAR 1EC2
ENCODING 7874
SWIDTH 680 0
DWIDTH 17 0
BBX 14 24 2 0
BITMAP
0780
0080
0100
0380
06C0
0000
FFFC
FFFC
FFFC
E000
E000
E000
E000
FFF8
FFF8
FFF8
E000
E000
E000
E000
E000
FFFC
FFFC
FFFC
ENDCHAR
STARTCHAR 1EC3
ENCODING 7875
SWIDTH 560 0
DWIDTH 14 0
BBX 12 24 1 0
BITMAP
0F00
0180
0180
0200
0000
0700
0F80
1DC0
38E0
0000
0F00
3FC0
7FE0
70E0
E070
E070
FFF0
FFF0
E000
E000
7060
7FF0
3FE0
0F80
ENDCHAR
STARTCHAR 1EC4
ENCODING 7876
SWIDTH 680 0
DWIDTH 17 0
BBX 14 24 2 0
BITMAP
0710
08E0
0000
0380
06C0
0000
FFFC
FFFC
FFFC
E000
E000
E000
E000
FFF8
FFF8
FFF8
E000
E000
E000
E000
E000
FFFC
FFFC
FFFC
ENDCHAR
STARTCHAR 1EC5
ENCODING 7877
SWIDTH 560 0
DWIDTH 14 0
BBX 12 24 1 0
BITMAP
1CC0
3FC0
3380
0000
0000
0700
0F80
1DC0
38E0
0000
0F00
3FC0
7FE0
70E0
E070
E070
FFF0
FFF0
E000
E000
7060
7FF0
3FE0
0F80
ENDCHAR
STARTCHAR 1EC6
ENCODING 7878
SWIDTH 680 0
DWIDTH 17 0
BBX 14 27 2 -5
BITMAP
0380
06C0
0000
0000
FFFC
FFFC
FFFC
E000
E000
E000
E000
FFF8
FFF8
FFF8
E000
E000
E000
E000
E000
FFFC
FFFC
FFFC
0000
0000
0380
0380
0380
ENDCHAR
STARTCHAR 1EC7
ENCODING 7879
SWIDTH 560 0
DWIDTH 14 0
BBX 12 25 1 -5
BITMAP
0700
0F80
1DC0
38E0
0000
0000
0F00
3FC0
7FE0
70E0
E070
E070
FFF0
FFF0
E000
E000
7060
7FF0
3FE0
0F80
0000
0000
0700
0700
0700
ENDCHAR
STARTCHAR 1EC8
ENCODING 7880
SWIDTH 280 0
DWIDTH 7 0
BBX 5 24 1 0
BITMAP
F0
18
18
20
00
00
70
70
70
70
70
70
70
70
70
70
70
70
70
70
70
70
70
70
ENDCHAR
STARTCHAR 1EC9
ENCODING 7881
SWIDTH 280 0
DWIDTH 7 0
BBX 5 20 1 0
BITMAP
F0
18
18
20
00
00
70
70
70
70
70
70
70
70
70
70
70
70
70
70
ENDCHAR
STARTCHAR 1ECA
ENCODING 7882
SWIDTH 280 0
DWIDTH 7 0
BBX 3 23 2 -5
BITMAP
E0
E0
E0
E0
E0
E0
E0
E0
E0
E0
E0
E0
E0
E0
E0
E0
E0
E0
00
00
E0
E0
E0
ENDCHAR
STARTCHAR 1ECB
ENCODING 7883
SWIDTH 280 0
DWIDTH 7 0
BBX 3 23 2 -5
BITMAP
E0
E0
00
00
E0
E0
E0
E0
E0
E0
E0
E0
E0
E0
E0
E0
E0
E0
00
00
E0
E0
E0
ENDCHAR
STARTCHAR 1ECC
ENCODING 7884
SWIDTH 760 0
DWIDTH 19 0
BBX 17 23 1 -5
BITMAP
07F000
1FFC00
3FFE00
7C1F00
780F00
700700
E00380
E00380
E00380
E00380
E00380
E00380
700780
780F00
7C1F00
3FFE00
1FFC00
07F000
000000
000000
01C000
01C000
01C000
ENDCHAR
STARTCHAR 1ECD
ENCODING 7885
SWIDTH 600 0
DWIDTH 15 0
BBX 13 19 1 -5
BITMAP
0F80
3FE0
7FF0
78F0
F078
E038
E038
E038
E038
F078
78F0
7FF0
3FE0
0F80
0000
0000
0700
0700
0700
ENDCHAR
STARTCHAR 1ECE
ENCODING 7886
SWIDTH 760 0
DWIDTH 19 0
BBX 17 24 1 0
BITMAP
03C000
006000
006000
008000
000000
000000
07F000
1FFC00
3FFE00
7C1F00
780F00
700700
E00380
E00380
E00380
E00380
E00380
E00380
700780
780F00
7C1F00
3FFE00
1FFC00
07F000
ENDCHAR
STARTCHAR 1ECF
ENCODING 7887
SWIDTH 600 0
DWIDTH 15 0
BBX 13 20 1 0
BITMAP
0F00
0180
0180
0200
0000
0000
0F80
3FE0
7FF0
78F0
F078
E038
E038
E038
E038
F078
78F0
7FF0
3FE0
0F80
ENDCHAR
STARTCHAR 1ED0
ENCODING 7888
SWIDTH 760 0
DWIDTH 19 0
BBX 17 24 1 0
BITMAP
006000
00C000
000000
01C000
036000
000000
07F000
1FFC00
3FFE00
7C1F00
780F00
700700
E00380
E00380
E00380
E00380
E00380
E00380
700780
780F00
7C1F00
3FFE00
1FFC00
07F000
ENDCHAR
STARTCHAR 1ED1
ENCODING 7889
SWIDTH 600 0
DWIDTH 15 0
BBX 13 24 1 0
BITMAP
01C0
0380
0700
0000
0000
0700
0F80
1DC0
38E0
0000
0F80
3FE0
7FF0
78F0
F078
E038
E038
E038
E038
F078
78F0
7FF0
3FE0
0F80
ENDCHAR
STARTCHAR 1ED2
ENCODING 7890
SWIDTH 760 0
DWIDTH 19 0
BBX 17 24 1 0
BITMAP
018000
00C000
000000
01C000
036000
000000
07F000
1FFC00
3FFE00
7C1F00
780F00
700700
E00380
E00380
E00380
E00380
E00380
E00380
700780
780F00
7C1F00
3FFE00
1FFC00
07F000
ENDCHAR
STARTCHAR 1ED3
ENCODING 7891
SWIDTH 600 0
DWIDTH 15 0
BBX 13 24 1 0
BITMAP
0E00
0700
0380
0000
0000
0700
0F80
1DC0
38E0
0000
0F80
3FE0
7FF0
78F0
F078
E038
E038
E038
E038
F078
78F0
7FF0
3FE0
0F80
ENDCHAR
STARTCHAR 1ED4
ENCODING 7892
SWIDTH 760 0
DWIDTH 19 0
BBX 17 24 1 0
BITMAP
03C000
004000
008000
01C000
036000
000000
07F000
1FFC00
3FFE00
7C1F00
780F00
700700
E00380
E00380
E00380
E00380
E00380
E00380
700780
780F00
7C1F00
3FFE00
1FFC00
07F000
ENDCHAR
STARTCHAR 1ED5
ENCODING 7893
SWIDTH 600 0
DWIDTH 15 0
BBX 13 24 1 0
BITMAP
0F00
0180
0180
0200
0000
0700
0F80
1DC0
38E0
0000
0F80
3FE0
7FF0
78F0
F078
E038
E038
E038
E038
F078
78F0
7FF0
3FE0
0F80
ENDCHAR
STARTCHAR 1ED6
ENCODING 7894
SWIDTH 760 0
DWIDTH 19 0
BBX 17 24 1 0
BITMAP
038800
047000
000000
01C000
036000
000000
07F000
1FFC00
3FFE00
7C1F00
780F00
700700
E00380
E00380
E00380
E00380
E00380
E00380
700780
780F00
7C1F00
3FFE00
1FFC00
07F000
ENDCHAR
STARTCHAR 1ED7
ENCODING 7895
SWIDTH 600 0
DWIDTH 15 0
BBX 13 24 1 0
BITMAP
0E60
1FE0
19C0
0000
0000
0700
0F80
1DC0
38E0
0000
0F80
3FE0
7FF0
78F0
F078
E038
E038
E038
E038
F078
78F0
7FF0
3FE0
0F80
ENDCHAR
STARTCHAR 1ED8
ENCODING 7896
SWIDTH 760 0
DWIDTH 19 0
BBX 17 27 1 -5
BITMAP
01C000
036000
000000
000000
07F000
1FFC00
3FFE00
7C1F00
780F00
700700
E00380
E00380
E00380
E00380
E00380
E00380
700780
780F00
7C1F00
3FFE00
1FFC00
07F000
000000
000000
01C000
01C000
01C000
ENDCHAR
STARTCHAR 1ED9
ENCODING 7897
SWIDTH 600 0
DWIDTH 15 0
BBX 13 25 1 -5
BITMAP
0700
0F80
1DC0
38E0
0000
0000
0F80
3FE0
7FF0
78F0
F078
E038
E038
E038
E038
F078
78F0
7FF0
3FE0
0F80
0000
0000
0700
0700
0700
ENDCHAR
STARTCHAR 1EDA
ENCODING 7898
SWIDTH 840 0
DWIDTH 21 0
BBX 20 24 1 0
BITMAP
00F000
01E000
01C000
038000
000000
000000
07F070
1FFC70
3FFE70
7C1F30
780760
7007C0
E00380
E00380
E00380
E00380
E00380
E00380
F00700
780F00
7C1E00
3FFE00
1FFC00
07F000
ENDCHAR
STARTCHAR 1EDB
ENCODING 7899
SWIDTH 720 0
DWIDTH 18 0
BBX 17 20 1 0
BITMAP
01E000
03C000
038000
070000
000000
000000
0F8380
3FE380
7FF380
78F980
F07B00
E03E00
E03800
E03800
E03800
F07800
78F000
7FF000
3FE000
0F8000
ENDCHAR
STARTCHAR 1EDC
ENCODING 7900
SWIDTH 840 0
DWIDTH 21 0
BBX 20 24 1 0
BITMAP
078000
03C000
01C000
00E000
000000
000000
07F070
1FFC70
3FFE70
7C1F30
780760
7007C0
E00380
E00380
E00380
E00380
E00380
E00380
F00700
780F00
7C1E00
3FFE00
1FFC00
07F000
ENDCHAR
STARTCHAR 1EDD
ENCODING 7901
SWIDTH 720 0
DWIDTH 18 0
BBX 17 20 1 0
BITMAP
1E0000
0F0000
070000
038000
000000
000000
0F8380
3FE380
7FF380
78F980
F07B00
E03E00
E03800
E03800
E03800
F07800
78F000
7FF000
3FE000
0F8000
ENDCHAR
STARTCHAR 1EDE
ENCODING 7902
SWIDTH 840 0
DWIDTH 21 0
BBX 20 24 1 0
BITMAP
03C000
006000
006000
008000
000000
000000
07F070
1FFC70
3FFE70
7C1F30
780760
7007C0
E00380
E00380
E00380
E00380
E00380
E00380
F00700
780F00
7C1E00
3FFE00
1FFC00
07F000
ENDCHAR
STARTCHAR 1EDF
ENCODING 7903
SWIDTH 720 0
DWIDTH 18 0
BBX 17 20 1 0
BITMAP
0F0000
018000
018000
020000
000000
000000
0F8380
3FE380
7FF380
78F980
F07B00
E03E00
E03800
E03800
E03800
F07800
78F000
7FF000
3FE000
0F8000
ENDCHAR
STARTCHAR 1EE0
ENCODING 7904
SWIDTH 840 0
DWIDTH 21 0
BBX 20 23 1 0
BITMAP
039800
07F800
067000
000000
000000
07F070
1FFC70
3FFE70
7C1F30
780760
7007C0
E00380
E00380
E00380
E00380
E00380
E00380
F00700
780F00
7C1E00
3FFE00
1FFC00
07F000
ENDCHAR
STARTCHAR 1EE1
ENCODING 7905
SWIDTH 720 0
DWIDTH 18 0
BBX 17 19 1 0
BITMAP
0E6000
1FE000
19C000
000000
000000
0F8380
3FE380
7FF380
78F980
F07B00
E03E00
E03800
E03800
E03800
F07800
78F000
7FF000
3FE000
0F8000
ENDCHAR
STARTCHAR 1EE2
ENCODING 7906
SWIDTH 840 0
DWIDTH 21 0
BBX 20 23 1 -5
BITMAP
07F070
1FFC70
3FFE70
7C1F30
780760
7007C0
E00380
E00380
E00380
E00380
E00380
E00380
F00700
780F00
7C1E00
3FFE00
1FFC00
07F000
000000
000000
01C000
01C000
01C000
ENDCHAR
STARTCHAR 1EE3
ENCODING 7907
SWIDTH 720 0
DWIDTH 18 0
BBX 17 19 1 -5
BITMAP
0F8380
3FE380
7FF380
78F980
F07B00
E03E00
E03800
E03800
E03800
F07800
78F000
7FF000
3FE000
0F8000
000000
000000
070000
070000
070000
ENDCHAR
STARTCHAR 1EE4
ENCODING 7908
SWIDTH 720 0
DWIDTH 18 0
BBX 14 23 2 -5
BITMAP
E01C
E01C
E01C
E01C
E01C
E01C
E01C
E01C
E01C
E01C
E01C
E01C
E01C
F03C
7878
7FF8
3FF0
0FC0
0000
0000
0380
0380
0380
ENDCHAR
STARTCHAR 1EE5
ENCODING 7909
SWIDTH 600 0
DWIDTH 15 0
BBX 11 19 2 -5
BITMAP
E0E0
E0E0
E0E0
E0E0
E0E0
E0E0
E0E0
E0E0
E0E0
E0E0
F1E0
FFE0
7FE0
3CE0
0000
0000
0E00
0E00
0E00
ENDCHAR
STARTCHAR 1EE6
ENCODING 7910
SWIDTH 720 0
DWIDTH 18 0
BBX 14 24 2 0
BITMAP
0780
00C0
00C0
0100
0000
0000
E01C
E01C
E01C
E01C
E01C
E01C
E01C
E01C
E01C
E01C
E01C
E01C
E01C
F03C
7878
7FF8
3FF0
0FC0
ENDCHAR
STARTCHAR 1EE7
ENCODING 7911
SWIDTH 600 0
DWIDTH 15 0
BBX 11 20 2 0
BITMAP
1E00
0300
0300
0400
0000
0000
E0E0
E0E0
E0E0
E0E0
E0E0
E0E0
E0E0
E0E0
E0E0
E0E0
F1E0
FFE0
7FE0
3CE0
ENDCHAR
STARTCHAR 1EE8
ENCODING 7912
SWIDTH 840 0
DWIDTH 21 0
BBX 19 24 2 0
BITMAP
01E000
03C000
038000
070000
000000
000000
E01CE0
E01CE0
E01CE0
E01C60
E01C60
E01CC0
E01F00
E01C00
E01C00
E01C00
E01C00
E01C00
E01C00
F03C00
787800
7FF800
3FF000
0FC000
ENDCHAR
STARTCHAR 1EE9
ENCODING 7913
SWIDTH 720 0
DWIDTH 18 0
BBX 16 20 2 0
BITMAP
03C0
0780
0700
0E00
0000
0000
E0E7
E0E7
E0E7
E0E3
E0E3
E0E6
E0F8
E0E0
E0E0
E0E0
F1E0
FFE0
7FE0
3CE0
ENDCHAR
STARTCHAR 1EEA
ENCODING 7914
SWIDTH 840 0
DWIDTH 21 0
BBX 19 24 2 0
BITMAP
0F0000
078000
038000
01C000
000000
000000
E01CE0
E01CE0
E01CE0
E01C60
E01C60
E01CC0
E01F00
E01C00
E01C00
E01C00
E01C00
E01C00
E01C00
F03C00
787800
7FF800
3FF000
0FC000
ENDCHAR
STARTCHAR 1EEB
ENCODING 7915
SWIDTH 720 0
DWIDTH 18 0
BBX 16 20 2 0
BITMAP
3C00
1E00
0E00
0700
0000
0000
E0E7
E0E7
E0E7
E0E3
E0E3
E0E6
E0F8
E0E0
E0E0
E0E0
F1E0
FFE0
7FE0
3CE0
ENDCHAR
STARTCHAR 1EEC
ENCODING 7916
SWIDTH 840 0
DWIDTH 21 0
BBX 19 24 2 0
BITMAP
078000
00C000
00C000
010000
000000
000000
E01CE0
E01CE0
E01CE0
E01C60
E01C60
E01CC0
E01F00
E01C00
E01C00
E01C00
E01C00
E01C00
E01C00
F03C00
787800
7FF800
3FF000
0FC000
ENDCHAR
STARTCHAR 1EED
ENCODING 7917
SWIDTH 720 0
DWIDTH 18 0
BBX 16 20 2 0
BITMAP
1E00
0300
0300
0400
0000
0000
E0E7
E0E7
E0E7
E0E3
E0E3
E0E6
E0F8
E0E0
E0E0
E0E0
F1E0
FFE0
7FE0
3CE0
ENDCHAR
STARTCHAR 1EEE
ENCODING 7918
SWIDTH 840 0
DWIDTH 21 0
BBX 19 23 2 0
BITMAP
0E6000
1FE000
19C000
000000
000000
E01CE0
E01CE0
E01CE0
E01C60
E01C60
E01CC0
E01F00
E01C00
E01C00
E01C00
E01C00
E01C00
E01C00
F03C00
787800
7FF800
3FF000
0FC000
ENDCHAR
STARTCHAR 1EEF
ENCODING 7919
SWIDTH 720 0
DWIDTH 18 0
BBX 16 19 2 0
BITMAP
1CC0
3FC0
3380
0000
0000
E0E7
E0E7
E0E7
E0E3
E0E3
E0E6
E0F8
E0E0
E0E0
E0E0
F1E0
FFE0
7FE0
3CE0
ENDCHAR
STARTCHAR 1EF0
ENCODING 7920
SWIDTH 840 0
DWIDTH 21 0
BBX 19 23 2 -5
BITMAP
E01CE0
E01CE0
E01CE0
E01C60
E01C60
E01CC0
E01F00
E01C00
E01C00
E01C00
E01C00
E01C00
E01C00
F03C00
787800
7FF800
3FF000
0FC000
000000
000000
038000
038000
038000
ENDCHAR
STARTCHAR 1EF1
ENCODING 7921
SWIDTH 720 0
DWIDTH 18 0
BBX 16 19 2 -5
BITMAP
E0E7
E0E7
E0E7
E0E3
E0E3
E0E6
E0F8
E0E0
E0E0
E0E0
F1E0
FFE0
7FE0
3CE0
0000
0000
0E00
0E00
0E00
ENDCHAR
STARTCHAR 1EF2
ENCODING 7922
SWIDTH 680 0
DWIDTH 17 0
BBX 15 24 1 0
BITMAP
0F00
0780
0380
01C0
0000
0000
E00E
F01E
701C
3838
3C78
1C70
0EE0
0EE0
07C0
07C0
0380
0380
0380
0380
0380
0380
0380
0380
ENDCHAR
STARTCHAR 1EF3
ENCODING 7923
SWIDTH 520 0
DWIDTH 13 0
BBX 13 25 0 -5
BITMAP
1E00
0F00
0700
0380
0000
0000
E038
E038
7070
7070
7070
38E0
38E0
3DE0
1DC0
1DC0
0F80
0F80
0F80
0700
0700
0F00
7E00
7E00
7800
ENDCHAR
STARTCHAR 1EF4
ENCODING 7924
SWIDTH 680 0
DWIDTH 17 0
BBX 15 23 1 -5
BITMAP
E00E
F01E
701C
3838
3C78
1C70
0EE0
0EE0
07C0
07C0
0380
0380
0380
0380
0380
0380
0380
0380
0000
0000
0380
0380
0380
ENDCHAR
STARTCHAR 1EF5
ENCODING 7925
SWIDTH 520 0
DWIDTH 13 0
BBX 13 19 0 -5
BITMAP
E038
E038
7070
7070
7070
38E0
38E0
3DE0
1DC0
1DC0
0F80
0F80
0F80
0700
0700
0F00
7E70
7E70
7870
ENDCHAR
STARTCHAR 1EF6
ENCODING 7926
SWIDTH 680 0
DWIDTH 17 0
BBX 15 24 1 0
BITMAP
0780
00C0
00C0
0100
0000
0000
E00E
F01E
701C
3838
3C78
1C70
0EE0
0EE0
07C0
07C0
0380
0380
0380
0380
0380
0380
0380
0380
ENDCHAR
STARTCHAR 1EF7
ENCODING 7927
SWIDTH 520 0
DWIDTH 13 0
BBX 13 25 0 -5
BITMAP
0F00
0180
0180
0200
0000
0000
E038
E038
7070
7070
7070
38E0
38E0
3DE0
1DC0
1DC0
0F80
0F80
0F80
0700
0700
0F00
7E00
7E00
7800
ENDCHAR
STARTCHAR 1EF8
ENCODING 7928
SWIDTH 680 0
DWIDTH 17 0
BBX 15 23 1 0
BITMAP
0730
0FF0
0CE0
0000
0000
E00E
F01E
701C
3838
3C78
1C70
0EE0
0EE0
07C0
07C0
0380
0380
0380
0380
0380
0380
0380
0380
ENDCHAR
STARTCHAR 1EF9
ENCODING 7929
SWIDTH 520 0
DWIDTH 13 0
BBX 13 24 0 -5
BITMAP
0E60
1FE0
19C0
0000
0000
E038
E038
7070
7070
7070
38E0
38E0
3DE0
1DC0
1DC0
0F80
0F80
0F80
0700
0700
0F00
7E00
7E00
7800
ENDCHAR
STARTCHAR 200C
ENCODING 8204
SWIDTH 0 0
DWIDTH 0 0
BBX 1 19 0 -3
BITMAP
80
80
80
80
80
80
80
80
80
80
80
80
80
80
80
80
80
80
80
ENDCHAR
STARTCHAR 200D
ENCODING 8205
SWIDTH 0 0
DWIDTH 0 0
BBX 5 20 -2 -3
BITMAP
88
50
20
70
A8
20
20
20
20
20
20
20
20
20
20
20
20
20
20
20
ENDCHAR
STARTCHAR 200E
ENCODING 8206
SWIDTH 0 0
DWIDTH 0 0
BBX 6 20 0 -3
BITMAP
10
08
FC
88
90
80
80
80
80
80
80
80
80
80
80
80
80
80
80
80
ENDCHAR
STARTCHAR 200F
ENCODING 8207
SWIDTH 0 0
DWIDTH 0 0
BBX 6 20 -5 -3
BITMAP
20
40
FC
44
24
04
04
04
04
04
04
04
04
04
04
04
04
04
04
04
ENDCHAR
STARTCHAR 2013
ENCODING 8211
SWIDTH 560 0
DWIDTH 14 0
BBX 14 3 0 5
BITMAP
FFFC
FFFC
FFFC
ENDCHAR
STARTCHAR 2014
ENCODING 8212
SWIDTH 1000 0
DWIDTH 25 0
BBX 25 3 0 5
BITMAP
FFFFFF80
FFFFFF80
FFFFFF80
ENDCHAR
STARTCHAR 2015
ENCODING 8213
SWIDTH 1000 0
DWIDTH 25 0
BBX 23 3 1 5
BITMAP
FFFFFE
FFFFFE
FFFFFE
ENDCHAR
STARTCHAR 2017
ENCODING 8215
SWIDTH 560 0
DWIDTH 14 0
BBX 15 8 -1 -11
BITMAP
FFFE
FFFE
FFFE
0000
0000
FFFE
FFFE
FFFE
ENDCHAR
STARTCHAR 2018
ENCODING 8216
SWIDTH 280 0
DWIDTH 7 0
BBX 3 7 2 11
BITMAP
20
60
C0
C0
E0
E0
E0
ENDCHAR
STARTCHAR 2019
ENCODING 8217
SWIDTH 280 0
DWIDTH 7 0
BBX 3 7 2 11
BITMAP
E0
E0
E0
60
60
C0
80
ENDCHAR
STARTCHAR 201A
ENCODING 8218
SWIDTH 280 0
DWIDTH 7 0
BBX 3 7 2 -4
BITMAP
E0
E0
E0
60
60
C0
80
ENDCHAR
STARTCHAR 201B
ENCODING 8219
SWIDTH 280 0
DWIDTH 7 0
BBX 3 7 2 11
BITMAP
E0
E0
E0
C0
C0
60
20
ENDCHAR
STARTCHAR 201C
ENCODING 8220
SWIDTH 520 0
DWIDTH 13 0
BBX 8 7 3 11
BITMAP
21
63
C6
C6
E7
E7
E7
ENDCHAR
STARTCHAR 201D
ENCODING 8221
SWIDTH 520 0
DWIDTH 13 0
BBX 8 7 2 11
BITMAP
E7
E7
E7
63
63
C6
84
ENDCHAR
STARTCHAR 201E
ENCODING 8222
SWIDTH 520 0
DWIDTH 13 0
BBX 8 7 2 -4
BITMAP
E7
E7
E7
63
63
C6
84
ENDCHAR
STARTCHAR 2020
ENCODING 8224
SWIDTH 560 0
DWIDTH 14 0
BBX 11 22 1 -4
BITMAP
0E00
0E00
0E00
0E00
0E00
FFE0
FFE0
FFE0
0E00
0E00
0E00
0E00
0E00
0E00
0E00
0E00
0E00
0E00
0E00
0E00
0E00
0E00
ENDCHAR
STARTCHAR 2021
ENCODING 8225
SWIDTH 560 0
DWIDTH 14 0
BBX 13 22 0 -4
BITMAP
0700
0700
0700
0700
FFF8
FFF8
FFF8
0700
0700
0700
0700
0700
0700
0700
0700
FFF8
FFF8
FFF8
0700
0700
0700
0700
ENDCHAR
STARTCHAR 2022
ENCODING 8226
SWIDTH 360 0
DWIDTH 9 0
BBX 7 7 1 5
BITMAP
38
7C
FE
FE
FE
7C
38
ENDCHAR
STARTCHAR 2026
ENCODING 8230
SWIDTH 1000 0
DWIDTH 25 0
BBX 19 3 2 0
BITMAP
E0E0E0
E0E0E0
E0E0E0
ENDCHAR
STARTCHAR 202A
ENCODING 8234
SWIDTH 0 0
DWIDTH 0 0
BBX 6 18 0 -3
BITMAP
FC
80
80
80
80
80
80
80
80
80
80
80
80
80
80
80
80
80
ENDCHAR
STARTCHAR 202B
ENCODING 8235
SWIDTH 0 0
DWIDTH 0 0
BBX 6 18 -5 -3
BITMAP
FC
04
04
04
04
04
04
04
04
04
04
04
04
04
04
04
04
04
ENDCHAR
STARTCHAR 202C
ENCODING 8236
SWIDTH 0 0
DWIDTH 0 0
BBX 5 20 -2 -3
BITMAP
F8
F8
F8
F8
F8
20
20
20
20
20
20
20
20
20
20
20
20
20
20
20
ENDCHAR
STARTCHAR 202D
ENCODING 8237
SWIDTH 0 0
DWIDTH 0 0
BBX 5 21 -2 -3
BITMAP
F8
80
80
80
80
F8
20
20
20
20
20
20
20
20
20
20
20
20
20
20
20
ENDCHAR
STARTCHAR 202E
ENCODING 8238
SWIDTH 0 0
DWIDTH 0 0
BBX 5 21 -2 -3
BITMAP
F8
08
08
08
08
F8
20
20
20
20
20
20
20
20
20
20
20
20
20
20
20
ENDCHAR
STARTCHAR 2030
ENCODING 8240
SWIDTH 920 0
DWIDTH 23 0
BBX 23 19 0 -1
BITMAP
783000
787000
CC6000
CC6000
CCC000
CCC000
CCC000
798000
798000
038000
033C3C
033C3C
066666
066666
066666
0C6666
0C6666
1C3C3C
183C3C
ENDCHAR
STARTCHAR 2032
ENCODING 8242
SWIDTH 240 0
DWIDTH 6 0
BBX 4 6 2 12
BITMAP
70
E0
E0
E0
C0
C0
ENDCHAR
STARTCHAR 2033
ENCODING 8243
SWIDTH 480 0
DWIDTH 12 0
BBX 10 6 2 12
BITMAP
71C0
E380
E380
E380
C300
C300
ENDCHAR
STARTCHAR 2039
ENCODING 8249
SWIDTH 320 0
DWIDTH 8 0
BBX 6 11 1 1
BITMAP
1C
38
38
70
70
E0
70
70
38
38
1C
ENDCHAR
STARTCHAR 203A
ENCODING 8250
SWIDTH 320 0
DWIDTH 8 0
BBX 6 11 1 1
BITMAP
E0
70
70
38
38
1C
38
38
70
70
E0
ENDCHAR
STARTCHAR 203C
ENCODING 8252
SWIDTH 600 0
DWIDTH 15 0
BBX 9 18 3 0
BITMAP
E380
E380
E380
E380
E380
E380
E380
E380
E380
E380
6180
4100
4100
0000
0000
E380
E380
E380
ENDCHAR
STARTCHAR 203E
ENCODING 8254
SWIDTH 320 0
DWIDTH 8 0
BBX 10 3 -1 14
BITMAP
FFC0
FFC0
FFC0
ENDCHAR
STARTCHAR 2044
ENCODING 8260
SWIDTH 160 0
DWIDTH 4 0
BBX 11 19 -3 -1
BITMAP
0060
0060
00C0
00C0
0180
0180
0300
0300
0600
0E00
0C00
1C00
1800
3000
3000
6000
6000
C000
C000
ENDCHAR
STARTCHAR 206A
ENCODING 8298
SWIDTH 0 0
DWIDTH 0 0
BBX 5 21 -2 -3
BITMAP
F8
20
20
20
20
F8
20
20
20
20
20
20
20
20
20
20
20
20
20
20
20
ENDCHAR
STARTCHAR 206B
ENCODING 8299
SWIDTH 0 0
DWIDTH 0 0
BBX 5 21 -2 -3
BITMAP
F8
88
88
88
88
F8
20
20
20
20
20
20
20
20
20
20
20
20
20
20
20
ENDCHAR
STARTCHAR 206C
ENCODING 8300
SWIDTH 0 0
DWIDTH 0 0
BBX 5 20 -2 -3
BITMAP
F8
70
70
20
20
20
20
20
20
20
20
20
20
20
20
20
20
20
20
20
ENDCHAR
STARTCHAR 206D
ENCODING 8301
SWIDTH 0 0
DWIDTH 0 0
BBX 5 20 -2 -3
BITMAP
20
20
70
70
F8
20
20
20
20
20
20
20
20
20
20
20
20
20
20
20
ENDCHAR
STARTCHAR 206E
ENCODING 8302
SWIDTH 0 0
DWIDTH 0 0
BBX 5 20 -2 -3
BITMAP
20
50
88
50
20
20
20
20
20
20
20
20
20
20
20
20
20
20
20
20
ENDCHAR
STARTCHAR 206F
ENCODING 8303
SWIDTH 0 0
DWIDTH 0 0
BBX 5 21 -2 -3
BITMAP
E0
20
20
20
20
F8
20
20
20
20
20
20
20
20
20
20
20
20
20
20
20
ENDCHAR
STARTCHAR 207F
ENCODING 8319
SWIDTH 400 0
DWIDTH 10 0
BBX 7 8 1 6
BITMAP
DC
FE
C6
C6
C6
C6
C6
C6
ENDCHAR
STARTCHAR 20A3
ENCODING 8355
SWIDTH 560 0
DWIDTH 14 0
BBX 13 18 0 0
BITMAP
3FF8
3FF8
3FF8
3800
3800
3800
3800
3FF0
3FF0
3FF0
3800
3800
3800
FF00
FF00
FF00
3800
3800
ENDCHAR
STARTCHAR 20A4
ENCODING 8356
SWIDTH 560 0
DWIDTH 14 0
BBX 14 18 0 0
BITMAP
0F80
3FE0
7FE0
78F0
7070
7000
FF00
FF00
3800
3800
FF00
FF00
3800
7000
FE08
FFF8
7FFC
41F8
ENDCHAR
STARTCHAR 20A7
ENCODING 8359
SWIDTH 1040 0
DWIDTH 26 0
BBX 25 18 0 0
BITMAP
FE1C0000
FF9C0000
FFDC0000
E3DC0000
E1FFFC00
E1FFFF00
E1FFFF00
E3DDC780
FF9DC380
FF9DF000
FE1CFC00
E01C7F00
E01C0F80
E01DC380
E01DE780
E01FFF80
E01FFF00
E00E7C00
ENDCHAR
STARTCHAR 20AA
ENCODING 8362
SWIDTH 800 0
DWIDTH 20 0
BBX 18 14 1 0
BITMAP
FFE1C0
FFF9C0
FFF9C0
E039C0
E039C0
E739C0
E739C0
E739C0
E739C0
E701C0
E701C0
E7FFC0
E7FFC0
E7FF00
ENDCHAR
STARTCHAR 20AB
ENCODING 8363
SWIDTH 520 0
DWIDTH 13 0
BBX 10 15 2 3
BITMAP
0FC0
0FC0
0180
3D80
7F80
E380
C180
C180
C180
E380
7F80
3D80
0000
FFC0
FFC0
ENDCHAR
STARTCHAR 20AC
ENCODING 8364
SWIDTH 560 0
DWIDTH 14 0
BBX 14 18 -1 0
BITMAP
01F8
07FC
0FFC
1E04
1C00
3800
7FF8
FFF0
3800
3800
7FF0
FFE0
3800
1C00
1E04
0FFC
07FC
01F8
ENDCHAR
STARTCHAR 2105
ENCODING 8453
SWIDTH 880 0
DWIDTH 22 0
BBX 21 18 0 0
BITMAP
3E0300
7F0300
E18600
C00E00
C00C00
C19C00
E39800
7F3000
3E3000
0063E0
0067F0
00CE38
00CC18
018C18
038C18
030E38
0607F0
0603E0
ENDCHAR
STARTCHAR 2113
ENCODING 8467
SWIDTH 480 0
DWIDTH 12 0
BBX 11 18 0 0
BITMAP
0780
0FC0
1FE0
1CE0
38E0
39E0
3BC0
3FC0
3F00
7E00
F800
7800
7800
3800
3C20
1FE0
0FE0
07C0
ENDCHAR
STARTCHAR 2116
ENCODING 8470
SWIDTH 1120 0
DWIDTH 28 0
BBX 25 18 2 0
BITMAP
E01C0000
F01C0000
F81C3C00
F81C7F00
FC1CFF00
FC1CE380
EE1CE380
EF1CE380
E71CE380
E39C7F00
E3DC7F00
E1DC3E00
E0FC0000
E0FC0000
E07CFF80
E07CFF80
E03CFF80
E01C0000
ENDCHAR
STARTCHAR 2122
ENCODING 8482
SWIDTH 1000 0
DWIDTH 25 0
BBX 19 10 3 8
BITMAP
FF70E0
FF79E0
1879E0
1879E0
186960
186F60
186F60
186F60
186660
186660
ENDCHAR
STARTCHAR 2126
ENCODING 8486
SWIDTH 760 0
DWIDTH 19 0
BBX 18 18 1 0
BITMAP
07F800
1FFE00
3FFF00
7C0F80
780780
F003C0
E001C0
E001C0
E001C0
E001C0
E001C0
700380
700380
380700
1E1E00
FF3FC0
FF3FC0
FF3FC0
ENDCHAR
STARTCHAR 212E
ENCODING 8494
SWIDTH 600 0
DWIDTH 15 0
BBX 13 14 1 0
BITMAP
0F80
3060
6030
6030
E038
E038
FFF8
E000
E000
E000
6010
6020
3040
0F80
ENDCHAR
STARTCHAR 2153
ENCODING 8531
SWIDTH 840 0
DWIDTH 21 0
BBX 19 18 1 0
BITMAP
180600
780E00
F80C00
D81800
181800
183000
187000
186000
18E000
00C7C0
018FE0
018C60
0301C0
0701C0
060060
0C0C60
0C0FE0
180780
ENDCHAR
STARTCHAR 2154
ENCODING 8532
SWIDTH 840 0
DWIDTH 21 0
BBX 20 18 0 0
BITMAP
7C0300
FE0700
C60600
060C00
0C0C00
181800
303800
7E3000
FE7000
0063E0
00C7F0
00C630
0180E0
0380E0
030030
070630
0607F0
0C03C0
ENDCHAR
STARTCHAR 215B
ENCODING 8539
SWIDTH 840 0
DWIDTH 21 0
BBX 19 18 1 0
BITMAP
180600
780E00
F80C00
D81C00
181800
183000
183000
186000
18E000
00C7C0
018FE0
018C60
0307C0
0707C0
060C60
0E0C60
0C0FE0
1807C0
ENDCHAR
STARTCHAR 215C
ENCODING 8540
SWIDTH 840 0
DWIDTH 21 0
BBX 20 18 0 0
BITMAP
7C0300
FE0700
C60600
1C0E00
1E0C00
061800
C61800
FE3000
7C7000
0063E0
00C7F0
00C630
0183E0
0183E0
030630
070630
0607F0
0C03E0
ENDCHAR
STARTCHAR 215D
ENCODING 8541
SWIDTH 840 0
DWIDTH 21 0
BBX 20 18 0 0
BITMAP
7E0300
7E0700
600600
FC0C00
FE1C00
061800
063000
FE3000
7C6000
00E3E0
00C7F0
018630
0383E0
0303E0
060630
060630
0C07F0
1C03E0
ENDCHAR
STARTCHAR 215E
ENCODING 8542
SWIDTH 840 0
DWIDTH 21 0
BBX 20 18 0 0
BITMAP
FE0700
FE0600
0C0C00
180C00
301800
303800
603000
606000
60E000
00C3E0
0187F0
018630
0303E0
0703E0
060630
0C0630
1C07F0
1803E0
ENDCHAR
STARTCHAR 2190
ENCODING 8592
SWIDTH 1000 0
DWIDTH 25 0
BBX 23 9 1 2
BITMAP
040000
080000
180000
300000
FFFFFE
700000
300000
180000
0C0000
ENDCHAR
STARTCHAR 2191
ENCODING 8593
SWIDTH 520 0
DWIDTH 13 0
BBX 9 21 2 -5
BITMAP
1800
1C00
3C00
6E00
CB00
0880
0800
0800
0800
0800
0800
0800
0800
0800
0800
0800
0800
0800
0800
0800
0800
ENDCHAR
STARTCHAR 2192
ENCODING 8594
SWIDTH 1000 0
DWIDTH 25 0
BBX 23 9 1 2
BITMAP
000040
000020
000030
000018
FFFFFE
00001C
000038
000020
000060
ENDCHAR
STARTCHAR 2193
ENCODING 8595
SWIDTH 520 0
DWIDTH 13 0
BBX 9 21 2 -5
BITMAP
0800
0800
0800
0800
0800
0800
0800
0800
0800
0800
0800
0800
0800
0800
0800
0880
CB00
6E00
3C00
1C00
0800
ENDCHAR
STARTCHAR 2194
ENCODING 8596
SWIDTH 1000 0
DWIDTH 25 0
BBX 23 9 1 2
BITMAP
040040
080020
180030
300018
FFFFFE
70001C
300038
180030
0C0060
ENDCHAR
STARTCHAR 2195
ENCODING 8597
SWIDTH 520 0
DWIDTH 13 0
BBX 9 23 2 -5
BITMAP
0800
1800
3C00
3E00
6B00
8980
0800
0800
0800
0800
0800
0800
0800
0800
0800
0800
0800
0880
CB00
6E00
3C00
1C00
0800
ENDCHAR
STARTCHAR 21A8
ENCODING 8616
SWIDTH 520 0
DWIDTH 13 0
BBX 9 26 2 -8
BITMAP
0800
1800
3C00
3E00
6B00
8980
0800
0800
0800
0800
0800
0800
0800
0800
0800
0800
0800
0880
CB00
6E00
3C00
1C00
0800
0000
FF80
FF80
ENDCHAR
STARTCHAR 2202
ENCODING 8706
SWIDTH 480 0
DWIDTH 12 0
BBX 11 18 0 0
BITMAP
0700
1FC0
1FC0
38E0
1060
0060
0060
07E0
1FE0
3FE0
7C60
F0C0
E0C0
E1C0
E380
FF80
7F00
3C00
ENDCHAR
STARTCHAR 2206
ENCODING 8710
SWIDTH 640 0
DWIDTH 16 0
BBX 15 19 1 0
BITMAP
0080
0080
0180
01C0
03C0
03C0
04E0
04E0
08E0
0870
1070
1070
2038
2038
4038
401C
801C
801C
FFFE
ENDCHAR
STARTCHAR 220F
ENCODING 8719
SWIDTH 840 0
DWIDTH 21 0
BBX 17 23 2 -5
BITMAP
FFFF80
FFFF80
FFFF80
E00380
E00380
E00380
E00380
E00380
E00380
E00380
E00380
E00380
E00380
E00380
E00380
E00380
E00380
E00380
E00380
E00380
E00380
E00380
E00380
ENDCHAR
STARTCHAR 2211
ENCODING 8721
SWIDTH 720 0
DWIDTH 18 0
BBX 15 23 2 -5
BITMAP
FFFE
FFFE
FFFE
7000
3800
1C00
0E00
0E00
0700
0380
01C0
01E0
01C0
0380
0700
0E00
0E00
1C00
3800
7000
FFFE
FFFE
FFFE
ENDCHAR
STARTCHAR 2212
ENCODING 8722
SWIDTH 600 0
DWIDTH 15 0
BBX 13 3 1 7
BITMAP
FFF8
FFF8
FFF8
ENDCHAR
STARTCHAR 2215
ENCODING 8725
SWIDTH 160 0
DWIDTH 4 0
BBX 11 19 -3 -1
BITMAP
0060
0060
00C0
00C0
0180
0180
0300
0300
0600
0E00
0C00
1C00
1800
3000
3000
6000
6000
C000
C000
ENDCHAR
STARTCHAR 2219
ENCODING 8729
SWIDTH 280 0
DWIDTH 7 0
BBX 3 3 2 7
BITMAP
E0
E0
E0
ENDCHAR
STARTCHAR 221A
ENCODING 8730
SWIDTH 560 0
DWIDTH 14 0
BBX 13 24 1 0
BITMAP
0008
0008
0018
0010
0010
0010
0010
0010
0010
0030
1020
2820
C820
0820
0420
0420
0260
0240
0240
0140
0140
00C0
00C0
0080
ENDCHAR
STARTCHAR 221E
ENCODING 8734
SWIDTH 720 0
DWIDTH 18 0
BBX 14 9 2 5
BITMAP
0070
78F8
FD9C
CF0C
C70C
CF0C
FD9C
78F8
0070
ENDCHAR
STARTCHAR 221F
ENCODING 8735
SWIDTH 960 0
DWIDTH 24 0
BBX 16 16 4 0
BITMAP
C000
C000
C000
C000
C000
C000
C000
C000
C000
C000
C000
C000
C000
C000
C000
FFFF
ENDCHAR
STARTCHAR 2229
ENCODING 8745
SWIDTH 720 0
DWIDTH 18 0
BBX 14 18 2 0
BITMAP
0780
1FE0
3FF0
7878
7038
E01C
E01C
E01C
E01C
E01C
E01C
E01C
E01C
E01C
E01C
E01C
E01C
E01C
ENDCHAR
STARTCHAR 222B
ENCODING 8747
SWIDTH 280 0
DWIDTH 7 0
BBX 7 26 0 -3
BITMAP
0E
0E
16
10
18
18
18
18
18
18
18
18
18
18
18
18
18
18
18
18
18
18
08
D0
F0
E0
ENDCHAR
STARTCHAR 2248
ENCODING 8776
SWIDTH 560 0
DWIDTH 14 0
BBX 13 11 0 3
BITMAP
3C00
FF18
FFF8
C7F8
01E0
0000
3C00
FF18
FFF8
C7F8
01E0
ENDCHAR
STARTCHAR 2260
ENCODING 8800
SWIDTH 560 0
DWIDTH 14 0
BBX 13 18 0 0
BITMAP
00F0
00E0
00E0
01C0
01C0
FFF8
FFF8
FFF8
0700
0700
FFF8
FFF8
FFF8
1C00
1C00
1C00
3800
3800
ENDCHAR
STARTCHAR 2261
ENCODING 8801
SWIDTH 600 0
DWIDTH 15 0
BBX 13 13 1 3
BITMAP
FFF8
FFF8
FFF8
0000
0000
FFF8
FFF8
FFF8
0000
0000
FFF8
FFF8
FFF8
ENDCHAR
STARTCHAR 2264
ENCODING 8804
SWIDTH 560 0
DWIDTH 14 0
BBX 12 18 1 0
BITMAP
0010
0070
03F0
0FE0
3F80
FC00
F000
F000
FE00
3F80
0FE0
01F0
0070
0010
0000
FFF0
FFF0
FFF0
ENDCHAR
STARTCHAR 2265
ENCODING 8805
SWIDTH 560 0
DWIDTH 14 0
BBX 12 18 1 0
BITMAP
8000
E000
F800
7F00
1FC0
03F0
00F0
00F0
07F0
1FC0
7F00
F800
E000
8000
0000
FFF0
FFF0
FFF0
ENDCHAR
STARTCHAR 2302
ENCODING 8962
SWIDTH 600 0
DWIDTH 15 0
BBX 11 14 2 0
BITMAP
0400
0E00
1B00
3180
60C0
4040
8020
8020
8020
8020
8020
8020
8020
FFE0
ENDCHAR
STARTCHAR 2310
ENCODING 8976
SWIDTH 600 0
DWIDTH 15 0
BBX 12 8 1 6
BITMAP
FFF0
FFF0
FFF0
E000
E000
E000
E000
E000
ENDCHAR
STARTCHAR 2320
ENCODING 8992
SWIDTH 600 0
DWIDTH 15 0
BBX 5 27 7 -6
BITMAP
78
D8
80
80
80
80
80
80
80
80
80
80
80
80
80
80
80
80
80
80
80
80
80
80
80
80
80
ENDCHAR
STARTCHAR 2321
ENCODING 8993
SWIDTH 600 0
DWIDTH 15 0
BBX 5 27 3 -6
BITMAP
08
08
08
08
08
08
08
08
08
08
08
08
08
08
08
08
08
08
08
08
08
08
08
08
08
C8
F0
ENDCHAR
STARTCHAR 2500
ENCODING 9472
SWIDTH 720 0
DWIDTH 18 0
BBX 18 2 0 7
BITMAP
FFFFC0
FFFFC0
ENDCHAR
STARTCHAR 2502
ENCODING 9474
SWIDTH 640 0
DWIDTH 16 0
BBX 2 31 6 -8
BITMAP
C0
C0
C0
C0
C0
C0
C0
C0
C0
C0
C0
C0
C0
C0
C0
C0
C0
C0
C0
C0
C0
C0
C0
C0
C0
C0
C0
C0
C0
C0
C0
ENDCHAR
STARTCHAR 250C
ENCODING 9484
SWIDTH 720 0
DWIDTH 18 0
BBX 10 17 8 -8
BITMAP
FFC0
FFC0
C000
C000
C000
C000
C000
C000
C000
C000
C000
C000
C000
C000
C000
C000
C000
ENDCHAR
STARTCHAR 2510
ENCODING 9488
SWIDTH 720 0
DWIDTH 18 0
BBX 10 17 0 -8
BITMAP
FFC0
FFC0
00C0
00C0
00C0
00C0
00C0
00C0
00C0
00C0
00C0
00C0
00C0
00C0
00C0
00C0
00C0
ENDCHAR
STARTCHAR 2514
ENCODING 9492
SWIDTH 720 0
DWIDTH 18 0
BBX 10 16 8 7
BITMAP
C000
C000
C000
C000
C000
C000
C000
C000
C000
C000
C000
C000
C000
C000
FFC0
FFC0
ENDCHAR
STARTCHAR 2518
ENCODING 9496
SWIDTH 720 0
DWIDTH 18 0
BBX 10 16 0 7
BITMAP
00C0
00C0
00C0
00C0
00C0
00C0
00C0
00C0
00C0
00C0
00C0
00C0
00C0
00C0
FFC0
FFC0
ENDCHAR
STARTCHAR 251C
ENCODING 9500
SWIDTH 720 0
DWIDTH 18 0
BBX 10 31 8 -8
BITMAP
C000
C000
C000
C000
C000
C000
C000
C000
C000
C000
C000
C000
C000
C000
FFC0
FFC0
C000
C000
C000
C000
C000
C000
C000
C000
C000
C000
C000
C000
C000
C000
C000
ENDCHAR
STARTCHAR 2524
ENCODING 9508
SWIDTH 720 0
DWIDTH 18 0
BBX 10 31 0 -8
BITMAP
00C0
00C0
00C0
00C0
00C0
00C0
00C0
00C0
00C0
00C0
00C0
00C0
00C0
00C0
FFC0
FFC0
00C0
00C0
00C0
00C0
00C0
00C0
00C0
00C0
00C0
00C0
00C0
00C0
00C0
00C0
00C0
ENDCHAR
STARTCHAR 252C
ENCODING 9516
SWIDTH 720 0
DWIDTH 18 0
BBX 18 17 0 -8
BITMAP
FFFFC0
FFFFC0
00C000
00C000
00C000
00C000
00C000
00C000
00C000
00C000
00C000
00C000
00C000
00C000
00C000
00C000
00C000
ENDCHAR
STARTCHAR 2534
ENCODING 9524
SWIDTH 720 0
DWIDTH 18 0
BBX 18 16 0 7
BITMAP
00C000
00C000
00C000
00C000
00C000
00C000
00C000
00C000
00C000
00C000
00C000
00C000
00C000
00C000
FFFFC0
FFFFC0
ENDCHAR
STARTCHAR 253C
ENCODING 9532
SWIDTH 720 0
DWIDTH 18 0
BBX 18 31 0 -8
BITMAP
00C000
00C000
00C000
00C000
00C000
00C000
00C000
00C000
00C000
00C000
00C000
00C000
00C000
00C000
FFFFC0
FFFFC0
00C000
00C000
00C000
00C000
00C000
00C000
00C000
00C000
00C000
00C000
00C000
00C000
00C000
00C000
00C000
ENDCHAR
STARTCHAR 2550
ENCODING 9552
SWIDTH 720 0
DWIDTH 18 0
BBX 18 7 0 4
BITMAP
FFFFC0
FFFFC0
000000
000000
000000
FFFFC0
FFFFC0
ENDCHAR
STARTCHAR 2551
ENCODING 9553
SWIDTH 720 0
DWIDTH 18 0
BBX 7 31 5 -8
BITMAP
E6
E6
E6
E6
E6
E6
E6
E6
E6
E6
E6
E6
E6
E6
E6
E6
E6
E6
E6
E6
E6
E6
E6
E6
E6
E6
E6
E6
E6
E6
E6
ENDCHAR
STARTCHAR 2552
ENCODING 9554
SWIDTH 720 0
DWIDTH 18 0
BBX 10 19 8 -8
BITMAP
FFC0
FFC0
C000
C000
C000
FFC0
FFC0
C000
C000
C000
C000
C000
C000
C000
C000
C000
C000
C000
C000
ENDCHAR
STARTCHAR 2553
ENCODING 9555
SWIDTH 720 0
DWIDTH 18 0
BBX 13 17 5 -8
BITMAP
FFF8
FFF8
FE00
E600
E600
E600
E600
E600
E600
E600
E600
E600
E600
E600
E600
E600
E600
ENDCHAR
STARTCHAR 2554
ENCODING 9556
SWIDTH 720 0
DWIDTH 18 0
BBX 13 19 5 -8
BITMAP
FFF8
FFF8
E000
E000
E000
E7F8
E7F8
E600
E600
E600
E600
E600
E600
E600
E600
E600
E600
E600
E600
ENDCHAR
STARTCHAR 2555
ENCODING 9557
SWIDTH 720 0
DWIDTH 18 0
BBX 10 19 0 -8
BITMAP
FFC0
FFC0
00C0
00C0
00C0
FFC0
FFC0
00C0
00C0
00C0
00C0
00C0
00C0
00C0
00C0
00C0
00C0
00C0
00C0
ENDCHAR
STARTCHAR 2556
ENCODING 9558
SWIDTH 720 0
DWIDTH 18 0
BBX 12 17 0 -8
BITMAP
FFF0
FFF0
0730
0730
0730
0730
0730
0730
0730
0730
0730
0730
0730
0730
0730
0730
0730
ENDCHAR
STARTCHAR 2557
ENCODING 9559
SWIDTH 720 0
DWIDTH 18 0
BBX 12 19 0 -8
BITMAP
FFF0
FFF0
0030
0030
0030
FF30
FF30
0730
0730
0730
0730
0730
0730
0730
0730
0730
0730
0730
0730
ENDCHAR
STARTCHAR 2558
ENCODING 9560
SWIDTH 720 0
DWIDTH 18 0
BBX 10 19 8 4
BITMAP
C000
C000
C000
C000
C000
C000
C000
C000
C000
C000
C000
C000
FFC0
FFC0
C000
C000
C000
FFC0
FFC0
ENDCHAR
STARTCHAR 2559
ENCODING 9561
SWIDTH 720 0
DWIDTH 18 0
BBX 13 16 5 7
BITMAP
E600
E600
E600
E600
E600
E600
E600
E600
E600
E600
E600
E600
E600
E600
FFF8
FFF8
ENDCHAR
STARTCHAR 255A
ENCODING 9562
SWIDTH 720 0
DWIDTH 18 0
BBX 13 19 5 4
BITMAP
E600
E600
E600
E600
E600
E600
E600
E600
E600
E600
E600
E600
E7F8
E7F8
E000
E000
E000
FFF8
FFF8
ENDCHAR
STARTCHAR 255B
ENCODING 9563
SWIDTH 720 0
DWIDTH 18 0
BBX 10 19 0 4
BITMAP
00C0
00C0
00C0
00C0
00C0
00C0
00C0
00C0
00C0
00C0
00C0
00C0
FFC0
FFC0
00C0
00C0
00C0
FFC0
FFC0
ENDCHAR
STARTCHAR 255C
ENCODING 9564
SWIDTH 720 0
DWIDTH 18 0
BBX 12 16 0 7
BITMAP
0730
0730
0730
0730
0730
0730
0730
0730
0730
0730
0730
0730
0730
0730
FFF0
FFF0
ENDCHAR
STARTCHAR 255D
ENCODING 9565
SWIDTH 720 0
DWIDTH 18 0
BBX 12 19 0 4
BITMAP
0730
0730
0730
0730
0730
0730
0730
0730
0730
0730
0730
0730
FF30
FF30
0030
0030
0030
FFF0
FFF0
ENDCHAR
STARTCHAR 255E
ENCODING 9566
SWIDTH 720 0
DWIDTH 18 0
BBX 10 31 8 -8
BITMAP
C000
C000
C000
C000
C000
C000
C000
C000
C000
C000
C000
C000
FFC0
FFC0
C000
C000
C000
FFC0
FFC0
C000
C000
C000
C000
C000
C000
C000
C000
C000
C000
C000
C000
ENDCHAR
STARTCHAR 255F
ENCODING 9567
SWIDTH 720 0
DWIDTH 18 0
BBX 13 31 5 -8
BITMAP
E600
E600
E600
E600
E600
E600
E600
E600
E600
E600
E600
E600
E600
E600
E7F8
E7F8
E600
E600
E600
E600
E600
E600
E600
E600
E600
E600
E600
E600
E600
E600
E600
ENDCHAR
STARTCHAR 2560
ENCODING 9568
SWIDTH 720 0
DWIDTH 18 0
BBX 13 31 5 -8
BITMAP
E600
E600
E600
E600
E600
E600
E600
E600
E600
E600
E600
E600
E7F8
E7F8
E000
E000
E000
E7F8
E7F8
E600
E600
E600
E600
E600
E600
E600
E600
E600
E600
E600
E600
ENDCHAR
STARTCHAR 2561
ENCODING 9569
SWIDTH 720 0
DWIDTH 18 0
BBX 10 31 0 -8
BITMAP
00C0
00C0
00C0
00C0
00C0
00C0
00C0
00C0
00C0
00C0
00C0
00C0
FFC0
FFC0
00C0
00C0
00C0
FFC0
FFC0
00C0
00C0
00C0
00C0
00C0
00C0
00C0
00C0
00C0
00C0
00C0
00C0
ENDCHAR
STARTCHAR 2562
ENCODING 9570
SWIDTH 720 0
DWIDTH 18 0
BBX 12 31 0 -8
BITMAP
0730
0730
0730
0730
0730
0730
0730
0730
0730
0730
0730
0730
0730
0730
FF30
FF30
0730
0730
0730
0730
0730
0730
0730
0730
0730
0730
0730
0730
0730
0730
0730
ENDCHAR
STARTCHAR 2563
ENCODING 9571
SWIDTH 720 0
DWIDTH 18 0
BBX 12 31 0 -8
BITMAP
0730
0730
0730
0730
0730
0730
0730
0730
0730
0730
0730
0730
FF30
FF30
0030
0030
0030
FF30
FF30
0730
0730
0730
0730
0730
0730
0730
0730
0730
0730
0730
0730
ENDCHAR
STARTCHAR 2564
ENCODING 9572
SWIDTH 720 0
DWIDTH 18 0
BBX 18 19 0 -8
BITMAP
FFFFC0
FFFFC0
000000
000000
000000
FFFFC0
FFFFC0
00C000
00C000
00C000
00C000
00C000
00C000
00C000
00C000
00C000
00C000
00C000
00C000
ENDCHAR
STARTCHAR 2565
ENCODING 9573
SWIDTH 720 0
DWIDTH 18 0
BBX 18 17 0 -8
BITMAP
FFFFC0
FFFFC0
07F000
073000
073000
073000
073000
073000
073000
073000
073000
073000
073000
073000
073000
073000
073000
ENDCHAR
STARTCHAR 2566
ENCODING 9574
SWIDTH 720 0
DWIDTH 18 0
BBX 18 19 0 -8
BITMAP
FFFFC0
FFFFC0
000000
000000
000000
FF3FC0
FF3FC0
073000
073000
073000
073000
073000
073000
073000
073000
073000
073000
073000
073000
ENDCHAR
STARTCHAR 2567
ENCODING 9575
SWIDTH 720 0
DWIDTH 18 0
BBX 18 19 0 4
BITMAP
00C000
00C000
00C000
00C000
00C000
00C000
00C000
00C000
00C000
00C000
00C000
00C000
FFFFC0
FFFFC0
000000
000000
000000
FFFFC0
FFFFC0
ENDCHAR
STARTCHAR 2568
ENCODING 9576
SWIDTH 720 0
DWIDTH 18 0
BBX 18 16 0 7
BITMAP
073000
073000
073000
073000
073000
073000
073000
073000
073000
073000
073000
073000
073000
073000
FFFFC0
FFFFC0
ENDCHAR
STARTCHAR 2569
ENCODING 9577
SWIDTH 720 0
DWIDTH 18 0
BBX 18 19 0 4
BITMAP
073000
073000
073000
073000
073000
073000
073000
073000
073000
073000
073000
073000
FF3FC0
FF3FC0
000000
000000
000000
FFFFC0
FFFFC0
ENDCHAR
STARTCHAR 256A
ENCODING 9578
SWIDTH 720 0
DWIDTH 18 0
BBX 18 31 0 -8
BITMAP
00C000
00C000
00C000
00C000
00C000
00C000
00C000
00C000
00C000
00C000
00C000
00C000
FFFFC0
FFFFC0
00C000
00C000
00C000
FFFFC0
FFFFC0
00C000
00C000
00C000
00C000
00C000
00C000
00C000
00C000
00C000
00C000
00C000
00C000
ENDCHAR
STARTCHAR 256B
ENCODING 9579
SWIDTH 720 0
DWIDTH 18 0
BBX 18 31 0 -8
BITMAP
073000
073000
073000
073000
073000
073000
073000
073000
073000
073000
073000
073000
073000
073000
FFFFC0
FFFFC0
073000
073000
073000
073000
073000
073000
073000
073000
073000
073000
073000
073000
073000
073000
073000
ENDCHAR
STARTCHAR 256C
ENCODING 9580
SWIDTH 720 0
DWIDTH 18 0
BBX 18 31 0 -8
BITMAP
073000
073000
073000
073000
073000
073000
073000
073000
073000
073000
073000
073000
FF3FC0
FF3FC0
000000
000000
000000
FF3FC0
FF3FC0
073000
073000
073000
073000
073000
073000
073000
073000
073000
073000
073000
073000
ENDCHAR
STARTCHAR 2580
ENCODING 9600
SWIDTH 720 0
DWIDTH 18 0
BBX 18 15 0 8
BITMAP
FFFFC0
FFFFC0
FFFFC0
FFFFC0
FFFFC0
FFFFC0
FFFFC0
FFFFC0
FFFFC0
FFFFC0
FFFFC0
FFFFC0
FFFFC0
FFFFC0
FFFFC0
ENDCHAR
STARTCHAR 2584
ENCODING 9604
SWIDTH 720 0
DWIDTH 18 0
BBX 18 16 0 -8
BITMAP
FFFFC0
FFFFC0
FFFFC0
FFFFC0
FFFFC0
FFFFC0
FFFFC0
FFFFC0
FFFFC0
FFFFC0
FFFFC0
FFFFC0
FFFFC0
FFFFC0
FFFFC0
FFFFC0
ENDCHAR
STARTCHAR 2588
ENCODING 9608
SWIDTH 720 0
DWIDTH 18 0
BBX 18 31 0 -8
BITMAP
FFFFC0
FFFFC0
FFFFC0
FFFFC0
FFFFC0
FFFFC0
FFFFC0
FFFFC0
FFFFC0
FFFFC0
FFFFC0
FFFFC0
FFFFC0
FFFFC0
FFFFC0
FFFFC0
FFFFC0
FFFFC0
FFFFC0
FFFFC0
FFFFC0
FFFFC0
FFFFC0
FFFFC0
FFFFC0
FFFFC0
FFFFC0
FFFFC0
FFFFC0
FFFFC0
FFFFC0
ENDCHAR
STARTCHAR 258C
ENCODING 9612
SWIDTH 720 0
DWIDTH 18 0
BBX 9 31 0 -8
BITMAP
FF80
FF80
FF80
FF80
FF80
FF80
FF80
FF80
FF80
FF80
FF80
FF80
FF80
FF80
FF80
FF80
FF80
FF80
FF80
FF80
FF80
FF80
FF80
FF80
FF80
FF80
FF80
FF80
FF80
FF80
FF80
ENDCHAR
STARTCHAR 2590
ENCODING 9616
SWIDTH 720 0
DWIDTH 18 0
BBX 9 31 9 -8
BITMAP
FF80
FF80
FF80
FF80
FF80
FF80
FF80
FF80
FF80
FF80
FF80
FF80
FF80
FF80
FF80
FF80
FF80
FF80
FF80
FF80
FF80
FF80
FF80
FF80
FF80
FF80
FF80
FF80
FF80
FF80
FF80
ENDCHAR
STARTCHAR 2591
ENCODING 9617
SWIDTH 720 0
DWIDTH 18 0
BBX 17 29 1 -6
BITMAP
C30C00
C30C00
000000
186180
186180
000000
C30C00
C30C00
000000
186180
186180
000000
C30C00
C30C00
000000
186180
186180
000000
C30C00
C30C00
000000
000000
186180
000000
000000
C30C00
000000
000000
186180
ENDCHAR
STARTCHAR 2592
ENCODING 9618
SWIDTH 720 0
DWIDTH 18 0
BBX 18 29 0 -6
BITMAP
6DB6C0
6DB6C0
000000
924900
924900
000000
6DB6C0
6DB6C0
000000
924900
924900
000000
6DB6C0
6DB6C0
000000
924900
924900
000000
6DB6C0
6DB6C0
000000
000000
924900
000000
000000
6DB6C0
000000
000000
924900
ENDCHAR
STARTCHAR 2593
ENCODING 9619
SWIDTH 720 0
DWIDTH 18 0
BBX 18 31 0 -8
BITMAP
249240
249240
FFFFC0
DB6D80
DB6D80
FFFFC0
249240
249240
FFFFC0
DB6D80
DB6D80
FFFFC0
249240
249240
FFFFC0
DB6D80
DB6D80
FFFFC0
E49240
249240
FFFFC0
FFFFC0
DB6D80
FFFFC0
FFFFC0
249240
FFFFC0
FFFFC0
DB6D80
FFFFC0
FFFFC0
ENDCHAR
STARTCHAR 25A0
ENCODING 9632
SWIDTH 600 0
DWIDTH 15 0
BBX 11 12 2 0
BITMAP
FFE0
FFE0
FFE0
FFE0
FFE0
FFE0
FFE0
FFE0
FFE0
FFE0
FFE0
FFE0
ENDCHAR
STARTCHAR 25A1
ENCODING 9633
SWIDTH 600 0
DWIDTH 15 0
BBX 11 12 2 0
BITMAP
FFE0
8020
8020
8020
8020
8020
8020
8020
8020
8020
8020
FFE0
ENDCHAR
STARTCHAR 25AA
ENCODING 9642
SWIDTH 360 0
DWIDTH 9 0
BBX 7 7 1 5
BITMAP
FE
FE
FE
FE
FE
FE
FE
ENDCHAR
STARTCHAR 25AB
ENCODING 9643
SWIDTH 360 0
DWIDTH 9 0
BBX 7 7 1 5
BITMAP
FE
82
82
82
82
82
FE
ENDCHAR
STARTCHAR 25AC
ENCODING 9644
SWIDTH 1000 0
DWIDTH 25 0
BBX 25 5 0 4
BITMAP
FFFFFF80
FFFFFF80
FFFFFF80
FFFFFF80
FFFFFF80
ENDCHAR
STARTCHAR 25B2
ENCODING 9650
SWIDTH 1000 0
DWIDTH 25 0
BBX 17 17 4 0
BITMAP
008000
018000
01C000
03C000
03E000
07E000
07F000
0FF000
0FF800
1FF800
1FFC00
3FFC00
3FFE00
7FFE00
7FFF00
FFFF00
FFFF80
ENDCHAR
STARTCHAR 25BA
ENCODING 9658
SWIDTH 1000 0
DWIDTH 25 0
BBX 17 17 4 0
BITMAP
800000
E00000
F80000
FE0000
FF8000
FFE000
FFF800
FFFE00
FFFF80
FFFE00
FFF800
FFE000
FF8000
FE0000
F80000
E00000
800000
ENDCHAR
STARTCHAR 25BC
ENCODING 9660
SWIDTH 1000 0
DWIDTH 25 0
BBX 17 17 4 0
BITMAP
FFFF80
FFFF00
7FFF00
7FFE00
3FFE00
3FFC00
1FFC00
1FF800
0FF800
0FF000
07F000
07E000
03E000
03C000
01C000
018000
008000
ENDCHAR
STARTCHAR 25C4
ENCODING 9668
SWIDTH 1000 0
DWIDTH 25 0
BBX 17 17 4 0
BITMAP
000080
000380
000F80
003F80
00FF80
03FF80
0FFF80
3FFF80
FFFF80
7FFF80
1FFF80
07FF80
01FF80
007F80
001F80
000780
000180
ENDCHAR
STARTCHAR 25CA
ENCODING 9674
SWIDTH 480 0
DWIDTH 12 0
BBX 11 18 0 0
BITMAP
0400
0A00
1A00
1100
3080
2080
4040
4040
8020
8020
4040
4040
2080
2180
1100
0A00
0A00
0400
ENDCHAR
STARTCHAR 25CB
ENCODING 9675
SWIDTH 600 0
DWIDTH 15 0
BBX 11 10 2 2
BITMAP
1F80
60C0
4040
8020
8020
8020
8020
4040
60C0
1F00
ENDCHAR
STARTCHAR 25CF
ENCODING 9679
SWIDTH 600 0
DWIDTH 15 0
BBX 11 10 2 2
BITMAP
1F80
7FC0
7FC0
FFE0
FFE0
FFE0
FFE0
7FC0
7FC0
1F00
ENDCHAR
STARTCHAR 25D8
ENCODING 9688
SWIDTH 600 0
DWIDTH 15 0
BBX 12 12 2 0
BITMAP
FFF0
FFF0
FFF0
FFF0
F1F0
E0F0
E0F0
F1F0
FFF0
FFF0
FFF0
FFF0
ENDCHAR
STARTCHAR 25D9
ENCODING 9689
SWIDTH 600 0
DWIDTH 15 0
BBX 14 14 1 0
BITMAP
FFFC
FFFC
F03C
CF9C
DFDC
BFEC
BFEC
BFEC
BFEC
DFDC
EF9C
F07C
FFFC
FFFC
ENDCHAR
STARTCHAR 25E6
ENCODING 9702
SWIDTH 360 0
DWIDTH 9 0
BBX 7 7 1 5
BITMAP
38
44
82
82
82
C4
7C
ENDCHAR
STARTCHAR 263A
ENCODING 9786
SWIDTH 1040 0
DWIDTH 26 0
BBX 16 15 5 -1
BITMAP
07E0
1830
300C
6004
4002
8C32
8C32
8003
8003
8002
C822
47C6
210C
1818
0FF0
ENDCHAR
STARTCHAR 263B
ENCODING 9787
SWIDTH 1040 0
DWIDTH 26 0
BBX 16 15 5 -1
BITMAP
07E0
1FF8
3FFC
3FFE
7FFE
73CF
F3CF
FFFF
FFFF
7FFF
7BCE
7C1E
3F7C
1FF8
0FF0
ENDCHAR
STARTCHAR 263C
ENCODING 9788
SWIDTH 920 0
DWIDTH 23 0
BBX 23 23 0 -3
BITMAP
001000
001000
001000
101010
083820
04C640
030180
020080
040040
080040
080020
F8003E
080020
080040
040040
020080
030180
04C640
083820
101010
001000
001000
001000
ENDCHAR
STARTCHAR 2640
ENCODING 9792
SWIDTH 760 0
DWIDTH 19 0
BBX 13 23 3 -5
BITMAP
1FC0
2020
4010
8010
8008
8008
8008
8008
8010
4010
2020
18C0
0700
0200
0200
0200
0200
FFF0
0200
0200
0200
0200
0200
ENDCHAR
STARTCHAR 2642
ENCODING 9794
SWIDTH 760 0
DWIDTH 19 0
BBX 16 24 1 -4
BITMAP
0004
001E
006A
018A
000A
0011
0011
0021
0020
0040
0340
1CC0
2020
4010
4008
8008
8008
8008
8008
4008
4010
2020
1DC0
0200
ENDCHAR
STARTCHAR 2660
ENCODING 9824
SWIDTH 520 0
DWIDTH 13 0
BBX 12 14 1 0
BITMAP
0400
0600
0F00
1F80
3FC0
7FE0
FFE0
FFF0
FFF0
FDE0
24C0
0400
0E00
7FC0
ENDCHAR
STARTCHAR 2663
ENCODING 9827
SWIDTH 640 0
DWIDTH 16 0
BBX 15 15 1 0
BITMAP
0780
0FC0
0FC0
0FE0
0FC0
7FF8
FFFC
FFFE
FFFE
FEFE
FE7C
3110
0300
0780
3FF0
ENDCHAR
STARTCHAR 2665
ENCODING 9829
SWIDTH 600 0
DWIDTH 15 0
BBX 13 15 1 0
BITMAP
78F0
FDF8
FDF8
FFF8
FFF8
FFF0
7FF0
3FE0
1FC0
1FC0
0F80
0700
0700
0200
0200
ENDCHAR
STARTCHAR 2666
ENCODING 9830
SWIDTH 520 0
DWIDTH 13 0
BBX 11 15 1 0
BITMAP
0400
0C00
0E00
1F00
3F00
7F80
7FC0
FFE0
FFC0
7F80
3F80
1F00
0E00
0C00
0400
ENDCHAR
STARTCHAR 266A
ENCODING 9834
SWIDTH 520 0
DWIDTH 13 0
BBX 12 17 0 0
BITMAP
0380
03E0
03F0
0270
0210
0210
0200
0200
0200
0200
0200
0200
7E00
7E00
FE00
7E00
7C00
ENDCHAR
STARTCHAR 266B
ENCODING 9835
SWIDTH 760 0
DWIDTH 19 0
BBX 15 19 1 -1
BITMAP
000E
007E
03FE
03F2
0382
0202
0202
0202
0202
0202
0202
021A
027E
027E
7E7E
FE7E
FE3C
FC00
7C00
ENDCHAR
STARTCHAR E801
ENCODING 59393
SWIDTH 280 0
DWIDTH 7 0
BBX 5 17 0 0
BITMAP
80
00
00
38
38
38
38
38
38
38
38
38
38
38
38
38
38
ENDCHAR
STARTCHAR E802
ENCODING 59394
SWIDTH 520 0
DWIDTH 13 0
BBX 11 19 0 -5
BITMAP
FE00
FF80
FFC0
03C0
01E0
00E0
00E0
00E0
00E0
08E0
00E0
08E0
00E0
00E0
00E0
00E0
00E0
00E0
00E0
ENDCHAR
STARTCHAR E803
ENCODING 59395
SWIDTH 520 0
DWIDTH 13 0
BBX 11 19 0 -5
BITMAP
FE00
FF80
FFC0
03C0
01E0
00E0
00E0
00E0
00E0
7CE0
10E0
10E0
00E0
00E0
00E0
00E0
00E0
00E0
00E0
ENDCHAR
STARTCHAR E804
ENCODING 59396
SWIDTH 480 0
DWIDTH 12 0
BBX 13 18 -2 0
BITMAP
1C00
9C00
1C00
1C00
1FF8
1FF8
1FF8
0038
0038
0038
0038
0078
0070
00F0
00E0
00E0
00E0
00E0
ENDCHAR
STARTCHAR E805
ENCODING 59397
SWIDTH 480 0
DWIDTH 12 0
BBX 13 18 -2 0
BITMAP
1C00
9C00
1C00
1C00
1FF8
1FF8
1FF8
0038
0038
0038
0038
0478
0070
00F0
00E0
00E0
00E0
00E0
ENDCHAR
STARTCHAR E818
ENCODING 59416
SWIDTH 200 0
DWIDTH 5 0
BBX 5 7 0 17
BITMAP
30
C0
30
C8
28
B0
C0
ENDCHAR
STARTCHAR E83A
ENCODING 59450
SWIDTH 600 0
DWIDTH 15 0
BBX 16 3 -1 4
BITMAP
FFFF
FFFF
FFFF
ENDCHAR
STARTCHAR F001
ENCODING 61441
SWIDTH 600 0
DWIDTH 15 0
BBX 13 18 0 0
BITMAP
0FB8
1FB8
3800
3800
3838
FF38
FF38
3838
3838
3838
3838
3838
3838
3838
3838
3838
3838
3838
ENDCHAR
STARTCHAR F002
ENCODING 61442
SWIDTH 600 0
DWIDTH 15 0
BBX 13 18 0 0
BITMAP
0FB8
1FB8
3838
3838
3838
FF38
FF38
3838
3838
3838
3838
3838
3838
3838
3838
3838
3838
3838
ENDCHAR
STARTCHAR F004
ENCODING 61444
SWIDTH 320 0
DWIDTH 8 0
BBX 3 6 2 -7
BITMAP
E0
E0
60
60
C0
80
ENDCHAR
STARTCHAR F005
ENCODING 61445
SWIDTH 320 0
DWIDTH 8 0
BBX 7 4 0 -4
BITMAP
3C
0E
0E
F8
ENDCHAR
STARTCHAR F006
ENCODING 61446
SWIDTH 0 0
DWIDTH 0 0
BBX 3 2 -5 22
BITMAP
60
C0
ENDCHAR
STARTCHAR F007
ENCODING 61447
SWIDTH 0 0
DWIDTH 0 0
BBX 3 2 -10 22
BITMAP
60
C0
ENDCHAR
STARTCHAR F008
ENCODING 61448
SWIDTH 0 0
DWIDTH 0 0
BBX 5 3 -5 16
BITMAP
38
70
E0
ENDCHAR
STARTCHAR F009
ENCODING 61449
SWIDTH 0 0
DWIDTH 0 0
BBX 5 3 -8 21
BITMAP
38
70
E0
ENDCHAR
STARTCHAR F00A
ENCODING 61450
SWIDTH 0 0
DWIDTH 0 0
BBX 1 27 0 -5
BITMAP
80
80
80
80
80
80
80
80
80
80
80
00
00
00
00
80
80
80
80
80
80
80
80
80
80
80
80
ENDCHAR
STARTCHAR F00B
ENCODING 61451
SWIDTH 0 0
DWIDTH 0 0
BBX 5 27 -2 -5
BITMAP
F8
20
20
20
20
20
20
20
20
20
20
20
20
20
20
20
20
20
20
20
20
20
20
20
20
20
F8
ENDCHAR
STARTCHAR F00C
ENCODING 61452
SWIDTH 0 0
DWIDTH 0 0
BBX 3 27 0 -5
BITMAP
80
C0
E0
C0
80
80
80
80
80
80
80
80
80
80
80
80
80
80
80
80
80
80
80
80
80
80
80
ENDCHAR
STARTCHAR F00D
ENCODING 61453
SWIDTH 0 0
DWIDTH 0 0
BBX 3 27 -2 -5
BITMAP
20
60
E0
60
20
20
20
20
20
20
20
20
20
20
20
20
20
20
20
20
20
20
20
20
20
20
20
ENDCHAR
STARTCHAR F00E
ENCODING 61454
SWIDTH 0 0
DWIDTH 0 0
BBX 3 27 0 -5
BITMAP
80
80
80
80
80
80
80
80
80
80
80
80
80
80
80
80
80
80
80
80
80
80
80
80
80
80
E0
ENDCHAR
STARTCHAR F00F
ENCODING 61455
SWIDTH 0 0
DWIDTH 0 0
BBX 5 3 -11 16
BITMAP
E0
70
38
ENDCHAR
STARTCHAR F010
ENCODING 61456
SWIDTH 0 0
DWIDTH 0 0
BBX 4 3 -7 21
BITMAP
F0
10
20
ENDCHAR
STARTCHAR F011
ENCODING 61457
SWIDTH 0 0
DWIDTH 0 0
BBX 4 3 -12 21
BITMAP
F0
10
20
ENDCHAR
STARTCHAR F012
ENCODING 61458
SWIDTH 0 0
DWIDTH 0 0
BBX 5 4 -6 16
BITMAP
F0
18
18
20
ENDCHAR
STARTCHAR F013
ENCODING 61459
SWIDTH 0 0
DWIDTH 0 0
BBX 5 4 -9 20
BITMAP
F0
18
18
20
ENDCHAR
STARTCHAR F014
ENCODING 61460
SWIDTH 0 0
DWIDTH 0 0
BBX 5 4 -9 16
BITMAP
F0
18
18
20
ENDCHAR
STARTCHAR F015
ENCODING 61461
SWIDTH 0 0
DWIDTH 0 0
BBX 8 2 -13 22
BITMAP
71
8E
ENDCHAR
STARTCHAR F016
ENCODING 61462
SWIDTH 0 0
DWIDTH 0 0
BBX 8 3 -13 20
BITMAP
73
FF
CE
ENDCHAR
STARTCHAR F017
ENCODING 61463
SWIDTH 0 0
DWIDTH 0 0
BBX 8 3 -16 20
BITMAP
73
FF
CE
ENDCHAR
STARTCHAR F018
ENCODING 61464
SWIDTH 0 0
DWIDTH 0 0
BBX 8 3 -15 20
BITMAP
73
FF
CE
ENDCHAR
STARTCHAR F019
ENCODING 61465
SWIDTH 0 0
DWIDTH 0 0
BBX 8 4 -11 16
BITMAP
73
FF
CE
80
ENDCHAR
STARTCHAR F01A
ENCODING 61466
SWIDTH 0 0
DWIDTH 0 0
BBX 8 4 -14 16
BITMAP
73
FF
CE
80
ENDCHAR
STARTCHAR F01B
ENCODING 61467
SWIDTH 0 0
DWIDTH 0 0
BBX 8 4 -14 16
BITMAP
73
FF
CE
80
ENDCHAR
STARTCHAR F01C
ENCODING 61468
SWIDTH 0 0
DWIDTH 0 0
BBX 8 3 -8 20
BITMAP
73
FF
CE
ENDCHAR
STARTCHAR F01D
ENCODING 61469
SWIDTH 0 0
DWIDTH 0 0
BBX 8 4 -8 16
BITMAP
73
FF
CE
80
ENDCHAR
STARTCHAR F01E
ENCODING 61470
SWIDTH 0 0
DWIDTH 0 0
BBX 3 3 -10 -5
BITMAP
E0
E0
E0
ENDCHAR
STARTCHAR F01F
ENCODING 61471
SWIDTH 0 0
DWIDTH 0 0
BBX 3 3 -11 -5
BITMAP
E0
E0
E0
ENDCHAR
STARTCHAR F020
ENCODING 61472
SWIDTH 0 0
DWIDTH 0 0
BBX 3 3 -13 -5
BITMAP
E0
E0
E0
ENDCHAR
STARTCHAR F021
ENCODING 61473
SWIDTH 0 0
DWIDTH 0 0
BBX 3 3 -10 -5
BITMAP
E0
E0
E0
ENDCHAR
STARTCHAR F022
ENCODING 61474
SWIDTH 0 0
DWIDTH 0 0
BBX 3 3 -12 -5
BITMAP
E0
E0
E0
ENDCHAR
STARTCHAR F023
ENCODING 61475
SWIDTH 0 0
DWIDTH 0 0
BBX 3 3 -8 -5
BITMAP
E0
E0
E0
ENDCHAR
STARTCHAR F024
ENCODING 61476
SWIDTH 0 0
DWIDTH 0 0
BBX 3 3 -8 -5
BITMAP
E0
E0
E0
ENDCHAR
STARTCHAR F025
ENCODING 61477
SWIDTH 0 0
DWIDTH 0 0
BBX 3 3 -9 -5
BITMAP
E0
E0
E0
ENDCHAR
STARTCHAR F026
ENCODING 61478
SWIDTH 0 0
DWIDTH 0 0
BBX 3 3 -11 -5
BITMAP
E0
E0
E0
ENDCHAR
STARTCHAR F027
ENCODING 61479
SWIDTH 0 0
DWIDTH 0 0
BBX 3 3 -9 -5
BITMAP
E0
E0
E0
ENDCHAR
STARTCHAR F028
ENCODING 61480
SWIDTH 0 0
DWIDTH 0 0
BBX 3 3 -12 -5
BITMAP
E0
E0
E0
ENDCHAR
STARTCHAR F029
ENCODING 61481
SWIDTH 0 0
DWIDTH 0 0
BBX 3 3 -5 -5
BITMAP
E0
E0
E0
ENDCHAR
STARTCHAR F02A
ENCODING 61482
SWIDTH 0 0
DWIDTH 0 0
BBX 3 3 -5 -5
BITMAP
E0
E0
E0
ENDCHAR
STARTCHAR F02B
ENCODING 61483
SWIDTH 0 0
DWIDTH 0 0
BBX 3 3 -10 -5
BITMAP
E0
E0
E0
ENDCHAR
STARTCHAR F02C
ENCODING 61484
SWIDTH 0 0
DWIDTH 0 0
BBX 3 3 -4 -5
BITMAP
E0
E0
E0
ENDCHAR
STARTCHAR F02D
ENCODING 61485
SWIDTH 0 0
DWIDTH 0 0
BBX 8 2 -12 22
BITMAP
71
8E
ENDCHAR
STARTCHAR F02E
ENCODING 61486
SWIDTH 0 0
DWIDTH 0 0
BBX 8 3 -12 20
BITMAP
73
FF
CE
ENDCHAR
STARTCHAR F02F
ENCODING 61487
SWIDTH 0 0
DWIDTH 0 0
BBX 8 2 -13 22
BITMAP
71
8E
ENDCHAR
STARTCHAR F030
ENCODING 61488
SWIDTH 0 0
DWIDTH 0 0
BBX 8 3 -15 20
BITMAP
73
FF
CE
ENDCHAR
STARTCHAR F031
ENCODING 61489
SWIDTH 280 0
DWIDTH 7 0
BBX 3 14 2 0
BITMAP
E0
E0
E0
E0
E0
E0
E0
E0
E0
E0
E0
E0
E0
E0
ENDCHAR
STARTCHAR FB01
ENCODING 64257
SWIDTH 600 0
DWIDTH 15 0
BBX 13 18 0 0
BITMAP
0FB8
1FB8
3800
3800
3838
FF38
FF38
3838
3838
3838
3838
3838
3838
3838
3838
3838
3838
3838
ENDCHAR
STARTCHAR FB02
ENCODING 64258
SWIDTH 600 0
DWIDTH 15 0
BBX 13 18 0 0
BITMAP
0FB8
1FB8
3838
3838
3838
FF38
FF38
3838
3838
3838
3838
3838
3838
3838
3838
3838
3838
3838
ENDCHAR
STARTCHAR FB1D
ENCODING 64285
SWIDTH 280 0
DWIDTH 7 0
BBX 3 11 2 3
BITMAP
E0
E0
E0
E0
E0
E0
E0
E0
00
00
40
ENDCHAR
STARTCHAR FB1E
ENCODING 64286
SWIDTH 0 0
DWIDTH 0 0
BBX 8 4 -4 15
BITMAP
C3
E7
7E
3C
ENDCHAR
STARTCHAR FB1F
ENCODING 64287
SWIDTH 560 0
DWIDTH 14 0
BBX 10 10 2 4
BITMAP
E1C0
E1C0
E1C0
E1C0
E1C0
E1C0
E1C0
E1C0
0000
FFC0
ENDCHAR
STARTCHAR FB20
ENCODING 64288
SWIDTH 560 0
DWIDTH 14 0
BBX 13 14 0 0
BITMAP
7038
7038
3838
3838
3838
3838
3838
1C38
1C30
1C70
1CF0
FFE0
FFC0
FF00
ENDCHAR
STARTCHAR FB2A
ENCODING 64298
SWIDTH 680 0
DWIDTH 17 0
BBX 15 17 1 0
BITMAP
0004
0000
0000
E38E
E38E
E38E
E38E
E38E
E78E
FF1C
FF1C
7C1C
703C
7878
3FF8
1FF0
07C0
ENDCHAR
STARTCHAR FB2B
ENCODING 64299
SWIDTH 680 0
DWIDTH 17 0
BBX 15 17 1 0
BITMAP
4000
0000
0000
E38E
E38E
E38E
E38E
E38E
E78E
FF1C
FF1C
7C1C
703C
7878
3FF8
1FF0
07C0
ENDCHAR
STARTCHAR FB2C
ENCODING 64300
SWIDTH 680 0
DWIDTH 17 0
BBX 15 17 1 0
BITMAP
0004
0000
0000
E38E
E38E
E38E
E38E
E38E
E78E
FF1C
FF1C
7C9C
703C
7878
3FF8
1FF0
07C0
ENDCHAR
STARTCHAR FB2D
ENCODING 64301
SWIDTH 680 0
DWIDTH 17 0
BBX 15 17 1 0
BITMAP
4000
0000
0000
E38E
E38E
E38E
E38E
E38E
E78E
FF1C
FF1C
7C9C
703C
7878
3FF8
1FF0
07C0
ENDCHAR
STARTCHAR FB2E
ENCODING 64302
SWIDTH 600 0
DWIDTH 15 0
BBX 14 17 1 -3
BITMAP
F038
7838
3C38
1C38
1E70
3F70
7FE0
7BE0
73C0
F1E0
E0E0
E070
E078
E03C
0000
0000
0F80
ENDCHAR
STARTCHAR FB2F
ENCODING 64303
SWIDTH 600 0
DWIDTH 15 0
BBX 14 19 1 -5
BITMAP
F038
7838
3C38
1C38
1E70
3F70
7FE0
7BE0
73C0
F1E0
E0E0
E070
E078
E03C
0000
0000
0F80
0200
0200
ENDCHAR
STARTCHAR FB30
ENCODING 64304
SWIDTH 600 0
DWIDTH 15 0
BBX 14 14 1 0
BITMAP
F038
7838
3C38
1C38
1E70
3F70
7FE0
7BE0
73C0
F1E0
E0E0
E270
E078
E03C
ENDCHAR
STARTCHAR FB31
ENCODING 64305
SWIDTH 560 0
DWIDTH 14 0
BBX 12 14 1 0
BITMAP
FE00
FF80
FF80
03C0
01C0
01C0
01C0
11C0
01C0
01C0
01C0
FFF0
FFF0
FFF0
ENDCHAR
STARTCHAR FB32
ENCODING 64306
SWIDTH 440 0
DWIDTH 11 0
BBX 10 14 0 0
BITMAP
3E00
3F00
3F80
0780
0380
1380
0380
0380
0F80
1F80
3F80
79C0
71C0
E1C0
ENDCHAR
STARTCHAR FB33
ENCODING 64307
SWIDTH 560 0
DWIDTH 14 0
BBX 12 14 1 0
BITMAP
FFF0
FFF0
FFF0
01C0
01C0
01C0
09C0
01C0
01C0
01C0
01C0
01C0
01C0
01C0
ENDCHAR
STARTCHAR FB34
ENCODING 64308
SWIDTH 600 0
DWIDTH 15 0
BBX 11 14 2 0
BITMAP
FE00
FF80
FFC0
03C0
01E0
00E0
04E0
E0E0
E0E0
E0E0
E0E0
E0E0
E0E0
E0E0
ENDCHAR
STARTCHAR FB35
ENCODING 64309
SWIDTH 320 0
DWIDTH 8 0
BBX 6 14 1 0
BITMAP
1C
1C
1C
1C
1C
1C
1C
9C
1C
1C
1C
1C
1C
1C
ENDCHAR
STARTCHAR FB36
ENCODING 64310
SWIDTH 440 0
DWIDTH 11 0
BBX 9 14 1 0
BITMAP
FF80
FF80
FF80
0E00
0C00
1C00
1C00
9C00
1C00
1C00
1C00
1C00
1C00
1C00
ENDCHAR
STARTCHAR FB38
ENCODING 64312
SWIDTH 640 0
DWIDTH 16 0
BBX 12 14 2 0
BITMAP
E3C0
E7E0
E7F0
E270
E070
E070
E270
E070
E070
E070
70E0
7FE0
3FC0
0F00
ENDCHAR
STARTCHAR FB39
ENCODING 64313
SWIDTH 320 0
DWIDTH 8 0
BBX 6 8 1 6
BITMAP
1C
1C
1C
1C
1C
9C
1C
1C
ENDCHAR
STARTCHAR FB3A
ENCODING 64314
SWIDTH 520 0
DWIDTH 13 0
BBX 11 19 0 -5
BITMAP
FE00
FF80
FFC0
03C0
01E0
00E0
00E0
00E0
08E0
00E0
00E0
00E0
00E0
00E0
00E0
00E0
00E0
00E0
00E0
ENDCHAR
STARTCHAR FB3B
ENCODING 64315
SWIDTH 480 0
DWIDTH 12 0
BBX 10 14 1 0
BITMAP
FC00
FF00
FF80
0780
03C0
01C0
11C0
01C0
01C0
03C0
0780
FF80
FF00
FC00
ENDCHAR
STARTCHAR FB3C
ENCODING 64316
SWIDTH 480 0
DWIDTH 12 0
BBX 10 18 1 0
BITMAP
E000
E000
E000
E000
FFC0
FFC0
FFC0
01C0
01C0
01C0
01C0
23C0
0380
0780
0700
0700
0700
0700
ENDCHAR
STARTCHAR FB3E
ENCODING 64318
SWIDTH 640 0
DWIDTH 16 0
BBX 15 14 0 0
BITMAP
E1F0
67F8
77FC
7F1C
3E0E
3C0E
1C4E
1C0E
380E
380E
380E
78FE
70FE
70FE
ENDCHAR
STARTCHAR FB40
ENCODING 64320
SWIDTH 400 0
DWIDTH 10 0
BBX 7 14 1 0
BITMAP
F8
FC
FE
1E
0E
0E
4E
0E
0E
0E
0E
FE
FE
FE
ENDCHAR
STARTCHAR FB41
ENCODING 64321
SWIDTH 600 0
DWIDTH 15 0
BBX 13 14 1 0
BITMAP
0F80
3FE0
7FF0
78F0
F078
E038
E238
E038
E038
F078
78F0
7FF0
3FE0
0F80
ENDCHAR
STARTCHAR FB43
ENCODING 64323
SWIDTH 600 0
DWIDTH 15 0
BBX 12 19 1 -5
BITMAP
FF00
FFC0
FFE0
E1E0
E0F0
E070
E070
F270
7070
3070
0070
0070
0070
0070
0070
0070
0070
0070
0070
ENDCHAR
STARTCHAR FB44
ENCODING 64324
SWIDTH 600 0
DWIDTH 15 0
BBX 13 14 1 0
BITMAP
7F00
FFC0
FFF0
E0F0
E078
F038
F038
7238
0038
0078
40F0
FFF0
FFC0
7F00
ENDCHAR
STARTCHAR FB46
ENCODING 64326
SWIDTH 520 0
DWIDTH 13 0
BBX 12 14 0 0
BITMAP
F070
7070
3870
3C70
1C70
0EE0
0FE0
07C0
4380
01C0
01C0
7FE0
7FF0
7FF0
ENDCHAR
STARTCHAR FB47
ENCODING 64327
SWIDTH 560 0
DWIDTH 14 0
BBX 11 19 2 -5
BITMAP
FFE0
FFE0
FFE0
00E0
00E0
08E0
00E0
E1E0
E1C0
E3C0
E380
E380
E380
E380
E000
E000
E000
E000
E000
ENDCHAR
STARTCHAR FB48
ENCODING 64328
SWIDTH 520 0
DWIDTH 13 0
BBX 11 14 0 0
BITMAP
FE00
FF80
FFC0
03C0
01E0
00E0
00E0
00E0
08E0
00E0
00E0
00E0
00E0
00E0
ENDCHAR
STARTCHAR FB49
ENCODING 64329
SWIDTH 680 0
DWIDTH 17 0
BBX 15 14 1 0
BITMAP
E38E
E38E
E38E
E38E
E38E
E78E
FF1C
FF1C
7C9C
703C
7878
3FF8
1FF0
07C0
ENDCHAR
STARTCHAR FB4A
ENCODING 64330
SWIDTH 680 0
DWIDTH 17 0
BBX 14 14 1 0
BITMAP
FFE0
FFF8
FFF8
1C3C
1C1C
1C1C
1C1C
1C9C
1C1C
1C1C
1C1C
FC1C
FC1C
781C
ENDCHAR
STARTCHAR FB4B
ENCODING 64331
SWIDTH 280 0
DWIDTH 7 0
BBX 3 17 2 0
BITMAP
40
00
00
E0
E0
E0
E0
E0
E0
E0
E0
E0
E0
E0
E0
E0
E0
ENDCHAR
STARTCHAR FB4C
ENCODING 64332
SWIDTH 560 0
DWIDTH 14 0
BBX 12 17 1 0
BITMAP
1F00
0000
0000
FE00
FF80
FF80
03C0
01C0
01C0
01C0
01C0
01C0
01C0
01C0
FFF0
FFF0
FFF0
ENDCHAR
STARTCHAR FB4D
ENCODING 64333
SWIDTH 480 0
DWIDTH 12 0
BBX 10 17 1 0
BITMAP
7C00
0000
0000
FC00
FF00
FF80
0780
03C0
01C0
01C0
01C0
01C0
03C0
0780
FF80
FF00
FC00
ENDCHAR
STARTCHAR FB4E
ENCODING 64334
SWIDTH 600 0
DWIDTH 15 0
BBX 13 17 1 0
BITMAP
1F00
0000
0000
7F00
FFC0
FFF0
E0F0
E078
F838
7C38
3C38
0038
0078
40F0
FFF0
FFC0
7F00
ENDCHAR
STARTCHAR FB4F
ENCODING 64335
SWIDTH 600 0
DWIDTH 15 0
BBX 14 18 1 0
BITMAP
E000
E000
E000
E000
F038
F838
FC38
1E38
0E70
1F70
3FF0
3BE0
7BC0
71E0
70F0
7070
7078
703C
ENDCHAR
STARTCHAR FB50
ENCODING 64336
SWIDTH 240 0
DWIDTH 6 0
BBX 5 19 1 3
BITMAP
38
68
F0
80
20
20
60
60
60
60
70
30
30
30
30
30
30
20
20
ENDCHAR
STARTCHAR FB51
ENCODING 64337
SWIDTH 240 0
DWIDTH 6 0
BBX 7 18 -1 4
BITMAP
38
68
F0
80
20
20
70
70
30
30
30
30
30
30
30
3E
1E
0E
ENDCHAR
STARTCHAR FB52
ENCODING 64338
SWIDTH 640 0
DWIDTH 16 0
BBX 15 16 1 -4
BITMAP
4004
C004
800E
8006
C002
FFFE
7FFE
3FFE
0000
0000
0080
01C0
0080
0040
00E0
0040
ENDCHAR
STARTCHAR FB53
ENCODING 64339
SWIDTH 640 0
DWIDTH 16 0
BBX 15 16 1 -4
BITMAP
4004
C004
800E
8006
C002
FFFE
7FFE
3FFE
0000
0000
0080
01C0
0080
0040
00E0
0040
ENDCHAR
STARTCHAR FB54
ENCODING 64340
SWIDTH 280 0
DWIDTH 7 0
BBX 8 16 -1 -4
BITMAP
02
02
07
03
01
FF
FF
FF
00
00
08
1C
08
04
0E
04
ENDCHAR
STARTCHAR FB55
ENCODING 64341
SWIDTH 280 0
DWIDTH 7 0
BBX 8 16 -1 -4
BITMAP
02
02
07
03
01
FF
FF
FF
00
00
08
1C
08
04
0E
04
ENDCHAR
STARTCHAR FB56
ENCODING 64342
SWIDTH 640 0
DWIDTH 16 0
BBX 15 16 1 -4
BITMAP
4004
C004
800E
8006
C002
FFFE
7FFE
3FFE
0000
0000
0040
02E0
0740
0240
00E0
0040
ENDCHAR
STARTCHAR FB57
ENCODING 64343
SWIDTH 640 0
DWIDTH 16 0
BBX 15 16 1 -4
BITMAP
4004
C004
800E
8006
C002
FFFE
7FFE
3FFE
0000
0000
0040
02E0
0740
0240
00E0
0040
ENDCHAR
STARTCHAR FB58
ENCODING 64344
SWIDTH 280 0
DWIDTH 7 0
BBX 8 16 -1 -4
BITMAP
02
02
07
03
01
FF
FF
FF
00
00
04
2E
74
24
0E
04
ENDCHAR
STARTCHAR FB59
ENCODING 64345
SWIDTH 280 0
DWIDTH 7 0
BBX 8 16 -1 -4
BITMAP
02
02
07
03
01
FF
FF
FF
00
00
04
2E
74
24
0E
04
ENDCHAR
STARTCHAR FB5A
ENCODING 64346
SWIDTH 640 0
DWIDTH 16 0
BBX 15 17 1 -5
BITMAP
4004
C004
800E
8006
C002
FFFE
7FFE
3FFE
0000
0000
0040
02E0
0740
0220
0170
03A0
0100
ENDCHAR
STARTCHAR FB5B
ENCODING 64347
SWIDTH 640 0
DWIDTH 16 0
BBX 15 17 1 -5
BITMAP
4004
C004
800E
8006
C002
FFFE
7FFE
3FFE
0000
0000
0040
02E0
0740
0220
0170
03A0
0100
ENDCHAR
ENDFONT
